<?xml version="1.0" encoding="utf-8"?>
<!-- Generator: Adobe Illustrator 16.0.0, SVG Export Plug-In . SVG Version: 6.00 Build 0)  -->
<!DOCTYPE svg PUBLIC "-//W3C//DTD SVG 1.1//EN" "http://www.w3.org/Graphics/SVG/1.1/DTD/svg11.dtd">
<svg version="1.1" id="Layer_1" xmlns="http://www.w3.org/2000/svg" xmlns:xlink="http://www.w3.org/1999/xlink" x="0px" y="0px"
	 width="20.8px" height="20.8px" viewBox="0 0 20.8 20.8" enable-background="new 0 0 20.8 20.8" xml:space="preserve">
<path fill-rule="evenodd" clip-rule="evenodd" fill="#FFFFFF" d="M2.656,0H18.05c1.464,0,2.66,1.195,2.66,2.659v15.394
	c0,1.462-1.196,2.658-2.66,2.658H2.656C1.194,20.711,0,19.515,0,18.053V2.659C0,1.195,1.194,0,2.656,0L2.656,0z M15.085,2.301
	L15.085,2.301c-0.513,0-0.933,0.419-0.933,0.932v2.234c0,0.511,0.42,0.932,0.933,0.932h2.341c0.514,0,0.934-0.421,0.934-0.932V3.232
	c0-0.513-0.42-0.932-0.934-0.932H15.085L15.085,2.301z M18.368,8.76L18.368,8.76h-1.823c0.172,0.562,0.267,1.157,0.267,1.776
	c0,3.444-2.884,6.238-6.438,6.238s-6.438-2.794-6.438-6.238c0-0.619,0.094-1.215,0.265-1.776H2.3v8.747
	c0,0.453,0.37,0.823,0.823,0.823h14.422c0.451,0,0.823-0.37,0.823-0.823V8.76L18.368,8.76z M10.373,6.28L10.373,6.28
	c-2.296,0-4.159,1.804-4.159,4.03c0,2.226,1.863,4.029,4.159,4.029c2.298,0,4.159-1.804,4.159-4.029
	C14.532,8.084,12.671,6.28,10.373,6.28L10.373,6.28z"/>
</svg>
