<?xml version="1.0" encoding="utf-8"?>
<!-- Generator: Adobe Illustrator 16.0.0, SVG Export Plug-In . SVG Version: 6.00 Build 0)  -->
<!DOCTYPE svg PUBLIC "-//W3C//DTD SVG 1.1//EN" "http://www.w3.org/Graphics/SVG/1.1/DTD/svg11.dtd">
<svg version="1.1" id="Layer_1" xmlns="http://www.w3.org/2000/svg" xmlns:xlink="http://www.w3.org/1999/xlink" x="0px" y="0px"
	 width="309.2px" height="65.1px" viewBox="0 0 309.2 65.1" enable-background="new 0 0 309.2 65.1" xml:space="preserve">
<g>
	<path fill="#020202" d="M92.114,55.805c0,1.385,0.137,2.497,0.409,3.322c0.268,0.838,0.688,1.488,1.254,1.956
		c0.556,0.471,1.256,0.808,2.09,1.01c0.835,0.204,1.816,0.345,2.94,0.426c0.27,0,0.463,0.108,0.579,0.337
		c0.116,0.222,0.176,0.48,0.176,0.759c0,0.246-0.071,0.473-0.205,0.675c-0.135,0.201-0.338,0.307-0.608,0.307
		c-2.096,0-3.89-0.085-5.38-0.248c-1.498-0.156-2.94-0.242-4.339-0.242c-1.473,0-2.929,0.086-4.358,0.242
		c-1.437,0.163-2.834,0.248-4.196,0.248c-0.231,0-0.404-0.105-0.523-0.307c-0.112-0.202-0.183-0.429-0.198-0.675
		c-0.021-0.24,0.03-0.474,0.146-0.698c0.114-0.225,0.307-0.359,0.575-0.397c1.091-0.125,1.98-0.284,2.682-0.486
		c0.694-0.206,1.238-0.531,1.629-0.979c0.386-0.445,0.646-1.037,0.783-1.77c0.139-0.729,0.205-1.706,0.205-2.929V33.591
		c0-0.895-0.021-1.79-0.059-2.683c-0.037-0.895-0.167-1.718-0.384-2.475c-0.206-0.751-0.521-1.395-0.926-1.922
		c-0.409-0.526-0.958-0.874-1.658-1.039c-0.423-0.077-0.872-0.168-1.336-0.276c-0.468-0.1-0.915-0.168-1.341-0.212
		c-0.231,0-0.402-0.098-0.522-0.305c-0.118-0.204-0.177-0.429-0.177-0.666c0-0.247,0.059-0.467,0.177-0.673
		c0.12-0.208,0.291-0.309,0.522-0.309c1.319,0,2.505,0.066,3.55,0.186c1.051,0.123,2.272,0.184,3.661,0.184
		c2.327-0.042,4.26-0.117,5.793-0.214c1.532-0.103,2.997-0.155,4.392-0.155c1.553,0,3.069,0.178,4.567,0.519
		c1.491,0.346,2.813,0.937,3.956,1.771c1.145,0.831,2.064,1.919,2.764,3.271c0.697,1.334,1.049,2.981,1.049,4.939
		c0,2.276-0.429,4.17-1.279,5.669c-0.856,1.508-2.028,2.729-3.522,3.668c-1.491,0.94-3.25,1.615-5.262,2.041
		c-2.02,0.43-4.192,0.684-6.517,0.765c-0.39,0-0.67,0.059-0.846,0.182c-0.172,0.125-0.263,0.47-0.263,1.035V55.805z M92.114,42.562
		c0,0.324,0.091,0.531,0.263,0.607c0.176,0.083,0.49,0.125,0.96,0.125c1.899,0,3.488-0.151,4.771-0.458
		c1.278-0.303,2.307-0.813,3.086-1.526c0.774-0.71,1.324-1.635,1.659-2.773c0.325-1.136,0.488-2.566,0.488-4.276
		c0-3.21-0.56-5.474-1.686-6.8c-1.125-1.322-3.064-1.988-5.821-1.988c-1.509,0-2.509,0.205-2.991,0.611
		c-0.485,0.406-0.729,1.241-0.729,2.509V42.562z"/>
	<path fill="#020202" d="M125.059,59.297c0,1.07,0.095,1.816,0.284,2.24c0.188,0.424,0.559,0.637,1.109,0.637
		c0.316,0,0.581-0.035,0.782-0.115c0.203-0.071,0.494-0.232,0.867-0.479c0.089-0.055,0.186-0.055,0.283,0
		c0.103,0.061,0.191,0.147,0.265,0.246c0.069,0.113,0.12,0.232,0.152,0.371c0.024,0.138,0,0.255-0.089,0.346
		c-1.131,1.427-2.463,2.139-4,2.139c-0.842,0-1.56-0.235-2.155-0.704c-0.592-0.474-1.034-1.027-1.324-1.669
		c-0.06-0.153-0.146-0.164-0.265-0.045c-0.754,0.707-1.628,1.273-2.628,1.736c-1,0.454-2.257,0.682-3.762,0.682
		c-1.653,0-2.931-0.462-3.829-1.391c-0.896-0.926-1.346-2.238-1.346-3.945c0-2.188,0.972-3.871,2.913-5.04
		c1.942-1.175,4.766-1.759,8.479-1.759c0.059,0,0.108-0.076,0.131-0.224c0.027-0.153,0.041-0.507,0.041-1.056v-1.23
		c0-0.754-0.059-1.477-0.172-2.146c-0.118-0.664-0.31-1.251-0.587-1.758c-0.272-0.496-0.659-0.895-1.153-1.183
		c-0.493-0.291-1.099-0.43-1.825-0.43c-1.075,0-1.94,0.218-2.609,0.659c-0.664,0.438-1.004,1.012-1.004,1.708
		c0,0.339,0.106,0.666,0.306,0.985c0.205,0.316,0.308,0.646,0.308,0.98c0,0.43-0.203,0.838-0.613,1.231
		c-0.403,0.394-0.894,0.589-1.477,0.589c-0.779,0-1.341-0.213-1.674-0.657c-0.334-0.44-0.502-0.979-0.502-1.621
		c0-0.757,0.205-1.481,0.612-2.163c0.406-0.687,0.96-1.274,1.649-1.759c0.698-0.484,1.512-0.878,2.44-1.167
		c0.927-0.282,1.898-0.432,2.912-0.432c2.316,0,4.146,0.567,5.479,1.693c1.331,1.121,2,2.992,2,5.605V59.297z M120.969,54.788
		c0-0.339-0.014-0.545-0.041-0.622c-0.022-0.07-0.099-0.111-0.218-0.111c-2.374,0.217-4.136,0.737-5.288,1.572
		c-1.142,0.84-1.713,1.906-1.713,3.216c0,0.917,0.215,1.686,0.652,2.306c0.436,0.617,1.157,0.934,2.176,0.934
		c0.662,0,1.367-0.137,2.108-0.413c0.739-0.274,1.397-0.666,1.979-1.181c0.231-0.242,0.345-0.493,0.345-0.729V54.788z"/>
	<path fill="#020202" d="M137.672,58.703c0,0.768,0.02,1.405,0.064,1.922c0.044,0.517,0.197,0.942,0.455,1.277
		c0.266,0.336,0.668,0.586,1.221,0.771c0.552,0.184,1.346,0.327,2.394,0.412c0.173,0.03,0.305,0.113,0.389,0.254
		c0.09,0.14,0.134,0.293,0.134,0.477c0,0.153-0.044,0.301-0.134,0.436c-0.084,0.134-0.216,0.202-0.389,0.202
		c-1.249,0-2.351-0.049-3.306-0.155c-0.956-0.105-1.869-0.168-2.742-0.168c-0.93,0-1.846,0.062-2.76,0.168
		c-0.916,0.106-1.84,0.155-2.763,0.155c-0.146,0-0.259-0.068-0.348-0.202c-0.087-0.135-0.13-0.282-0.13-0.436
		c0-0.184,0.043-0.337,0.13-0.477c0.089-0.141,0.218-0.224,0.39-0.254c0.813-0.085,1.44-0.229,1.895-0.412
		c0.451-0.186,0.773-0.43,0.979-0.751c0.2-0.316,0.323-0.71,0.367-1.185c0.045-0.471,0.067-1.054,0.067-1.758v-6.659
		c0-1.493-0.029-2.67-0.088-3.538c-0.061-0.866-0.195-1.532-0.413-2.008c-0.218-0.471-0.558-0.779-1.021-0.934
		c-0.464-0.152-1.104-0.258-1.915-0.32c-0.147,0-0.252-0.077-0.326-0.227c-0.069-0.153-0.11-0.305-0.11-0.458
		c0-0.151,0.041-0.307,0.11-0.45c0.074-0.157,0.195-0.234,0.372-0.234c0.577-0.061,1.384-0.131,2.413-0.201
		c1.028-0.081,2.078-0.271,3.15-0.573c0.406-0.117,0.737-0.138,0.999-0.049c0.262,0.095,0.377,0.352,0.347,0.779l-0.085,2.919
		c0,0.064,0.016,0.099,0.043,0.115c0.031,0.016,0.072-0.011,0.131-0.067c0.611-1.283,1.354-2.297,2.243-3.06
		c0.881-0.755,2.063-1.139,3.541-1.139c1.221,0,2.115,0.329,2.698,0.979c0.579,0.655,0.871,1.455,0.871,2.394
		c0,0.521-0.188,0.989-0.566,1.421c-0.377,0.424-0.911,0.632-1.609,0.632c-0.669,0-1.132-0.161-1.394-0.498
		c-0.261-0.34-0.391-0.701-0.391-1.095c0-0.428-0.08-0.759-0.239-1.005c-0.16-0.242-0.499-0.365-1.021-0.365
		c-0.554,0-1.051,0.189-1.5,0.569c-0.449,0.384-0.836,0.831-1.154,1.346c-0.318,0.517-0.566,1.048-0.738,1.599
		c-0.172,0.545-0.262,0.977-0.262,1.28V58.703z"/>
	<path fill="#020202" d="M170.074,64.454c-0.469-0.03-0.938-0.059-1.417-0.095c-0.478-0.026-0.977-0.041-1.501-0.041
		c-0.578,0-1.147,0.022-1.714,0.067c-0.567,0.046-1.099,0.068-1.589,0.068c-0.203,0-0.35-0.068-0.436-0.224
		c-0.086-0.156-0.146-0.291-0.173-0.412c-0.234-1.275-0.613-2.473-1.149-3.583c-0.541-1.11-1.154-2.093-1.853-2.94
		c-0.692-0.855-1.438-1.526-2.239-2.006c-0.795-0.491-1.587-0.737-2.371-0.737v3.561c0,0.888,0.014,1.612,0.047,2.19
		c0.025,0.576,0.121,1.051,0.285,1.418c0.155,0.361,0.408,0.652,0.759,0.864c0.345,0.21,0.851,0.384,1.522,0.501
		c0.171,0.032,0.304,0.125,0.389,0.276c0.086,0.155,0.131,0.299,0.131,0.456c0,0.151-0.045,0.295-0.131,0.432
		c-0.085,0.136-0.218,0.204-0.389,0.204c-0.813,0-1.555-0.049-2.223-0.155c-0.667-0.105-1.434-0.168-2.305-0.168
		c-0.927,0-1.842,0.062-2.736,0.168c-0.899,0.106-1.814,0.155-2.744,0.155c-0.143,0-0.262-0.068-0.344-0.204
		c-0.089-0.137-0.133-0.28-0.133-0.432c0-0.186,0.044-0.344,0.133-0.479c0.082-0.141,0.218-0.222,0.39-0.254
		c0.808-0.089,1.442-0.229,1.894-0.412c0.446-0.186,0.775-0.43,0.978-0.751c0.204-0.316,0.317-0.71,0.351-1.185
		c0.026-0.471,0.04-1.054,0.04-1.754V41.051c0-1.311-0.029-2.35-0.084-3.123c-0.062-0.777-0.222-1.38-0.479-1.805
		c-0.264-0.428-0.657-0.708-1.177-0.863c-0.521-0.151-1.246-0.276-2.173-0.369c-0.146,0-0.252-0.079-0.323-0.227
		c-0.075-0.151-0.118-0.301-0.134-0.46c-0.017-0.149,0.016-0.299,0.088-0.452c0.072-0.151,0.193-0.23,0.369-0.23
		c1.045-0.052,2.192-0.153,3.459-0.27c1.259-0.119,2.428-0.35,3.498-0.685c0.407-0.125,0.675-0.101,0.804,0.066
		c0.134,0.169,0.21,0.341,0.239,0.524v19.439c0.555-0.371,1.069-0.781,1.569-1.237c0.487-0.454,0.938-0.924,1.348-1.413
		c0.404-0.49,0.777-0.96,1.13-1.416c0.349-0.455,0.652-0.85,0.913-1.184c0.579-0.793,0.832-1.362,0.76-1.711
		c-0.073-0.352-0.571-0.551-1.503-0.616c-0.143,0-0.261-0.074-0.347-0.229c-0.087-0.151-0.129-0.303-0.129-0.452
		c0-0.187,0.042-0.348,0.129-0.484c0.086-0.132,0.204-0.202,0.347-0.202c0.467,0,0.863,0.014,1.198,0.047
		c0.334,0.029,0.638,0.066,0.915,0.112c0.275,0.043,0.543,0.085,0.803,0.113c0.262,0.034,0.566,0.048,0.914,0.048
		c0.664,0,1.348-0.056,2.043-0.161c0.697-0.103,1.379-0.159,2.042-0.159c0.118,0,0.223,0.07,0.307,0.202
		c0.085,0.137,0.131,0.298,0.131,0.484c0,0.149-0.038,0.294-0.106,0.43c-0.074,0.136-0.184,0.222-0.331,0.252
		c-0.577,0.065-1.057,0.153-1.434,0.274s-0.725,0.289-1.041,0.497c-0.321,0.218-0.625,0.472-0.913,0.755
		c-0.291,0.297-0.637,0.63-1.045,1.029c-0.263,0.24-0.606,0.579-1.045,1.005c-0.436,0.424-0.905,0.872-1.411,1.343
		c-0.507,0.475-1.003,0.922-1.48,1.344c-0.479,0.428-0.89,0.781-1.238,1.054c-0.116,0.089-0.16,0.184-0.134,0.276
		c0.033,0.085,0.089,0.131,0.176,0.131c1.159,0.063,2.127,0.273,2.892,0.62c0.771,0.348,1.415,0.785,1.937,1.324
		c0.524,0.535,0.967,1.128,1.328,1.796c0.36,0.673,0.722,1.367,1.087,2.079c0.361,0.717,0.771,1.415,1.218,2.102
		c0.446,0.683,1.021,1.312,1.717,1.894c0.2,0.148,0.458,0.27,0.76,0.363c0.308,0.091,0.617,0.151,0.938,0.18
		c0.173,0,0.307,0.082,0.391,0.229c0.084,0.153,0.132,0.317,0.132,0.503c0,0.151-0.048,0.295-0.132,0.432
		C170.381,64.386,170.247,64.454,170.074,64.454"/>
	<path fill="#020202" d="M179.392,31.271c0,1.219,0.241,2.244,0.727,3.08c0.485,0.838,1.103,1.536,1.861,2.107
		c0.756,0.568,1.59,1.073,2.498,1.495c0.916,0.429,1.796,0.846,2.652,1.247c1.471,0.737,2.935,1.508,4.39,2.324
		c1.459,0.812,2.763,1.764,3.926,2.836c1.163,1.079,2.104,2.359,2.821,3.847c0.722,1.483,1.078,3.286,1.078,5.403
		c0,2.113-0.417,3.894-1.25,5.336c-0.834,1.445-1.92,2.625-3.261,3.539c-1.336,0.918-2.841,1.58-4.509,1.986
		c-1.666,0.403-3.335,0.611-4.999,0.611c-1.091,0-2.311-0.178-3.668-0.519c-1.356-0.348-2.598-0.864-3.724-1.562
		c-0.194-0.077-0.375-0.157-0.552-0.24c-0.175-0.083-0.398-0.121-0.669-0.121c-0.272,0-0.563,0.121-0.874,0.361
		c-0.31,0.25-0.579,0.676-0.812,1.286c-0.118,0.24-0.274,0.403-0.468,0.49c-0.195,0.078-0.399,0.108-0.611,0.086
		c-0.213-0.018-0.388-0.086-0.523-0.211s-0.201-0.265-0.201-0.428c0.112-0.891,0.222-1.861,0.317-2.898
		c0.097-1.034,0.148-2.084,0.148-3.146c0-1.052-0.034-2.111-0.089-3.169c-0.06-1.056-0.167-2.157-0.317-3.3
		c-0.04-0.238,0.037-0.446,0.23-0.607c0.195-0.161,0.41-0.257,0.639-0.272c0.235-0.024,0.456,0.016,0.672,0.125
		c0.212,0.099,0.338,0.276,0.375,0.517c0.233,1.667,0.664,3.181,1.283,4.54c0.619,1.361,1.395,2.524,2.326,3.483
		c0.928,0.956,1.983,1.699,3.17,2.229c1.182,0.524,2.472,0.791,3.869,0.791c1.044,0,2.047-0.153,2.994-0.458
		c0.952-0.305,1.794-0.753,2.537-1.341c0.731-0.591,1.313-1.308,1.742-2.165c0.426-0.862,0.638-1.854,0.638-2.996
		c0-1.461-0.301-2.744-0.902-3.845c-0.601-1.099-1.349-2.04-2.238-2.834c-0.894-0.793-1.885-1.485-2.966-2.079
		c-1.089-0.587-2.118-1.126-3.087-1.616c-1.275-0.612-2.558-1.241-3.84-1.89c-1.282-0.647-2.424-1.433-3.43-2.35
		c-1.011-0.918-1.821-2.016-2.445-3.296c-0.62-1.279-0.927-2.876-0.927-4.79c0-1.951,0.377-3.588,1.131-4.912
		c0.756-1.32,1.753-2.388,2.995-3.203c1.244-0.82,2.66-1.403,4.248-1.774c1.589-0.363,3.236-0.549,4.944-0.549
		c1.085,0,2.009,0.072,2.767,0.218c0.754,0.141,1.599,0.373,2.527,0.702c0.507,0.161,0.922,0.295,1.255,0.392
		c0.326,0.107,0.646,0.155,0.959,0.155c0.463,0,0.791-0.206,0.987-0.607c0.076-0.163,0.225-0.278,0.437-0.341
		c0.213-0.059,0.415-0.079,0.611-0.059c0.191,0.022,0.365,0.072,0.522,0.151c0.154,0.085,0.212,0.204,0.176,0.369
		c-0.194,0.729-0.317,1.464-0.38,2.194c-0.059,0.734-0.087,1.504-0.087,2.323c0,1.056,0.061,2.008,0.174,2.868
		c0.117,0.85,0.215,1.865,0.293,3.048c0,0.121-0.078,0.233-0.232,0.337c-0.159,0.099-0.342,0.161-0.552,0.18
		c-0.216,0.021-0.421-0.008-0.614-0.091c-0.194-0.079-0.31-0.224-0.348-0.426c-0.387-1.792-0.815-3.269-1.279-4.425
		c-0.467-1.16-1.05-2.064-1.746-2.717c-0.698-0.646-1.543-1.098-2.53-1.344c-0.989-0.238-2.181-0.365-3.574-0.365
		c-0.976,0-1.895,0.133-2.769,0.401c-0.872,0.263-1.638,0.662-2.3,1.185c-0.658,0.529-1.18,1.193-1.568,1.99
		C179.585,29.352,179.392,30.254,179.392,31.271"/>
	<path fill="#020202" d="M208.208,52.598c-0.144,0-0.22,0.051-0.235,0.153c-0.017,0.107-0.021,0.238-0.021,0.392
		c0,1.581,0.163,2.919,0.5,4.015c0.328,1.099,0.792,1.982,1.389,2.669c0.594,0.686,1.308,1.177,2.134,1.481
		c0.824,0.301,1.718,0.456,2.675,0.456c0.986,0,1.94-0.087,2.867-0.25c0.932-0.17,1.726-0.539,2.391-1.117
		c0.148-0.121,0.302-0.167,0.458-0.135c0.161,0.026,0.292,0.105,0.393,0.227c0.103,0.121,0.168,0.258,0.199,0.409
		c0.028,0.155,0,0.289-0.085,0.41c-0.935,1.277-1.979,2.161-3.136,2.646s-2.599,0.729-4.303,0.729c-1.741,0-3.245-0.27-4.508-0.821
		c-1.261-0.545-2.299-1.312-3.128-2.301c-0.83-0.991-1.438-2.144-1.827-3.466c-0.392-1.324-0.585-2.761-0.585-4.312
		c0-1.49,0.239-2.903,0.715-4.243c0.477-1.339,1.15-2.495,2.024-3.468c0.868-0.973,1.897-1.752,3.087-2.329
		c1.189-0.579,2.507-0.866,3.958-0.866c1.217,0,2.327,0.221,3.325,0.664c1,0.437,1.85,1.048,2.545,1.818
		c0.697,0.775,1.238,1.706,1.632,2.786c0.392,1.083,0.584,2.244,0.584,3.493c0,0.639-0.219,0.961-0.648,0.961H208.208z
		 M216.171,50.995c0.407,0,0.636-0.149,0.692-0.452c0.06-0.307,0.09-0.67,0.09-1.096c0-0.64-0.095-1.258-0.286-1.847
		c-0.187-0.592-0.454-1.124-0.806-1.572c-0.344-0.463-0.768-0.828-1.258-1.101c-0.492-0.272-1.058-0.407-1.695-0.407
		c-0.784,0-1.456,0.139-2.022,0.43c-0.568,0.288-1.046,0.668-1.437,1.145c-0.389,0.468-0.685,1.027-0.893,1.661
		c-0.202,0.64-0.349,1.312-0.434,2.006c-0.059,0.367-0.08,0.666-0.065,0.895c0.017,0.229,0.076,0.339,0.195,0.339H216.171z"/>
	<path fill="#020202" d="M240.088,59.297c0,1.07,0.094,1.816,0.283,2.24c0.188,0.424,0.56,0.637,1.109,0.637
		c0.32,0,0.582-0.035,0.78-0.115c0.205-0.071,0.496-0.232,0.873-0.479c0.087-0.055,0.18-0.055,0.28,0
		c0.102,0.061,0.191,0.147,0.264,0.246c0.07,0.113,0.124,0.232,0.15,0.371c0.028,0.138,0,0.255-0.084,0.346
		c-1.135,1.427-2.468,2.139-4.003,2.139c-0.84,0-1.557-0.235-2.155-0.704c-0.592-0.474-1.033-1.027-1.324-1.669
		c-0.059-0.153-0.147-0.164-0.261-0.045c-0.757,0.707-1.632,1.273-2.631,1.736c-1.001,0.454-2.256,0.682-3.765,0.682
		c-1.651,0-2.93-0.462-3.824-1.391c-0.899-0.926-1.346-2.238-1.346-3.945c0-2.188,0.964-3.871,2.908-5.04
		c1.944-1.175,4.769-1.759,8.481-1.759c0.058,0,0.104-0.076,0.129-0.224c0.034-0.153,0.047-0.507,0.047-1.056v-1.23
		c0-0.754-0.057-1.477-0.176-2.146c-0.113-0.664-0.312-1.251-0.587-1.758c-0.276-0.496-0.656-0.895-1.152-1.183
		c-0.493-0.291-1.104-0.43-1.825-0.43c-1.071,0-1.943,0.218-2.607,0.659c-0.673,0.438-1.004,1.012-1.004,1.708
		c0,0.339,0.101,0.666,0.306,0.985c0.203,0.316,0.307,0.646,0.307,0.98c0,0.43-0.205,0.838-0.612,1.231
		c-0.406,0.394-0.896,0.589-1.479,0.589c-0.781,0-1.339-0.213-1.674-0.657c-0.334-0.44-0.494-0.979-0.494-1.621
		c0-0.757,0.199-1.481,0.603-2.163c0.408-0.687,0.958-1.274,1.658-1.759c0.691-0.484,1.503-0.878,2.432-1.167
		c0.927-0.282,1.898-0.432,2.917-0.432c2.319,0,4.146,0.567,5.479,1.693c1.333,1.121,1.998,2.992,1.998,5.605V59.297z
		 M236.001,54.788c0-0.339-0.013-0.545-0.047-0.622c-0.025-0.07-0.102-0.111-0.215-0.111c-2.377,0.217-4.142,0.737-5.283,1.572
		c-1.147,0.84-1.72,1.906-1.72,3.216c0,0.917,0.219,1.686,0.654,2.306c0.436,0.617,1.159,0.934,2.176,0.934
		c0.664,0,1.367-0.137,2.105-0.413c0.739-0.274,1.4-0.666,1.98-1.181c0.23-0.242,0.349-0.493,0.349-0.729V54.788z"/>
	<path fill="#020202" d="M259.312,43.563c-0.087,0.333-0.167,0.745-0.24,1.228c-0.072,0.488-0.106,1.001-0.106,1.548
		c0,0.581,0.014,1.183,0.04,1.805c0.032,0.621,0.048,1.104,0.048,1.44c0,0.09-0.062,0.162-0.177,0.225
		c-0.113,0.064-0.249,0.103-0.388,0.115c-0.147,0.016-0.279,0-0.394-0.043c-0.115-0.048-0.19-0.119-0.216-0.207
		c-0.323-1.609-0.84-2.851-1.57-3.719c-0.723-0.863-1.884-1.3-3.477-1.3c-1.071,0-1.955,0.278-2.65,0.844
		c-0.697,0.565-1.045,1.32-1.045,2.257c0,0.795,0.289,1.4,0.869,1.828c0.577,0.422,1.35,0.818,2.302,1.189
		c0.405,0.151,0.893,0.335,1.455,0.566c0.567,0.227,1.027,0.416,1.373,0.572c0.757,0.363,1.457,0.742,2.106,1.138
		c0.652,0.396,1.224,0.86,1.7,1.393c0.477,0.529,0.854,1.137,1.128,1.799c0.274,0.67,0.418,1.447,0.418,2.329
		c0,1.154-0.236,2.125-0.696,2.895c-0.466,0.779-1.06,1.398-1.786,1.875c-0.725,0.471-1.553,0.812-2.48,1.02
		c-0.925,0.218-1.839,0.32-2.735,0.32c-0.755,0-1.597-0.084-2.524-0.268c-0.927-0.182-1.737-0.442-2.436-0.779
		c-0.176-0.057-0.354-0.028-0.543,0.095c-0.189,0.117-0.312,0.347-0.373,0.685c0,0.09-0.061,0.153-0.193,0.184
		c-0.127,0.027-0.269,0.042-0.413,0.042c-0.114,0-0.232-0.022-0.346-0.07c-0.116-0.041-0.176-0.113-0.176-0.208
		c0-0.236,0.03-0.573,0.089-0.997c0.055-0.426,0.087-0.819,0.087-1.188c0-0.363-0.022-0.766-0.068-1.21
		c-0.043-0.439-0.089-0.876-0.132-1.298c-0.037-0.43-0.078-0.807-0.104-1.143c-0.029-0.334-0.046-0.579-0.046-0.73
		c0-0.119,0.059-0.214,0.175-0.27c0.117-0.065,0.245-0.1,0.391-0.115c0.146-0.015,0.28,0,0.417,0.044
		c0.127,0.046,0.208,0.127,0.234,0.253c0.204,0.881,0.464,1.654,0.787,2.326c0.312,0.666,0.717,1.229,1.195,1.689
		c0.474,0.453,1.056,0.798,1.736,1.023c0.682,0.229,1.502,0.342,2.459,0.342c1.044,0,1.892-0.299,2.543-0.912
		c0.652-0.606,0.978-1.46,0.978-2.552c0-0.979-0.325-1.744-0.978-2.303c-0.651-0.565-1.412-1.056-2.278-1.488
		c-0.409-0.186-0.825-0.365-1.245-0.542c-0.417-0.192-0.846-0.368-1.282-0.552c-0.636-0.272-1.268-0.553-1.892-0.844
		c-0.623-0.288-1.172-0.644-1.651-1.069c-0.479-0.428-0.86-0.965-1.152-1.595c-0.291-0.646-0.437-1.433-0.437-2.376
		c0-1.098,0.227-2.024,0.674-2.783c0.453-0.757,1.031-1.379,1.741-1.847c0.709-0.473,1.5-0.815,2.37-1.031
		c0.869-0.21,1.724-0.315,2.565-0.315c0.813,0,1.53,0.102,2.153,0.293c0.619,0.202,1.311,0.559,2.062,1.076
		c0.119,0.062,0.271,0.055,0.459-0.022c0.189-0.079,0.343-0.327,0.458-0.753c0.028-0.123,0.114-0.193,0.258-0.23
		c0.147-0.025,0.291-0.038,0.44-0.023c0.144,0.018,0.272,0.061,0.388,0.112C259.295,43.395,259.338,43.471,259.312,43.563"/>
	<path fill="#020202" d="M283.057,53.186c0,1.854-0.249,3.5-0.739,4.927c-0.49,1.431-1.194,2.634-2.109,3.608
		c-0.914,0.971-2.008,1.708-3.28,2.211c-1.279,0.5-2.698,0.748-4.262,0.748c-1.365,0-2.627-0.233-3.787-0.702
		c-1.16-0.474-2.164-1.173-2.999-2.101c-0.844-0.929-1.508-2.096-2.001-3.513c-0.496-1.417-0.744-3.075-0.744-5.001
		c0-1.547,0.248-2.965,0.744-4.258c0.493-1.295,1.18-2.396,2.065-3.313c0.886-0.908,1.947-1.625,3.194-2.14
		c1.25-0.519,2.61-0.775,4.092-0.775c1.419,0,2.73,0.229,3.934,0.687c1.203,0.452,2.241,1.112,3.109,1.982
		c0.871,0.868,1.554,1.938,2.044,3.215C282.808,50.041,283.057,51.512,283.057,53.186 M278.492,53.688
		c0-1.156-0.072-2.276-0.218-3.375c-0.146-1.098-0.407-2.068-0.781-2.922c-0.379-0.848-0.899-1.534-1.57-2.049
		c-0.666-0.519-1.518-0.777-2.565-0.777c-1.158,0-2.101,0.259-2.825,0.777c-0.725,0.515-1.298,1.205-1.716,2.077
		c-0.42,0.866-0.713,1.843-0.872,2.938c-0.159,1.092-0.242,2.24-0.242,3.424c0,1.033,0.077,2.104,0.22,3.194
		c0.147,1.095,0.418,2.079,0.83,2.961c0.403,0.88,0.961,1.615,1.673,2.194c0.709,0.573,1.619,0.866,2.717,0.866
		c1.133,0,2.041-0.272,2.741-0.817c0.694-0.547,1.239-1.266,1.633-2.152c0.39-0.878,0.65-1.873,0.779-2.98
		C278.428,55.933,278.492,54.814,278.492,53.688"/>
	<path fill="#020202" d="M292.973,58.703c0,0.768,0.016,1.405,0.047,1.922c0.027,0.517,0.104,0.942,0.238,1.277
		c0.129,0.336,0.347,0.586,0.649,0.771c0.307,0.184,0.732,0.327,1.284,0.412c0.173,0.03,0.303,0.113,0.391,0.254
		c0.087,0.14,0.136,0.293,0.136,0.477c0,0.153-0.049,0.301-0.136,0.436c-0.088,0.134-0.218,0.202-0.391,0.202
		c-0.291,0-0.83-0.049-1.627-0.155c-0.798-0.105-1.633-0.168-2.505-0.168c-0.927,0-1.827,0.062-2.699,0.168
		c-0.868,0.106-1.681,0.155-2.434,0.155c-0.146,0-0.259-0.068-0.348-0.202c-0.089-0.135-0.129-0.282-0.129-0.436
		c0-0.184,0.04-0.337,0.129-0.477c0.089-0.141,0.218-0.224,0.39-0.254c0.729-0.085,1.286-0.21,1.678-0.361
		c0.391-0.156,0.682-0.382,0.869-0.687c0.188-0.303,0.297-0.704,0.325-1.187c0.028-0.484,0.049-1.112,0.049-1.871v-5.749
		c0-1.489-0.021-2.727-0.049-3.716c-0.028-0.986-0.129-1.773-0.303-2.352c-0.178-0.579-0.452-0.98-0.829-1.209
		c-0.376-0.226-0.912-0.345-1.607-0.345c-0.175,0-0.314-0.061-0.411-0.178c-0.103-0.121-0.157-0.259-0.157-0.416
		c0-0.18,0.055-0.331,0.157-0.448c0.097-0.125,0.236-0.182,0.411-0.182c0.547,0,1.354-0.099,2.414-0.278
		c1.057-0.184,2.134-0.442,3.24-0.779c0.401-0.114,0.708-0.034,0.91,0.255c0.201,0.286,0.307,0.615,0.307,0.984v1.818
		c0,0.062,0.022,0.102,0.068,0.115c0.037,0.019,0.079-0.002,0.107-0.07c0.201-0.331,0.486-0.702,0.848-1.116
		c0.365-0.411,0.799-0.797,1.308-1.163c0.507-0.363,1.076-0.67,1.714-0.912c0.636-0.242,1.351-0.363,2.131-0.363
		c2.177,0,3.876,0.628,5.113,1.892c1.231,1.262,1.845,3.306,1.845,6.138v7.797c0,0.822,0.024,1.496,0.064,2.011
		c0.049,0.517,0.146,0.935,0.307,1.256c0.162,0.316,0.408,0.565,0.739,0.729c0.333,0.165,0.807,0.303,1.417,0.388
		c0.171,0.03,0.299,0.113,0.39,0.254c0.082,0.14,0.131,0.293,0.131,0.477c0,0.153-0.049,0.301-0.131,0.436
		c-0.091,0.134-0.219,0.202-0.39,0.202c-0.378,0-0.993-0.049-1.853-0.155c-0.853-0.105-1.721-0.168-2.586-0.168
		c-0.929,0-1.816,0.062-2.656,0.168c-0.84,0.106-1.534,0.155-2.087,0.155c-0.147,0-0.261-0.068-0.348-0.202
		c-0.085-0.135-0.129-0.282-0.129-0.436c0-0.184,0.044-0.337,0.129-0.477c0.087-0.141,0.216-0.224,0.392-0.254
		c0.64-0.085,1.129-0.229,1.455-0.412c0.336-0.186,0.584-0.43,0.739-0.751c0.163-0.316,0.256-0.71,0.284-1.185
		c0.03-0.471,0.045-1.054,0.045-1.758v-6.932c0-0.757-0.028-1.523-0.087-2.287c-0.059-0.752-0.214-1.443-0.479-2.053
		c-0.259-0.605-0.636-1.104-1.132-1.502c-0.493-0.395-1.174-0.597-2.043-0.597c-0.87,0-1.633,0.149-2.285,0.436
		c-0.647,0.291-1.199,0.683-1.648,1.165c-0.455,0.482-0.794,1.058-1.023,1.709c-0.232,0.65-0.35,1.343-0.35,2.075V58.703z"/>
	<rect x="40.639" y="35.657" fill="#020202" width="6.95" height="22.97"/>
	<rect x="40.958" y="37.85" fill="#949193" width="6.313" height="20.777"/>
	<rect x="41.239" y="37.369" fill="#020202" width="5.771" height="0.48"/>
	<path fill="#6D6B6D" d="M44.937,58.627h0.958v-9.028c0-5.605-0.793-10.146-1.782-10.146c-0.986,0-1.785,4.541-1.785,10.146v9.028
		h0.967H44.937z"/>
	<polygon fill="#020202" points="45.314,42.082 42.911,42.082 43.009,41.636 45.223,41.636 	"/>
	<polygon fill="#020202" points="45.776,45.907 42.448,45.907 42.482,45.457 45.744,45.457 	"/>
	<rect x="42.327" y="49.429" fill="#020202" width="3.572" height="0.448"/>
	<rect x="41.454" y="38.548" fill="#020202" width="0.873" height="0.22"/>
	<rect x="42.627" y="38.881" fill="#020202" width="0.877" height="0.227"/>
	<rect x="41.394" y="48.236" fill="#020202" width="0.554" height="0.224"/>
	<rect x="41.239" y="41.041" fill="#020202" width="0.649" height="0.226"/>
	<rect x="46.138" y="41.969" fill="#020202" width="0.646" height="0.232"/>
	<rect x="41.353" y="55.462" fill="#020202" width="0.654" height="0.222"/>
	<rect x="46.03" y="43.513" fill="#020202" width="0.651" height="0.225"/>
	<rect x="45.562" y="39.942" fill="#6D6B6D" width="0.43" height="0.224"/>
	<rect x="41.135" y="46.195" fill="#020202" width="0.43" height="0.227"/>
	<rect x="42.916" y="48.012" fill="#6D6B6D" width="0.433" height="0.225"/>
	<rect x="43.53" y="47.508" fill="#6D6B6D" width="0.432" height="0.218"/>
	<rect x="45.099" y="47.139" fill="#6D6B6D" width="0.431" height="0.228"/>
	<rect x="46.348" y="48.611" fill="#020202" width="0.431" height="0.225"/>
	<rect x="46.133" y="55.781" fill="#6D6B6D" width="0.428" height="0.22"/>
	<rect x="46.574" y="54.047" fill="#6D6B6D" width="0.431" height="0.229"/>
	<rect x="41.239" y="52.618" fill="#6D6B6D" width="0.43" height="0.222"/>
	<rect x="46.246" y="38.548" fill="#6D6B6D" width="0.43" height="0.22"/>
	<rect x="46.138" y="44.53" fill="#6D6B6D" width="0.646" height="0.23"/>
	<rect x="46.138" y="45.97" fill="#020202" width="0.423" height="0.226"/>
	<rect x="41.677" y="46.195" fill="#6D6B6D" width="0.428" height="0.227"/>
	<rect x="41.454" y="53.189" fill="#6D6B6D" width="0.428" height="0.229"/>
	<rect x="46.574" y="48.236" fill="#6D6B6D" width="0.425" height="0.224"/>
	<rect x="41.677" y="43.628" fill="#6D6B6D" width="0.428" height="0.22"/>
	<rect x="42.627" y="55.781" fill="#020202" width="0.898" height="0.22"/>
	<rect x="43.257" y="55.462" fill="#020202" width="1.2" height="0.222"/>
	<rect x="44.247" y="52.507" fill="#020202" width="1.201" height="0.222"/>
	<rect x="42.905" y="51.772" fill="#020202" width="0.62" height="0.22"/>
	<rect x="44.532" y="48.496" fill="#020202" width="0.628" height="0.229"/>
	<rect x="43.219" y="44.419" fill="#020202" width="0.621" height="0.229"/>
	<rect x="43.53" y="40.926" fill="#020202" width="0.624" height="0.222"/>
	<rect x="44.226" y="44.647" fill="#020202" width="0.619" height="0.22"/>
	<rect x="32.045" y="56.938" fill="#43474E" width="7.543" height="1.674"/>
	<rect x="32.045" y="28.324" fill="#949193" width="7.543" height="28.367"/>
	<rect x="32.744" y="27.798" fill="#949193" width="6.021" height="0.526"/>
	<rect x="32.266" y="27.531" fill="#E1DFE1" width="6.941" height="0.267"/>
	<rect x="32.045" y="28.561" fill="#B1B3B7" width="7.543" height="0.117"/>
	<rect x="32.045" y="28.324" fill="#020202" width="7.543" height="0.236"/>
	<rect x="32.045" y="29.142" fill="#B1B3B7" width="7.543" height="0.115"/>
	<rect x="32.045" y="28.906" fill="#020202" width="7.543" height="0.229"/>
	<rect x="32.045" y="29.717" fill="#B1B3B7" width="7.543" height="0.117"/>
	<rect x="32.045" y="29.48" fill="#020202" width="7.543" height="0.236"/>
	<rect x="32.045" y="30.295" fill="#B1B3B7" width="7.543" height="0.114"/>
	<rect x="32.045" y="30.057" fill="#020202" width="7.543" height="0.238"/>
	<rect x="32.045" y="30.874" fill="#B1B3B7" width="7.543" height="0.114"/>
	<rect x="32.045" y="30.634" fill="#020202" width="7.543" height="0.235"/>
	<rect x="32.045" y="31.449" fill="#B1B3B7" width="7.543" height="0.117"/>
	<rect x="32.045" y="31.215" fill="#020202" width="7.543" height="0.234"/>
	<rect x="32.045" y="32.026" fill="#B1B3B7" width="7.543" height="0.117"/>
	<rect x="32.045" y="31.79" fill="#020202" width="7.543" height="0.236"/>
	<rect x="32.045" y="32.605" fill="#B1B3B7" width="7.543" height="0.117"/>
	<rect x="32.045" y="32.369" fill="#020202" width="7.543" height="0.234"/>
	<rect x="32.045" y="33.183" fill="#B1B3B7" width="7.543" height="0.115"/>
	<rect x="32.045" y="32.946" fill="#020202" width="7.543" height="0.236"/>
	<rect x="32.045" y="33.762" fill="#B1B3B7" width="7.543" height="0.113"/>
	<rect x="32.045" y="33.521" fill="#020202" width="7.543" height="0.24"/>
	<rect x="32.045" y="34.342" fill="#B1B3B7" width="7.543" height="0.112"/>
	<rect x="32.045" y="34.104" fill="#020202" width="7.543" height="0.231"/>
	<rect x="32.045" y="34.914" fill="#B1B3B7" width="7.543" height="0.119"/>
	<rect x="32.045" y="34.677" fill="#020202" width="7.543" height="0.237"/>
	<rect x="32.045" y="35.494" fill="#B1B3B7" width="7.543" height="0.117"/>
	<rect x="32.045" y="35.26" fill="#020202" width="7.543" height="0.234"/>
	<rect x="32.045" y="36.075" fill="#B1B3B7" width="7.543" height="0.113"/>
	<rect x="32.045" y="35.835" fill="#020202" width="7.543" height="0.234"/>
	<rect x="32.045" y="36.648" fill="#B1B3B7" width="7.543" height="0.117"/>
	<rect x="32.045" y="36.412" fill="#020202" width="7.543" height="0.236"/>
	<rect x="32.045" y="37.229" fill="#B1B3B7" width="7.543" height="0.111"/>
	<rect x="32.045" y="36.991" fill="#020202" width="7.543" height="0.238"/>
	<rect x="32.045" y="37.807" fill="#B1B3B7" width="7.543" height="0.113"/>
	<rect x="32.045" y="37.566" fill="#020202" width="7.543" height="0.238"/>
	<rect x="32.045" y="38.383" fill="#B1B3B7" width="7.543" height="0.116"/>
	<rect x="32.045" y="38.145" fill="#020202" width="7.543" height="0.238"/>
	<rect x="32.045" y="38.966" fill="#B1B3B7" width="7.543" height="0.112"/>
	<rect x="32.045" y="38.724" fill="#020202" width="7.543" height="0.242"/>
	<rect x="32.045" y="39.541" fill="#B1B3B7" width="7.543" height="0.113"/>
	<rect x="32.045" y="39.301" fill="#020202" width="7.543" height="0.238"/>
	<rect x="32.045" y="40.116" fill="#B1B3B7" width="7.543" height="0.117"/>
	<rect x="32.045" y="39.876" fill="#020202" width="7.543" height="0.24"/>
	<rect x="32.045" y="40.697" fill="#B1B3B7" width="7.543" height="0.109"/>
	<rect x="32.045" y="40.455" fill="#020202" width="7.543" height="0.242"/>
	<rect x="32.045" y="41.272" fill="#B1B3B7" width="7.543" height="0.109"/>
	<rect x="32.045" y="41.034" fill="#020202" width="7.543" height="0.234"/>
	<rect x="32.045" y="41.852" fill="#B1B3B7" width="7.543" height="0.113"/>
	<rect x="32.045" y="41.615" fill="#020202" width="7.543" height="0.236"/>
	<rect x="32.045" y="42.432" fill="#B1B3B7" width="7.543" height="0.108"/>
	<rect x="32.045" y="42.191" fill="#020202" width="7.543" height="0.24"/>
	<rect x="32.045" y="43.006" fill="#B1B3B7" width="7.543" height="0.115"/>
	<rect x="32.045" y="42.771" fill="#020202" width="7.543" height="0.233"/>
	<rect x="32.045" y="43.584" fill="#B1B3B7" width="7.543" height="0.115"/>
	<rect x="32.045" y="43.34" fill="#020202" width="7.543" height="0.244"/>
	<rect x="32.045" y="44.161" fill="#B1B3B7" width="7.543" height="0.112"/>
	<rect x="32.045" y="43.923" fill="#020202" width="7.543" height="0.238"/>
	<rect x="32.045" y="44.738" fill="#B1B3B7" width="7.543" height="0.115"/>
	<rect x="32.045" y="44.502" fill="#020202" width="7.543" height="0.236"/>
	<rect x="32.045" y="45.315" fill="#B1B3B7" width="7.543" height="0.117"/>
	<rect x="32.045" y="45.077" fill="#020202" width="7.543" height="0.238"/>
	<rect x="32.045" y="45.896" fill="#B1B3B7" width="7.543" height="0.113"/>
	<rect x="32.045" y="45.654" fill="#020202" width="7.543" height="0.242"/>
	<rect x="32.045" y="46.468" fill="#B1B3B7" width="7.543" height="0.113"/>
	<rect x="32.045" y="46.232" fill="#020202" width="7.543" height="0.233"/>
	<rect x="32.045" y="47.045" fill="#B1B3B7" width="7.543" height="0.113"/>
	<rect x="32.045" y="46.803" fill="#020202" width="7.543" height="0.242"/>
	<rect x="32.045" y="47.625" fill="#B1B3B7" width="7.543" height="0.112"/>
	<rect x="32.045" y="47.385" fill="#020202" width="7.543" height="0.24"/>
	<rect x="32.045" y="48.204" fill="#B1B3B7" width="7.543" height="0.112"/>
	<rect x="32.045" y="47.962" fill="#020202" width="7.543" height="0.237"/>
	<rect x="32.045" y="48.779" fill="#B1B3B7" width="7.543" height="0.117"/>
	<rect x="32.045" y="48.539" fill="#020202" width="7.543" height="0.24"/>
	<rect x="32.045" y="49.358" fill="#B1B3B7" width="7.543" height="0.115"/>
	<rect x="32.045" y="49.118" fill="#020202" width="7.543" height="0.24"/>
	<rect x="32.045" y="49.932" fill="#B1B3B7" width="7.543" height="0.119"/>
	<rect x="32.045" y="49.691" fill="#020202" width="7.543" height="0.24"/>
	<rect x="32.045" y="50.511" fill="#B1B3B7" width="7.543" height="0.115"/>
	<rect x="32.045" y="50.269" fill="#020202" width="7.543" height="0.242"/>
	<rect x="32.045" y="51.09" fill="#B1B3B7" width="7.543" height="0.115"/>
	<rect x="32.045" y="50.85" fill="#020202" width="7.543" height="0.24"/>
	<rect x="32.045" y="51.665" fill="#B1B3B7" width="7.543" height="0.117"/>
	<rect x="32.045" y="51.428" fill="#020202" width="7.543" height="0.237"/>
	<rect x="32.045" y="52.244" fill="#B1B3B7" width="7.543" height="0.115"/>
	<rect x="32.045" y="52.007" fill="#020202" width="7.543" height="0.237"/>
	<rect x="32.045" y="52.824" fill="#B1B3B7" width="7.543" height="0.113"/>
	<rect x="32.045" y="52.586" fill="#020202" width="7.543" height="0.238"/>
	<rect x="32.045" y="53.397" fill="#B1B3B7" width="7.543" height="0.119"/>
	<rect x="32.045" y="53.163" fill="#020202" width="7.543" height="0.234"/>
	<rect x="32.045" y="53.975" fill="#B1B3B7" width="7.543" height="0.121"/>
	<rect x="32.045" y="53.736" fill="#020202" width="7.543" height="0.238"/>
	<rect x="32.045" y="54.552" fill="#B1B3B7" width="7.543" height="0.121"/>
	<rect x="32.045" y="54.315" fill="#020202" width="7.543" height="0.236"/>
	<rect x="32.045" y="55.131" fill="#B1B3B7" width="7.543" height="0.119"/>
	<rect x="32.045" y="54.893" fill="#020202" width="7.543" height="0.238"/>
	<rect x="32.045" y="55.715" fill="#B1B3B7" width="7.543" height="0.112"/>
	<rect x="32.045" y="55.475" fill="#020202" width="7.543" height="0.24"/>
	<rect x="32.045" y="56.289" fill="#B1B3B7" width="7.543" height="0.113"/>
	<rect x="32.045" y="56.049" fill="#020202" width="7.543" height="0.24"/>
	<rect x="32.045" y="56.523" fill="#B1B3B7" width="7.543" height="0.414"/>
	<rect x="32.354" y="56.938" fill="#CAC9CC" width="0.222" height="1.674"/>
	<rect x="33.003" y="56.938" fill="#CAC9CC" width="0.22" height="1.674"/>
	<rect x="37.73" y="56.938" fill="#CAC9CC" width="0.221" height="1.674"/>
	<rect x="38.377" y="56.938" fill="#CAC9CC" width="0.225" height="1.674"/>
	<rect x="39.026" y="56.938" fill="#CAC9CC" width="0.221" height="1.674"/>
	<rect x="28.446" y="56.938" fill="#6D6B6D" width="5.221" height="1.674"/>
	<rect x="28.446" y="43.34" fill="#020202" width="5.221" height="13.352"/>
	<rect x="28.446" y="42.829" fill="#949193" width="4.706" height="0.519"/>
	<rect x="28.446" y="42.553" fill="#E1DFE1" width="5.011" height="0.276"/>
	<rect x="28.446" y="43.34" fill="#E1DFE1" width="5.278" height="0.424"/>
	<rect x="28.446" y="44.161" fill="#CFCDD0" width="5.221" height="0.112"/>
	<rect x="28.446" y="43.923" fill="#6D6B6D" width="5.221" height="0.238"/>
	<rect x="28.446" y="44.738" fill="#CFCDD0" width="5.221" height="0.115"/>
	<rect x="28.446" y="44.502" fill="#6D6B6D" width="5.221" height="0.236"/>
	<rect x="28.446" y="45.315" fill="#CFCDD0" width="5.221" height="0.117"/>
	<rect x="28.446" y="45.077" fill="#6D6B6D" width="5.221" height="0.238"/>
	<rect x="28.446" y="45.896" fill="#CFCDD0" width="5.221" height="0.113"/>
	<rect x="28.446" y="45.654" fill="#6D6B6D" width="5.221" height="0.242"/>
	<rect x="28.446" y="46.468" fill="#CFCDD0" width="5.221" height="0.113"/>
	<rect x="28.446" y="46.232" fill="#6D6B6D" width="5.221" height="0.233"/>
	<rect x="28.446" y="47.045" fill="#CFCDD0" width="5.221" height="0.113"/>
	<rect x="28.446" y="46.803" fill="#6D6B6D" width="5.221" height="0.242"/>
	<rect x="28.446" y="47.625" fill="#CFCDD0" width="5.221" height="0.112"/>
	<rect x="28.446" y="47.385" fill="#6D6B6D" width="5.221" height="0.24"/>
	<rect x="28.446" y="48.204" fill="#CFCDD0" width="5.221" height="0.112"/>
	<rect x="28.446" y="47.962" fill="#6D6B6D" width="5.221" height="0.237"/>
	<rect x="28.446" y="48.779" fill="#CFCDD0" width="5.221" height="0.117"/>
	<rect x="28.446" y="48.539" fill="#6D6B6D" width="5.221" height="0.24"/>
	<rect x="28.446" y="49.358" fill="#CFCDD0" width="5.221" height="0.115"/>
	<rect x="28.446" y="49.118" fill="#6D6B6D" width="5.221" height="0.24"/>
	<rect x="28.446" y="49.932" fill="#CFCDD0" width="5.221" height="0.119"/>
	<rect x="28.446" y="49.691" fill="#6D6B6D" width="5.221" height="0.24"/>
	<rect x="28.446" y="50.511" fill="#CFCDD0" width="5.221" height="0.115"/>
	<rect x="28.446" y="50.269" fill="#6D6B6D" width="5.221" height="0.242"/>
	<rect x="28.446" y="51.09" fill="#CFCDD0" width="5.221" height="0.115"/>
	<rect x="28.446" y="50.85" fill="#6D6B6D" width="5.221" height="0.24"/>
	<rect x="28.446" y="51.665" fill="#CFCDD0" width="5.221" height="0.117"/>
	<rect x="28.446" y="51.428" fill="#6D6B6D" width="5.221" height="0.237"/>
	<rect x="28.446" y="52.244" fill="#CFCDD0" width="5.221" height="0.115"/>
	<rect x="28.446" y="52.007" fill="#6D6B6D" width="5.221" height="0.237"/>
	<rect x="28.446" y="52.824" fill="#CFCDD0" width="5.221" height="0.113"/>
	<rect x="28.446" y="52.586" fill="#6D6B6D" width="5.221" height="0.238"/>
	<rect x="28.446" y="53.397" fill="#CFCDD0" width="5.221" height="0.119"/>
	<rect x="28.446" y="53.163" fill="#6D6B6D" width="5.221" height="0.234"/>
	<rect x="28.446" y="53.975" fill="#CFCDD0" width="5.221" height="0.121"/>
	<rect x="28.446" y="53.736" fill="#6D6B6D" width="5.221" height="0.238"/>
	<rect x="28.446" y="54.552" fill="#CFCDD0" width="5.221" height="0.121"/>
	<rect x="28.446" y="54.315" fill="#6D6B6D" width="5.221" height="0.236"/>
	<rect x="28.446" y="55.131" fill="#CFCDD0" width="5.221" height="0.119"/>
	<rect x="28.446" y="54.893" fill="#6D6B6D" width="5.221" height="0.238"/>
	<rect x="28.446" y="55.715" fill="#CFCDD0" width="5.221" height="0.112"/>
	<rect x="28.446" y="55.475" fill="#6D6B6D" width="5.221" height="0.24"/>
	<rect x="28.446" y="56.289" fill="#CFCDD0" width="5.221" height="0.113"/>
	<rect x="28.446" y="56.049" fill="#6D6B6D" width="5.221" height="0.24"/>
	<rect x="28.446" y="56.523" fill="#E1DFE1" width="5.221" height="0.414"/>
	<rect x="28.727" y="56.938" fill="#CAC9CC" width="0.15" height="1.674"/>
	<rect x="29.171" y="56.938" fill="#CAC9CC" width="0.152" height="1.674"/>
	<rect x="29.617" y="56.938" fill="#CAC9CC" width="0.154" height="1.674"/>
	<rect x="30.09" y="56.938" fill="#CAC9CC" width="0.15" height="1.674"/>
	<rect x="30.539" y="56.938" fill="#CAC9CC" width="0.15" height="1.674"/>
	<rect x="30.979" y="56.938" fill="#CAC9CC" width="0.154" height="1.674"/>
	<rect x="31.433" y="56.938" fill="#CAC9CC" width="0.153" height="1.674"/>
	<rect x="31.882" y="56.938" fill="#CAC9CC" width="0.15" height="1.674"/>
	<rect x="32.342" y="56.938" fill="#CAC9CC" width="0.154" height="1.674"/>
	<rect x="32.79" y="56.938" fill="#CAC9CC" width="0.152" height="1.674"/>
	<rect x="33.239" y="56.938" fill="#CAC9CC" width="0.15" height="1.674"/>
	<rect x="34.015" y="56.938" fill="#9D9FA6" width="0.151" height="1.674"/>
	<rect x="34.421" y="56.938" fill="#9D9FA6" width="0.154" height="1.674"/>
	<rect x="34.83" y="56.938" fill="#9D9FA6" width="0.154" height="1.674"/>
	<rect x="35.236" y="56.938" fill="#9D9FA6" width="0.157" height="1.674"/>
	<rect x="35.646" y="56.938" fill="#9D9FA6" width="0.151" height="1.674"/>
	<rect x="36.056" y="56.938" fill="#9D9FA6" width="0.153" height="1.674"/>
	<rect x="36.465" y="56.938" fill="#9D9FA6" width="0.151" height="1.674"/>
	<rect x="36.955" y="56.938" fill="#6D6B6D" width="5.221" height="1.674"/>
	<rect x="36.955" y="49.474" fill="#020202" width="5.221" height="7.464"/>
	<rect x="38.582" y="48.793" fill="#949193" width="3.619" height="0.255"/>
	<rect x="38.438" y="48.522" fill="#E1DFE1" width="3.763" height="0.271"/>
	<rect x="38.438" y="49.048" fill="#E1DFE1" width="3.763" height="0.426"/>
	<rect x="38.438" y="49.932" fill="#CFCDD0" width="3.737" height="0.119"/>
	<rect x="38.438" y="49.691" fill="#6D6B6D" width="3.737" height="0.24"/>
	<rect x="38.438" y="50.511" fill="#CFCDD0" width="3.737" height="0.115"/>
	<rect x="38.438" y="50.269" fill="#6D6B6D" width="3.737" height="0.242"/>
	<rect x="38.522" y="51.09" fill="#CFCDD0" width="3.653" height="0.115"/>
	<rect x="38.522" y="50.85" fill="#6D6B6D" width="3.653" height="0.24"/>
	<rect x="38.522" y="51.665" fill="#CFCDD0" width="3.653" height="0.117"/>
	<rect x="38.522" y="51.428" fill="#6D6B6D" width="3.653" height="0.237"/>
	<rect x="38.522" y="52.244" fill="#CFCDD0" width="3.653" height="0.115"/>
	<rect x="38.522" y="52.007" fill="#6D6B6D" width="3.653" height="0.237"/>
	<rect x="38.522" y="52.824" fill="#CFCDD0" width="3.653" height="0.113"/>
	<rect x="38.522" y="52.586" fill="#6D6B6D" width="3.653" height="0.238"/>
	<rect x="38.522" y="53.397" fill="#CFCDD0" width="3.653" height="0.119"/>
	<rect x="38.522" y="53.163" fill="#6D6B6D" width="3.653" height="0.234"/>
	<rect x="38.522" y="53.975" fill="#CFCDD0" width="3.653" height="0.121"/>
	<rect x="38.522" y="53.736" fill="#6D6B6D" width="3.653" height="0.238"/>
	<rect x="38.522" y="54.552" fill="#CFCDD0" width="3.653" height="0.121"/>
	<rect x="38.522" y="54.315" fill="#6D6B6D" width="3.653" height="0.236"/>
	<rect x="38.522" y="55.131" fill="#CFCDD0" width="3.653" height="0.119"/>
	<rect x="38.522" y="54.893" fill="#6D6B6D" width="3.653" height="0.238"/>
	<rect x="38.522" y="55.715" fill="#CFCDD0" width="3.653" height="0.112"/>
	<rect x="38.522" y="55.475" fill="#6D6B6D" width="3.653" height="0.24"/>
	<rect x="38.522" y="56.289" fill="#CFCDD0" width="3.653" height="0.113"/>
	<rect x="38.522" y="56.049" fill="#6D6B6D" width="3.653" height="0.24"/>
	<rect x="38.438" y="56.51" fill="#E1DFE1" width="3.737" height="0.428"/>
	<rect x="37.235" y="56.938" fill="#CAC9CC" width="0.147" height="1.674"/>
	<rect x="37.68" y="56.938" fill="#CAC9CC" width="0.152" height="1.674"/>
	<rect x="38.126" y="56.938" fill="#CAC9CC" width="0.154" height="1.674"/>
	<rect x="38.598" y="56.938" fill="#CAC9CC" width="0.152" height="1.674"/>
	<rect x="39.044" y="56.938" fill="#CAC9CC" width="0.157" height="1.674"/>
	<rect x="39.514" y="56.938" fill="#CAC9CC" width="0.153" height="1.674"/>
	<rect x="39.939" y="56.938" fill="#CAC9CC" width="0.155" height="1.674"/>
	<rect x="40.392" y="56.938" fill="#CAC9CC" width="0.151" height="1.674"/>
	<rect x="40.851" y="56.938" fill="#CAC9CC" width="0.154" height="1.674"/>
	<rect x="41.299" y="56.938" fill="#CAC9CC" width="0.153" height="1.674"/>
	<rect x="41.748" y="56.938" fill="#CAC9CC" width="0.154" height="1.674"/>
	<rect x="38.438" y="49.455" fill="#E1DFE1" width="0.458" height="7.236"/>
	<rect x="32.648" y="29.834" fill="#020202" width="0.809" height="0.219"/>
	<rect x="36.486" y="30.409" fill="#020202" width="0.811" height="0.225"/>
	<rect x="34.16" y="30.988" fill="#020202" width="0.501" height="0.227"/>
	<rect x="35.818" y="32.144" fill="#020202" width="0.502" height="0.226"/>
	<rect x="37.424" y="33.875" fill="#020202" width="0.506" height="0.229"/>
	<rect x="33.611" y="33.298" fill="#020202" width="0.298" height="0.218"/>
	<rect x="33.667" y="35.033" fill="#020202" width="0.499" height="0.227"/>
	<rect x="35.081" y="36.188" fill="#020202" width="0.237" height="0.224"/>
	<rect x="33.864" y="41.382" fill="#020202" width="0.23" height="0.233"/>
	<rect x="36.104" y="36.766" fill="#020202" width="0.449" height="0.226"/>
	<rect x="33.152" y="37.92" fill="#020202" width="0.766" height="0.225"/>
	<rect x="35.199" y="37.92" fill="#020202" width="0.765" height="0.225"/>
	<rect x="33.98" y="39.078" fill="#020202" width="0.765" height="0.223"/>
	<rect x="37.047" y="43.121" fill="#020202" width="0.489" height="0.219"/>
	<rect x="35.199" y="44.273" fill="#020202" width="0.488" height="0.229"/>
	<rect x="36.191" y="46.01" fill="#020202" width="0.483" height="0.225"/>
	<rect x="37.509" y="46.581" fill="#020202" width="0.664" height="0.222"/>
	<rect x="34.93" y="47.158" fill="#020202" width="0.658" height="0.225"/>
	<rect x="36.212" y="48.316" fill="#020202" width="0.533" height="0.223"/>
	<rect x="34.567" y="49.474" fill="#020202" width="0.53" height="0.222"/>
	<rect x="39.399" y="50.051" fill="#020202" width="0.535" height="0.218"/>
	<rect x="40.543" y="50.626" fill="#020202" width="0.533" height="0.222"/>
	<rect x="28.979" y="44.854" fill="#020202" width="0.792" height="0.224"/>
	<rect x="31.726" y="45.433" fill="#020202" width="0.789" height="0.222"/>
	<rect x="30.404" y="46.004" fill="#020202" width="0.395" height="0.229"/>
	<rect x="29.798" y="47.158" fill="#020202" width="0.531" height="0.225"/>
	<rect x="31.726" y="50.051" fill="#020202" width="0.527" height="0.218"/>
	<rect x="30.347" y="49.474" fill="#020202" width="0.531" height="0.222"/>
	<rect x="29.825" y="51.782" fill="#020202" width="0.527" height="0.225"/>
	<rect x="29.152" y="53.517" fill="#020202" width="0.774" height="0.226"/>
	<rect x="31.045" y="54.673" fill="#020202" width="0.772" height="0.22"/>
	<rect x="29.959" y="55.827" fill="#020202" width="0.517" height="0.222"/>
	<rect x="32.464" y="48.896" fill="#020202" width="0.326" height="0.22"/>
	<rect x="31.882" y="52.938" fill="#020202" width="0.323" height="0.226"/>
	<rect x="39.751" y="51.205" fill="#020202" width="0.344" height="0.223"/>
	<rect x="41.484" y="51.782" fill="#020202" width="0.346" height="0.225"/>
	<rect x="39.396" y="53.517" fill="#020202" width="0.341" height="0.226"/>
	<rect x="41.178" y="54.096" fill="#020202" width="0.339" height="0.218"/>
	<rect x="39.895" y="55.25" fill="#020202" width="0.457" height="0.225"/>
	<rect x="35.714" y="51.782" fill="#020202" width="0.536" height="0.225"/>
	<rect x="33.877" y="52.359" fill="#020202" width="0.531" height="0.223"/>
	<rect x="35.404" y="52.359" fill="#020202" width="0.31" height="0.223"/>
	<rect x="37.297" y="38.499" fill="#020202" width="0.766" height="0.225"/>
	<g>
		<defs>
			<path id="SVGID_1_" d="M60.705,41.854c-0.457,0.096-1.297,0.152-1.297,0.152c0.63,2.443,0.102,18.379,0.102,18.379h5.081
				c-0.846-5.09,0-18.565,0-18.565s-0.616-0.133-0.808-0.218c-0.236-0.109-0.869-0.609-0.869-0.609S61.261,41.743,60.705,41.854"/>
		</defs>
		<use xlink:href="#SVGID_1_"  overflow="visible" fill="#6D6B6D"/>
		<clipPath id="SVGID_2_">
			<use xlink:href="#SVGID_1_"  overflow="visible"/>
		</clipPath>
	</g>
	<g>
		<defs>
			<path id="SVGID_3_" d="M54.453,4.936c0,0.512,0.083,1.009,0.23,1.475c-2.294,1.924-3.753,4.764-3.753,7.929
				c0,0.656,0.07,1.296,0.188,1.919c-0.671,1.03-1.066,2.247-1.066,3.555v0.033c-1.114,1.913-1.761,4.115-1.761,6.458
				c0,3.284,1.254,6.292,3.319,8.595c0.622,3.338,3.651,5.904,7.24,5.904c1.472,0,2.834-0.426,3.981-1.148
				c0.871,0.393,1.83,0.621,2.845,0.621c3.602,0,6.537-2.734,6.798-6.158c1.674-2.188,2.669-4.887,2.669-7.813
				c0-3.243-1.229-6.221-3.254-8.509c0.388-1.088,0.61-2.247,0.61-3.456c0-2.733-1.09-5.203-2.848-7.072
				c-0.148-3.522-3.133-6.378-6.807-6.378c-0.141,0-0.272,0.006-0.407,0.014C61.613,0.337,60.604,0,59.515,0
				C56.736,0.004,54.453,2.23,54.453,4.936"/>
		</defs>
		<use xlink:href="#SVGID_3_"  overflow="visible" fill="#6D6B6D"/>
		<clipPath id="SVGID_4_">
			<use xlink:href="#SVGID_3_"  overflow="visible"/>
		</clipPath>
	</g>
	<g>
		<defs>
			<path id="SVGID_5_" d="M41.717,56.029l-1.084,0.5c0,0-1.636-2.141-5.258-0.655c-2.643,1.4-4.067,2.121-4.067,2.121
				s-0.955,0.333-2.35-0.558c-1.4-0.884-3.939-0.385-4.566,0.943c-0.637,1.334-0.582,1.832-0.582,1.832l-0.291,1.048l-1.061,0.28
				c0,0-0.367,0.136-0.735,0.388c-0.375,0.253-1.322,0.531-0.875,1.274c0.161,0.363,3.17,0.22,3.17,0.22h42.73
				c0,0,2.728-0.22,2.596-3.241c0-1.91-2.191-2.52-2.191-2.52s-2.246-6.264-8.48-4.848c-1.531-1.94-3.536-4.461-8.216-4.494
				c-0.011,0-0.021,0-0.037,0C45.766,48.32,42.058,53.214,41.717,56.029"/>
		</defs>
		<use xlink:href="#SVGID_5_"  overflow="visible" fill="#949193"/>
		<clipPath id="SVGID_6_">
			<use xlink:href="#SVGID_5_"  overflow="visible"/>
		</clipPath>
	</g>
	<g>
		<defs>
			<path id="SVGID_7_" d="M50.419,48.32c-4.658,0-8.361,4.894-8.702,7.709l-1.084,0.5c0,0-1.636-2.141-5.258-0.655
				c-2.643,1.4-4.067,2.121-4.067,2.121s-0.955,0.333-2.35-0.558c-1.4-0.884-3.939-0.385-4.566,0.943
				c-0.637,1.334-0.582,1.832-0.582,1.832l-0.291,1.048l-1.061,0.28c0,0-0.367,0.136-0.735,0.388
				c-0.375,0.253-1.322,0.531-0.875,1.274c0.161,0.363,3.17,0.22,3.17,0.22h42.73c0,0,2.728-0.22,2.596-3.241
				c0-1.91-2.191-2.52-2.191-2.52s-2.246-6.264-8.48-4.848c-1.531-1.94-3.536-4.461-8.216-4.494
				C50.445,48.32,50.436,48.32,50.419,48.32"/>
		</defs>
		<use xlink:href="#SVGID_7_"  overflow="visible" fill="#949193"/>
		<clipPath id="SVGID_8_">
			<use xlink:href="#SVGID_7_"  overflow="visible"/>
		</clipPath>
	</g>
	<g>
		<defs>
			<path id="SVGID_9_" d="M50.419,48.32c-4.658,0-8.361,4.894-8.702,7.709l-1.084,0.5c0,0-1.636-2.141-5.258-0.655
				c-2.643,1.4-4.067,2.121-4.067,2.121s-0.955,0.333-2.35-0.558c-1.4-0.884-3.939-0.385-4.566,0.943
				c-0.637,1.334-0.582,1.832-0.582,1.832l-0.291,1.048l-1.061,0.28c0,0-0.367,0.136-0.735,0.388
				c-0.375,0.253-1.322,0.531-0.875,1.274c0.161,0.363,3.17,0.22,3.17,0.22h42.73c0,0,2.728-0.22,2.596-3.241
				c0-1.91-2.191-2.52-2.191-2.52s-2.246-6.264-8.48-4.848c-1.531-1.94-3.536-4.461-8.216-4.494
				C50.445,48.32,50.436,48.32,50.419,48.32"/>
		</defs>
		<use xlink:href="#SVGID_9_"  overflow="visible" fill="#949193"/>
		<clipPath id="SVGID_10_">
			<use xlink:href="#SVGID_9_"  overflow="visible"/>
		</clipPath>
	</g>
	<path fill-rule="evenodd" clip-rule="evenodd" fill="#020202" d="M71.678,63.433c0,0,1.791-0.165,1.706-2.424
		c0-1.429-1.449-1.882-1.449-1.882s-1.481-4.672-5.591-3.614c-1.013-1.456-2.332-3.335-5.418-3.353
		c-3.082-0.026-5.536,3.639-5.762,5.75l-0.715,0.371c0,0-1.079-1.596-3.465-0.488c-1.744,1.048-2.686,1.585-2.686,1.585
		s-0.627,0.246-1.546-0.418c-0.925-0.658-2.599-0.286-3.018,0.708c-0.415,0.993-0.379,1.361-0.379,1.361l-0.191,0.787l-0.697,0.207
		c0,0-0.245,0.107-0.494,0.293c-0.236,0.186-0.866,0.392-0.57,0.951c0.104,0.266,2.096,0.165,2.096,0.165H71.678z"/>
	<g>
		<defs>
			<path id="SVGID_11_" d="M55.164,57.91l-0.715,0.371c0,0-1.079-1.596-3.465-0.488c-1.744,1.048-2.686,1.585-2.686,1.585
				s-0.627,0.246-1.546-0.418c-0.925-0.658-2.599-0.286-3.018,0.708c-0.42,0.989-0.379,1.361-0.379,1.361l-0.191,0.791l-0.697,0.203
				c0,0-0.245,0.107-0.494,0.293c-0.242,0.186-0.866,0.392-0.57,0.951c0.108,0.266,2.09,0.165,2.09,0.165h28.185
				c0,0,1.791-0.165,1.706-2.424c0-1.423-1.449-1.882-1.449-1.882s-1.481-4.676-5.591-3.614c-1.013-1.456-2.332-3.335-5.418-3.353
				c-0.006,0-0.016,0-0.021,0C57.833,52.16,55.388,55.801,55.164,57.91"/>
		</defs>
		<clipPath id="SVGID_12_">
			<use xlink:href="#SVGID_11_"  overflow="visible"/>
		</clipPath>
	</g>
	<g>
		<defs>
			<path id="SVGID_13_" d="M60.904,52.16c-3.068,0-5.515,3.641-5.74,5.75l-0.715,0.371c0,0-1.079-1.596-3.465-0.488
				c-1.744,1.048-2.686,1.585-2.686,1.585s-0.627,0.246-1.546-0.418c-0.925-0.658-2.599-0.286-3.018,0.708
				c-0.42,0.989-0.379,1.361-0.379,1.361l-0.191,0.791l-0.697,0.203c0,0-0.245,0.107-0.494,0.293
				c-0.242,0.186-0.866,0.392-0.57,0.951c0.108,0.266,2.09,0.165,2.09,0.165h28.185c0,0,1.791-0.165,1.706-2.424
				c0-1.423-1.449-1.882-1.449-1.882s-1.481-4.676-5.591-3.614c-1.013-1.456-2.332-3.335-5.418-3.353
				C60.92,52.16,60.91,52.16,60.904,52.16"/>
		</defs>
		<clipPath id="SVGID_14_">
			<use xlink:href="#SVGID_13_"  overflow="visible"/>
		</clipPath>
	</g>
	<path fill="#020202" d="M24.606,10.774c0,0,4.675-1.13,7.732,1.315c0,0,0.841,0.427,1.143-1.582c0,0,1.018-4.14,5.338-6.907
		c0,0,1.319-0.373-0.302,1.767c0,0-3.538,3.708-3.119,5.975c0,0,3.477-2.134,0.303,0.789c0,0-1.535,5.059-3.737,0.906
		C31.964,13.037,29.763,10.774,24.606,10.774"/>
	<path fill-rule="evenodd" clip-rule="evenodd" fill="#020202" d="M25.532,62.952c-0.363,0-1.104-0.373-1.652-0.68
		c-0.797-0.509-1.301-0.953-1.301-0.953c-0.076-0.327-0.15-0.647-0.225-0.958l-1.162-7.812l0.113-0.949
		c-0.437-2.91-0.938-6.999-1.196-9.163c0.339-0.091,0.538-0.172,0.538-0.172c0-1.438,0.104-3.557,0.104-3.557
		c0.233-0.95,0.165-4.515,0.165-4.515c0.851-0.335,0.997-0.884,1.056-1.443c0.055-0.452-1.045-1.726-1.045-1.726
		c-0.409-0.471-1.561-2.27-1.561-2.27c-0.473-0.621-0.263-1.681-0.263-1.681c0.127-0.206,1.225-0.19,1.225-0.19
		c0.292-0.078,0.323-0.474,0.323-0.474c0.003-0.146-0.042-0.435-0.042-0.435c0.003-0.074,0.08-0.143,0.08-0.143
		c0.044-0.026,0.054-0.229,0.054-0.229c-0.031-0.038-0.145-0.062-0.145-0.062c0.145-0.016,0.231-0.061,0.231-0.061
		c0.081-0.03,0.092-0.115,0.092-0.115c-0.07-0.174,0.01-0.351,0.01-0.351c0.458,0.058,0.323-0.234,0.323-0.234
		c-0.512-0.821-0.586-0.991-0.586-0.991s0.082-0.394,0.074-0.646c0,0-0.16-0.757-0.368-1.175c0.161-0.636-0.677-0.912-0.677-0.912
		c-0.572-0.435-1.076-0.424-1.399-0.433c-1.306-0.038-1.96,0.46-2.262,1.126V21.75c-0.087-0.177-0.149-0.076-0.149-0.076
		c-0.524-0.494-1.819-1.338-2.808,1.239c0,0-0.396,1.659,0.207,3.564c0.608,1.907,0.579,3.146-0.116,3.684
		c0,0,2.748,0.068,1.735-3.145c-0.91-2.891,0.034-4.491,0.78-4.665c0.044,0.104,0.164,0.035,0.164,0.035
		c-0.178,1.128,0.272,2.377,0.272,2.377c0.259,0.889,0.778,1.182,1.046,1.714c0.007,0.509-0.149,1.401-0.149,1.401
		s-0.67,0.173-1.188,1.58v-0.002l-0.005,0.004c-0.038,0.111-0.081,0.227-0.116,0.352c0,0-0.003,0.029-0.013,0.088
		c-0.219,0.671-0.642,1.854-1.094,3.248c-0.36,1.076-0.49,2.127-0.806,3.314c-0.202,0.748-0.252,1.659-0.406,2.355
		c-0.471,2.174-1.04,4.563-1.04,4.563c0.028,0.042,0.05,0.079,0.082,0.117c-0.762,0.848-0.801,1.901-0.801,1.901
		C11.6,46.121,11.8,45.785,11.8,45.785c0.021,0.806,0.176,0.691,0.436,0.891c0.312,0.244,0.608-0.227,0.608-0.227
		c0.27-0.702,0.37-1.38,0.37-1.38c-0.076,0.638,0.239,0.743,0.239,0.743c0.132-0.771,0.069-1.106,0.069-1.106
		c-0.183-0.317-0.069-0.59-0.086-0.73c0.141,0.014,0.24,0,0.24,0c0.892-2.703,1.372-4.996,2.328-7.401
		c0.022,0.22,0.05,0.426,0.067,0.604c-0.055,0.47-0.095,0.938-0.115,1.389c-0.263,0.462-0.557,1.033-0.685,1.495
		c-0.365,1.372-0.276,1.858-0.276,1.858c0.037,0.019,0.069,0.033,0.1,0.047c-0.016,0.775,0.177,1.494,0.177,1.494
		c-0.029,0.207-0.048,0.803-0.053,1.568v1.077c0.005,2.091,0.053,4.618,0.053,4.618c-1.454,1.127-3.23,9.219-3.23,9.219
		c0.064,0.038,0.132,0.076,0.193,0.108c-0.095,0.313-0.184,0.571-0.25,0.749c-0.052,0.099-0.099,0.18-0.13,0.227
		c-0.009,0.012-0.014,0.025-0.023,0.033c-0.006,0.007-0.011,0.015-0.011,0.015c-0.118,0.186-0.207,0.403-0.205,0.656
		c0,0.373-0.011,1.118-0.011,1.118l0.291,0.139l0.113-0.557c0.191,0.095,0.997,0.959,0.997,0.959C14.261,64.405,15.096,64,15.096,64
		c0.032-0.144-0.033-0.402-0.033-0.402c-0.457-0.224-1.295-1.213-1.582-1.65c-0.237-0.422-0.311-0.848-0.335-1.063
		c0.068-0.147,0.167-0.37,0.291-0.648l3.948-8.148c0.428-0.583,0.693-1.213,0.855-1.762c0.373,1.34,0.482,2.727,0.482,2.727
		c0.821,5.216,2.313,7.856,2.313,7.856c0.091,0.002,0.178,0,0.258-0.013c0.108,0.299,0.175,0.524,0.21,0.646l0,0
		c-0.094,0.291-0.075,0.711,0.075,1.046c0.149,0.331,0.442,1.018,0.442,1.018h0.312l-0.119-0.558c0.214,0,1.287,0.437,1.287,0.437
		c1.547,0.361,2.229-0.176,2.229-0.176C25.699,63.164,25.532,62.952,25.532,62.952"/>
	<path fill-rule="evenodd" clip-rule="evenodd" fill="#818181" d="M13.28,46.477c0.356-0.152,0.089-0.612,0.089-0.612
		c-0.067-0.159-0.14-0.318-0.218-0.474c-0.049,0.26-0.145,0.64-0.302,1.059c0,0-0.081,0.119-0.194,0.202
		C13.027,46.85,13.113,46.555,13.28,46.477"/>
	<path fill-rule="evenodd" clip-rule="evenodd" fill="#818181" d="M15.486,63.601l-0.109-0.019c0,0,0.047-0.579-0.874-0.891
		c0,0-1.215-0.186-1.505-0.316c0,0-0.628-0.25-0.752-0.271c0,0-0.323-0.301-0.431-0.353c0,0-0.271,0.064-0.027,0.353
		c-0.23-0.182-0.36-0.29-0.366-0.299c-0.032-0.159,0.011-0.002-0.023-0.165c0.604-0.221,0.877-0.611,0.877-0.611l-2.231-9.022
		c0.048-0.851-0.706-6.508-1.088-9.297c0.203-0.062,0.403-0.134,0.611-0.23l0.083-0.69c0.732,1.288,1.328,2.281,1.328,2.281
		c0.045,0.01,0.089,0.012,0.137,0.016c0.03,0.983,0.543,1.805,0.711,2.043c-0.011-0.093-0.021-0.197-0.026-0.344
		c0,0-0.2,0.334-0.165-0.385c0,0,0.039-0.862,0.611-1.659c-0.031-0.017-0.081-0.042-0.103-0.061
		c0.105-0.099,0.165-0.178,0.165-0.178c-0.267-0.577-1.462-3.716-2.184-5.63c0.011-0.309,0.129-3.205-0.014-5.562
		c-0.052-0.789-1.456-3.037-1.996-3.867c-0.031-0.266-0.273-0.511-0.282-0.517c0.009-0.543,0.186-0.999,0.186-0.999
		c0.172-0.189,1.002-0.043,1.002-0.043c0.527-0.046,0.565-0.32,0.565-0.32c0.043-0.178,0.005-0.586,0.005-0.586
		c-0.019-0.131,0.081-0.193,0.081-0.193c0.131-0.111,0.06-0.286,0.06-0.286c0.107,0.016,0.13-0.149,0.13-0.149
		c-0.113-0.232-0.015-0.371-0.015-0.371c0.547-0.075,0.384-0.374,0.384-0.374c-0.2-0.312-0.526-1.027-0.526-1.027
		s-0.03-0.214,0.073-0.56c0,0-0.046-0.729-0.17-1.202c0.259-0.55-0.328-0.974-0.328-0.974c-0.414-0.447-0.894-0.48-0.894-0.48
		c-1.174-0.574-2.107,0.265-2.107,0.265c-1.271,0.187-1.343,1.068-1.343,1.068c-1.128,2.196,0.946,4.265,0.946,4.265
		c0,0.26-0.092,0.711-0.168,1.065c-0.283,0.146-0.317,0.363-0.317,0.363c-0.281,0.159-0.854,0.638-1.164,1.972
		c-0.762,2.324-1.306,6.476-1.306,6.476c0.046,1.306,0.374,3.561,0.654,5.312c-0.024,0.07-0.043,0.136-0.07,0.2
		c0,0,0.041,0.034,0.119,0.101c0.204,1.275,0.378,2.22,0.396,2.261c0.103,3.857-0.357,7.169-0.357,7.169
		c-1.476,1.139-3.636,9.487-3.636,9.487c0.241,0.258,0.517,0.436,0.789,0.553c-0.029,0.085-0.055,0.165-0.078,0.23
		c-0.019-0.021-0.038-0.033-0.055-0.055l-0.215,0.021l-0.1,0.412c0,0-0.302,0.446-0.318,0.896L0,62.787c0,0,0.759,0.515,1.207,0.605
		c0,0,0.365-0.337,1.127,0.422c0,0,1.768,0.407,2.485,0.416l0.039-0.299l-0.095-0.064c0,0,0.26-0.514-0.478-1.176
		c0,0-1.115-0.205-1.335-0.445c0,0-0.486-0.49-0.592-0.558c0,0-0.184-0.403-0.265-0.502c0,0-0.092-0.011-0.129-0.038
		c0.403,0.002,0.688-0.065,0.688-0.065l3.51-8.632c0.375-0.505,0.625-1.053,0.794-1.545c0.368,1.277,0.566,2.529,0.566,2.529
		c1.006,5.165,2.217,8.27,2.217,8.27c0.178,0.04,0.344,0.061,0.5,0.08c0.105,0.313,0.092,0.219,0.118,0.308
		c0.015,0.062,0.027,0.121,0.037,0.163l-0.19,0.109l0.062,0.422c0,0-0.111,0.539,0.047,0.959l0.073,0.354
		c0,0,0.981,0.138,1.428,0.045c0,0,0.216-0.467,1.201-0.079c0,0,1.886,0.111,2.548-0.176L15.486,63.601z"/>
</g>
</svg>
