<?xml version="1.0" encoding="utf-8"?>
<!-- Generator: Adobe Illustrator 16.0.0, SVG Export Plug-In . SVG Version: 6.00 Build 0)  -->
<!DOCTYPE svg PUBLIC "-//W3C//DTD SVG 1.1//EN" "http://www.w3.org/Graphics/SVG/1.1/DTD/svg11.dtd">
<svg version="1.1" id="Layer_1" xmlns="http://www.w3.org/2000/svg" xmlns:xlink="http://www.w3.org/1999/xlink" x="0px" y="0px"
	 width="64px" height="54px" viewBox="0 0 64 54" enable-background="new 0 0 64 54" xml:space="preserve">
<g>
	<path fill-rule="evenodd" clip-rule="evenodd" fill="#02712F" d="M12.61,16.368h2.65c3.822-11.348,0,0,3.822-11.348v11.348h2.442
		V0.405H18.04l-4.066,12.26L9.871,0.405H6.366v15.963H8.96V5.092L12.61,16.368z"/>
	<path fill-rule="evenodd" clip-rule="evenodd" fill="#02712F" d="M35.812,11.312c-1.035,2.94-5.337,4.544-8.362,1.433
		c-0.65-0.667-1.427-1.624-1.427-4.265c0-1.289,0.406-5.799,5.111-5.92c2.749-0.071,3.368,0.972,3.772,1.405
		C36.562,5.749,36.583,9.13,35.812,11.312 M39.027,8.372c0-2.867-0.798-4.388-2.113-5.947C35.2,0.397,32.841,0.001,30.851,0
		c-1.928-0.003-4.044,0.869-5.576,2.55c-1.763,1.939-1.927,4.292-1.952,6.185c-0.047,3.199,3.023,8.894,9.028,7.922
		c0,0,3.437-0.5,4.868-2.606C37.981,12.93,39.081,11.572,39.027,8.372z"/>
	<path fill-rule="evenodd" clip-rule="evenodd" fill="#02712F" d="M51.62,10.34c-0.225,2.182-2.022,3.898-3.514,3.966
		c-1.262,0.057-2.444,0.089-3.547-0.949c-1.58-1.491-1.779-3.148-1.896-4.359c-0.204-2.123,0.428-3.588,0.948-4.495
		c1.108-1.933,3.098-1.983,4.041-2.009c2.441-0.068,3.775,2.032,3.967,3.156h2.585c0.062-1.526-0.706-2.769-1.725-3.859
		c-1.018-0.992-2.867-1.754-4.925-1.721c-1.55,0.025-3.229,0.011-5.005,1.633c-2.344,2.156-2.533,5.16-2.462,7.342
		c0.027,1.767,0.294,4.269,2.507,6.052c1.711,1.378,3.389,1.807,4.901,1.648c2.688-0.281,4.352-1.108,5.256-2.37
		c0.619-0.821,1.354-2.637,1.452-4.044L51.62,10.34z"/>
	<polygon fill-rule="evenodd" clip-rule="evenodd" fill="#02712F" points="16.01,21.601 16.01,19.24 6.366,19.24 6.366,35.166 
		9.119,35.166 9.119,21.628 	"/>
	<path fill-rule="evenodd" clip-rule="evenodd" fill="#02712F" d="M28.534,31.277c-1.24,1.758-3.017,1.893-4.004,1.893
		c-1.013,0-2.788-0.135-4.031-1.893c-0.468-0.648-1.066-1.865-1.066-4.067c0-1.066,0.191-2.886,1.219-4.247
		c0.278-0.398,1.393-1.774,3.879-1.713c2.436,0,3.572,1.315,3.878,1.713c0.659,0.894,1.194,2.225,1.194,4.247
		C29.649,29.149,29.153,30.382,28.534,31.277 M30.289,21.112c-1.6-1.852-3.847-2.27-5.719-2.27c-1.95,0-4.145,0.418-5.813,2.27
		c-1.598,1.827-1.922,4.318-1.99,6.04c0,2.908,0.987,4.852,1.99,5.998c1.669,1.877,3.863,2.23,5.813,2.23
		c1.923,0,4.143-0.354,5.743-2.23c1.056-1.196,2.034-3.09,1.991-5.998C32.305,24.554,31.548,22.522,30.289,21.112z"/>
	<path fill-rule="evenodd" clip-rule="evenodd" fill="#02712F" d="M42.231,26.03c-0.303,0.104-0.853,0.337-2.036,0.337h-3.4V21.63
		h3.4c1.184,0,1.733,0.173,2.036,0.284c0.763,0.338,1.144,1.034,1.181,1.923C43.448,24.784,43.075,25.585,42.231,26.03
		 M44.463,20.198c-1.001-0.884-2.178-0.986-3.485-0.986h-6.959v15.955h2.78l0.026-6.421l3.165,0.027c1.874,0,3.05-0.093,3.989-0.626
		c1.748-1.09,2.107-2.25,2.135-3.959C46.163,21.374,44.949,20.624,44.463,20.198z"/>
	<polygon fill-rule="evenodd" clip-rule="evenodd" fill="#02712F" points="9.187,40.428 16.616,40.428 16.616,53.963 19.208,53.963 
		19.208,37.93 6.366,37.93 6.366,53.963 9.187,53.963 	"/>
	<path fill-rule="evenodd" clip-rule="evenodd" fill="#02712F" d="M25.782,47.078L27.87,41.5l2.02,5.578H25.782z M29.193,37.93
		h-2.683l-6.04,16.033h2.906l1.628-4.676l5.66,0.078l1.473,4.598h3.024L29.193,37.93z"/>
	<path fill-rule="evenodd" clip-rule="evenodd" fill="#02712F" d="M44.603,44.928c-0.276,0.127-1.231,0.234-2.346,0.234H39.06V40.41
		h3.197c1.114,0,1.692,0,1.917,0.107c0.633,0.303,1.356,0.944,1.391,2.059C45.597,43.557,45.366,44.576,44.603,44.928
		 M46.143,38.647c-1.058-0.622-2.236-0.781-3.444-0.781h-6.413v16.097h2.653v-6.53h3.563c1.72,0,2.763-0.202,3.636-0.7
		c1.605-1.006,2.046-2.754,2.046-4.117C48.142,40.021,46.655,38.873,46.143,38.647z"/>
	<polygon fill-rule="evenodd" clip-rule="evenodd" fill="#02712F" points="53.192,45.076 53.192,37.866 50.51,37.866 50.51,53.963 
		53.192,53.963 53.192,48.319 55.334,46.375 60.62,53.963 63.933,53.963 57.276,44.519 63.933,37.866 60.247,37.866 	"/>
	<rect y="0.405" fill-rule="evenodd" clip-rule="evenodd" fill="#02712F" width="2.534" height="53.558"/>
</g>
</svg>
