<?xml version="1.0" encoding="utf-8"?>
<!-- Generator: Adobe Illustrator 16.0.0, SVG Export Plug-In . SVG Version: 6.00 Build 0)  -->
<!DOCTYPE svg PUBLIC "-//W3C//DTD SVG 1.1//EN" "http://www.w3.org/Graphics/SVG/1.1/DTD/svg11.dtd">
<svg version="1.1" id="Layer_1" xmlns="http://www.w3.org/2000/svg" xmlns:xlink="http://www.w3.org/1999/xlink" x="0px" y="0px"
	 width="595.28px" height="841.89px" viewBox="0 0 595.28 841.89" enable-background="new 0 0 595.28 841.89" xml:space="preserve">
<g>
	<path fill="#020202" d="M237.135,443.965c0,1.34,0.132,2.416,0.396,3.215c0.26,0.811,0.666,1.439,1.214,1.893
		c0.537,0.455,1.215,0.781,2.022,0.977c0.808,0.197,1.757,0.334,2.845,0.412c0.261,0,0.448,0.105,0.561,0.326
		c0.112,0.215,0.17,0.465,0.17,0.734c0,0.238-0.068,0.457-0.198,0.652c-0.131,0.195-0.327,0.297-0.589,0.297
		c-2.027,0-3.764-0.082-5.206-0.24c-1.449-0.15-2.845-0.234-4.198-0.234c-1.425,0-2.834,0.084-4.218,0.234
		c-1.39,0.158-2.742,0.24-4.061,0.24c-0.224,0-0.391-0.102-0.506-0.297c-0.109-0.195-0.177-0.414-0.192-0.652
		c-0.021-0.232,0.029-0.459,0.142-0.676c0.111-0.217,0.297-0.348,0.557-0.385c1.056-0.121,1.917-0.275,2.596-0.471
		c0.672-0.199,1.198-0.514,1.576-0.947c0.373-0.432,0.625-1.004,0.758-1.713c0.134-0.705,0.198-1.65,0.198-2.834v-22.027
		c0-0.865-0.021-1.732-0.057-2.596c-0.036-0.865-0.162-1.662-0.371-2.395c-0.2-0.727-0.505-1.35-0.896-1.859
		c-0.396-0.51-0.927-0.846-1.604-1.006c-0.409-0.074-0.844-0.162-1.293-0.268c-0.452-0.096-0.885-0.162-1.297-0.205
		c-0.225,0-0.39-0.094-0.506-0.295c-0.114-0.197-0.171-0.414-0.171-0.645c0-0.238,0.057-0.451,0.171-0.65
		c0.116-0.201,0.281-0.299,0.506-0.299c1.276,0,2.424,0.064,3.435,0.18c1.017,0.119,2.199,0.178,3.543,0.178
		c2.252-0.041,4.122-0.113,5.605-0.207c1.482-0.1,2.9-0.15,4.25-0.15c1.502,0,2.97,0.172,4.419,0.502
		c1.443,0.334,2.723,0.906,3.828,1.713c1.107,0.805,1.998,1.857,2.675,3.166c0.675,1.291,1.015,2.885,1.015,4.779
		c0,2.203-0.415,4.035-1.238,5.486c-0.828,1.459-1.962,2.641-3.408,3.549c-1.443,0.91-3.145,1.562-5.092,1.975
		c-1.954,0.416-4.057,0.662-6.306,0.74c-0.377,0-0.648,0.057-0.818,0.176c-0.166,0.121-0.254,0.455-0.254,1.002V443.965z
		 M237.135,431.15c0,0.314,0.088,0.514,0.254,0.588c0.17,0.08,0.475,0.121,0.929,0.121c1.839,0,3.376-0.146,4.617-0.443
		c1.237-0.293,2.232-0.787,2.986-1.477c0.75-0.688,1.281-1.582,1.605-2.684c0.314-1.1,0.473-2.484,0.473-4.139
		c0-3.105-0.541-5.297-1.631-6.58c-1.089-1.279-2.966-1.924-5.633-1.924c-1.46,0-2.428,0.199-2.895,0.592
		c-0.47,0.393-0.706,1.201-0.706,2.428V431.15z"/>
	<path fill="#020202" d="M269.014,447.344c0,1.035,0.092,1.758,0.274,2.168s0.541,0.615,1.074,0.615
		c0.306,0,0.562-0.033,0.757-0.111c0.196-0.068,0.478-0.225,0.839-0.463c0.086-0.053,0.18-0.053,0.274,0
		c0.099,0.059,0.185,0.143,0.256,0.238c0.066,0.109,0.116,0.225,0.147,0.359c0.023,0.133,0,0.246-0.086,0.334
		c-1.095,1.381-2.384,2.07-3.871,2.07c-0.814,0-1.509-0.229-2.085-0.682c-0.573-0.459-1.001-0.994-1.282-1.615
		c-0.058-0.148-0.141-0.158-0.256-0.043c-0.729,0.684-1.575,1.232-2.543,1.68c-0.968,0.439-2.184,0.66-3.64,0.66
		c-1.6,0-2.836-0.447-3.705-1.346c-0.868-0.896-1.303-2.166-1.303-3.818c0-2.117,0.94-3.746,2.819-4.877
		c1.879-1.137,4.611-1.701,8.205-1.701c0.057,0,0.104-0.074,0.127-0.217c0.026-0.148,0.039-0.49,0.039-1.021v-1.191
		c0-0.729-0.057-1.428-0.166-2.076c-0.114-0.643-0.3-1.211-0.568-1.701c-0.264-0.48-0.638-0.865-1.115-1.145
		c-0.478-0.281-1.063-0.416-1.767-0.416c-1.04,0-1.878,0.211-2.525,0.639c-0.643,0.424-0.971,0.979-0.971,1.652
		c0,0.328,0.103,0.645,0.296,0.953c0.198,0.307,0.297,0.625,0.297,0.949c0,0.416-0.196,0.811-0.593,1.191
		c-0.391,0.381-0.865,0.57-1.429,0.57c-0.755,0-1.298-0.207-1.62-0.637c-0.323-0.426-0.485-0.947-0.485-1.568
		c0-0.732,0.198-1.434,0.592-2.094c0.394-0.664,0.93-1.232,1.597-1.701c0.676-0.469,1.463-0.85,2.361-1.129
		c0.896-0.273,1.837-0.418,2.817-0.418c2.242,0,4.013,0.549,5.302,1.639c1.288,1.084,1.936,2.895,1.936,5.424V447.344z
		 M265.056,442.98c0-0.328-0.013-0.527-0.039-0.602c-0.022-0.068-0.096-0.107-0.211-0.107c-2.298,0.209-4.002,0.713-5.117,1.521
		c-1.104,0.812-1.657,1.844-1.657,3.111c0,0.887,0.208,1.631,0.631,2.23c0.422,0.598,1.12,0.904,2.105,0.904
		c0.641,0,1.323-0.133,2.04-0.4c0.716-0.266,1.353-0.645,1.915-1.143c0.224-0.234,0.333-0.477,0.333-0.705V442.98z"/>
	<path fill="#020202" d="M281.219,446.77c0,0.742,0.019,1.359,0.062,1.859c0.042,0.5,0.19,0.912,0.44,1.236
		c0.257,0.324,0.646,0.566,1.181,0.746c0.534,0.178,1.303,0.316,2.316,0.398c0.167,0.029,0.295,0.109,0.376,0.246
		c0.087,0.135,0.13,0.283,0.13,0.461c0,0.148-0.043,0.291-0.13,0.422c-0.081,0.129-0.209,0.195-0.376,0.195
		c-1.209,0-2.274-0.047-3.199-0.15c-0.925-0.102-1.809-0.162-2.653-0.162c-0.899,0-1.786,0.061-2.67,0.162
		c-0.887,0.104-1.78,0.15-2.674,0.15c-0.141,0-0.25-0.066-0.336-0.195c-0.084-0.131-0.126-0.273-0.126-0.422
		c0-0.178,0.042-0.326,0.126-0.461c0.086-0.137,0.211-0.217,0.377-0.246c0.787-0.082,1.394-0.221,1.833-0.398
		c0.437-0.18,0.749-0.416,0.947-0.727c0.193-0.307,0.312-0.688,0.355-1.146c0.043-0.455,0.064-1.02,0.064-1.701v-6.443
		c0-1.445-0.028-2.584-0.085-3.424c-0.059-0.838-0.188-1.482-0.399-1.943c-0.211-0.455-0.54-0.754-0.987-0.902
		c-0.449-0.148-1.069-0.25-1.854-0.311c-0.143,0-0.244-0.074-0.315-0.219c-0.067-0.148-0.106-0.295-0.106-0.443
		c0-0.146,0.039-0.297,0.106-0.436c0.071-0.152,0.188-0.227,0.36-0.227c0.558-0.059,1.339-0.127,2.335-0.195
		c0.995-0.078,2.011-0.262,3.048-0.555c0.394-0.113,0.714-0.133,0.967-0.047c0.254,0.092,0.365,0.34,0.336,0.754l-0.082,2.824
		c0,0.062,0.015,0.096,0.041,0.111c0.03,0.016,0.07-0.01,0.127-0.064c0.592-1.242,1.311-2.223,2.171-2.961
		c0.852-0.73,1.996-1.102,3.426-1.102c1.182,0,2.047,0.318,2.611,0.947c0.561,0.635,0.843,1.408,0.843,2.316
		c0,0.504-0.183,0.957-0.548,1.375c-0.365,0.41-0.882,0.611-1.558,0.611c-0.647,0-1.095-0.156-1.349-0.482
		c-0.252-0.328-0.378-0.678-0.378-1.059c0-0.414-0.077-0.734-0.231-0.973c-0.155-0.234-0.482-0.354-0.987-0.354
		c-0.536,0-1.017,0.184-1.451,0.551c-0.436,0.371-0.81,0.805-1.117,1.303c-0.309,0.5-0.548,1.014-0.715,1.547
		c-0.166,0.527-0.253,0.945-0.253,1.238V446.77z"/>
	<path fill="#020202" d="M312.573,452.334c-0.454-0.029-0.907-0.057-1.371-0.092c-0.463-0.025-0.945-0.039-1.453-0.039
		c-0.559,0-1.11,0.021-1.658,0.064c-0.549,0.045-1.062,0.066-1.537,0.066c-0.197,0-0.339-0.066-0.422-0.217
		s-0.141-0.281-0.167-0.398c-0.227-1.234-0.594-2.393-1.112-3.467c-0.523-1.074-1.117-2.025-1.793-2.846
		c-0.67-0.828-1.392-1.477-2.166-1.941c-0.77-0.475-1.536-0.713-2.295-0.713v3.445c0,0.859,0.014,1.561,0.045,2.119
		c0.025,0.559,0.117,1.018,0.276,1.373c0.15,0.35,0.395,0.631,0.734,0.836c0.333,0.203,0.823,0.371,1.473,0.484
		c0.166,0.031,0.294,0.121,0.377,0.268c0.083,0.15,0.126,0.289,0.126,0.441c0,0.146-0.043,0.285-0.126,0.418
		c-0.083,0.131-0.211,0.197-0.377,0.197c-0.787,0-1.504-0.047-2.15-0.15c-0.646-0.102-1.387-0.162-2.23-0.162
		c-0.896,0-1.782,0.061-2.647,0.162c-0.87,0.104-1.756,0.15-2.655,0.15c-0.138,0-0.253-0.066-0.333-0.197
		c-0.086-0.133-0.128-0.271-0.128-0.418c0-0.18,0.042-0.332,0.128-0.463c0.08-0.137,0.211-0.215,0.377-0.246
		c0.782-0.086,1.396-0.221,1.833-0.398c0.432-0.18,0.75-0.416,0.945-0.727c0.198-0.307,0.308-0.688,0.34-1.146
		c0.025-0.455,0.038-1.02,0.038-1.697v-17.354c0-1.268-0.028-2.273-0.081-3.021c-0.061-0.752-0.214-1.336-0.464-1.746
		c-0.255-0.414-0.636-0.686-1.139-0.836c-0.505-0.146-1.206-0.268-2.103-0.357c-0.141,0-0.244-0.076-0.312-0.219
		c-0.073-0.146-0.114-0.291-0.13-0.445c-0.016-0.145,0.016-0.289,0.085-0.438c0.07-0.146,0.188-0.223,0.357-0.223
		c1.011-0.051,2.121-0.148,3.347-0.262c1.219-0.115,2.35-0.338,3.386-0.662c0.394-0.121,0.652-0.098,0.777,0.064
		c0.13,0.164,0.203,0.33,0.231,0.508v18.811c0.537-0.359,1.035-0.756,1.519-1.197c0.472-0.439,0.908-0.895,1.304-1.367
		c0.392-0.475,0.753-0.93,1.094-1.371c0.337-0.439,0.631-0.822,0.884-1.145c0.561-0.768,0.805-1.318,0.735-1.656
		c-0.071-0.34-0.553-0.533-1.455-0.596c-0.138,0-0.252-0.072-0.335-0.223c-0.084-0.146-0.125-0.293-0.125-0.438
		c0-0.18,0.041-0.336,0.125-0.469c0.083-0.127,0.197-0.195,0.335-0.195c0.452,0,0.836,0.014,1.16,0.045
		c0.323,0.029,0.617,0.064,0.885,0.109c0.267,0.041,0.525,0.082,0.777,0.109c0.253,0.033,0.548,0.047,0.884,0.047
		c0.644,0,1.305-0.055,1.978-0.156c0.675-0.1,1.334-0.154,1.976-0.154c0.114,0,0.216,0.068,0.297,0.195
		c0.082,0.133,0.127,0.289,0.127,0.469c0,0.145-0.037,0.285-0.104,0.416c-0.071,0.131-0.178,0.215-0.32,0.244
		c-0.559,0.062-1.022,0.148-1.387,0.266c-0.365,0.117-0.701,0.279-1.008,0.48c-0.311,0.211-0.604,0.457-0.884,0.73
		c-0.281,0.287-0.615,0.609-1.011,0.996c-0.254,0.232-0.587,0.561-1.011,0.973c-0.422,0.41-0.876,0.844-1.366,1.299
		c-0.49,0.459-0.97,0.893-1.433,1.301c-0.464,0.414-0.86,0.756-1.198,1.02c-0.112,0.086-0.154,0.178-0.129,0.268
		c0.032,0.082,0.086,0.127,0.17,0.127c1.122,0.061,2.059,0.264,2.798,0.6c0.746,0.336,1.369,0.76,1.874,1.281
		c0.508,0.518,0.936,1.092,1.285,1.738c0.349,0.65,0.698,1.322,1.052,2.012c0.35,0.693,0.746,1.369,1.179,2.033
		c0.432,0.66,0.987,1.27,1.661,1.832c0.193,0.145,0.443,0.262,0.735,0.352c0.298,0.088,0.597,0.146,0.907,0.174
		c0.167,0,0.297,0.08,0.378,0.223c0.081,0.148,0.127,0.307,0.127,0.486c0,0.146-0.046,0.285-0.127,0.418
		C312.87,452.268,312.74,452.334,312.573,452.334"/>
	<path fill="#020202" d="M321.589,420.225c0,1.18,0.233,2.172,0.703,2.98c0.47,0.811,1.066,1.486,1.801,2.039
		c0.731,0.551,1.539,1.039,2.418,1.447c0.886,0.414,1.737,0.818,2.566,1.207c1.423,0.713,2.84,1.459,4.247,2.248
		c1.412,0.787,2.674,1.707,3.799,2.744c1.126,1.045,2.037,2.283,2.73,3.723c0.698,1.436,1.043,3.18,1.043,5.229
		c0,2.045-0.403,3.768-1.209,5.164c-0.808,1.398-1.858,2.539-3.155,3.424c-1.293,0.889-2.749,1.529-4.363,1.922
		c-1.612,0.391-3.228,0.592-4.838,0.592c-1.055,0-2.235-0.172-3.549-0.502c-1.312-0.336-2.514-0.836-3.604-1.512
		c-0.188-0.074-0.362-0.152-0.533-0.232c-0.17-0.08-0.386-0.117-0.647-0.117c-0.264,0-0.546,0.117-0.846,0.35
		c-0.3,0.242-0.561,0.654-0.785,1.244c-0.114,0.232-0.266,0.391-0.453,0.475c-0.188,0.076-0.387,0.105-0.592,0.084
		c-0.206-0.018-0.375-0.084-0.506-0.205c-0.132-0.121-0.195-0.256-0.195-0.414c0.109-0.861,0.215-1.801,0.308-2.805
		c0.094-1,0.144-2.016,0.144-3.043c0-1.018-0.033-2.043-0.086-3.066c-0.058-1.021-0.162-2.088-0.308-3.193
		c-0.038-0.23,0.036-0.432,0.224-0.588c0.188-0.156,0.396-0.248,0.618-0.264c0.228-0.023,0.44,0.016,0.649,0.121
		c0.205,0.096,0.327,0.268,0.363,0.5c0.226,1.613,0.643,3.078,1.241,4.393c0.6,1.318,1.35,2.443,2.251,3.371
		c0.898,0.926,1.92,1.645,3.067,2.156c1.144,0.508,2.392,0.766,3.744,0.766c1.011,0,1.98-0.148,2.897-0.443
		c0.922-0.295,1.736-0.729,2.455-1.297c0.708-0.572,1.271-1.266,1.686-2.096c0.412-0.834,0.617-1.793,0.617-2.898
		c0-1.414-0.291-2.656-0.873-3.721c-0.581-1.062-1.305-1.975-2.166-2.742c-0.864-0.768-1.823-1.438-2.87-2.012
		c-1.054-0.568-2.049-1.09-2.986-1.564c-1.234-0.592-2.476-1.201-3.716-1.828c-1.241-0.627-2.346-1.387-3.319-2.273
		c-0.978-0.889-1.762-1.951-2.366-3.189c-0.6-1.238-0.896-2.783-0.896-4.635c0-1.889,0.365-3.473,1.095-4.754
		c0.731-1.277,1.696-2.311,2.897-3.1c1.204-0.793,2.574-1.357,4.111-1.717c1.537-0.352,3.132-0.531,4.784-0.531
		c1.05,0,1.943,0.07,2.677,0.211c0.729,0.137,1.547,0.361,2.446,0.68c0.49,0.156,0.892,0.285,1.214,0.379
		c0.315,0.104,0.625,0.15,0.928,0.15c0.448,0,0.766-0.199,0.956-0.588c0.073-0.158,0.217-0.27,0.422-0.33
		c0.206-0.057,0.401-0.076,0.592-0.057c0.186,0.021,0.354,0.07,0.506,0.146c0.149,0.082,0.205,0.197,0.17,0.357
		c-0.188,0.705-0.308,1.416-0.368,2.123c-0.057,0.711-0.084,1.455-0.084,2.248c0,1.021,0.059,1.943,0.168,2.775
		c0.114,0.822,0.208,1.805,0.284,2.949c0,0.117-0.076,0.227-0.225,0.326c-0.154,0.096-0.331,0.156-0.534,0.174
		c-0.209,0.021-0.407-0.008-0.595-0.088c-0.188-0.076-0.3-0.217-0.336-0.412c-0.375-1.734-0.789-3.162-1.238-4.281
		c-0.452-1.123-1.016-1.998-1.689-2.629c-0.676-0.625-1.493-1.062-2.448-1.301c-0.958-0.23-2.11-0.354-3.459-0.354
		c-0.944,0-1.833,0.129-2.679,0.389c-0.844,0.254-1.585,0.641-2.226,1.146c-0.637,0.512-1.142,1.154-1.518,1.926
		C321.776,418.367,321.589,419.24,321.589,420.225"/>
	<path fill="#020202" d="M349.474,440.861c-0.14,0-0.213,0.049-0.229,0.148c-0.016,0.104-0.021,0.23-0.021,0.379
		c0,1.529,0.158,2.824,0.484,3.885c0.317,1.062,0.766,1.918,1.344,2.582c0.574,0.664,1.265,1.139,2.064,1.434
		c0.798,0.291,1.662,0.441,2.588,0.441c0.955,0,1.878-0.084,2.774-0.242c0.901-0.164,1.67-0.521,2.313-1.08
		c0.144-0.117,0.292-0.162,0.443-0.131c0.156,0.025,0.282,0.102,0.38,0.219c0.1,0.117,0.162,0.25,0.192,0.396
		c0.027,0.15,0,0.279-0.082,0.396c-0.904,1.236-1.914,2.092-3.034,2.561s-2.515,0.705-4.163,0.705c-1.686,0-3.141-0.262-4.362-0.795
		c-1.22-0.527-2.225-1.27-3.027-2.227c-0.803-0.959-1.392-2.074-1.768-3.354c-0.379-1.281-0.566-2.672-0.566-4.174
		c0-1.441,0.231-2.809,0.692-4.105c0.461-1.295,1.113-2.414,1.959-3.355c0.84-0.941,1.836-1.695,2.986-2.254
		c1.151-0.561,2.426-0.838,3.83-0.838c1.178,0,2.252,0.213,3.218,0.643c0.968,0.422,1.79,1.014,2.463,1.76
		c0.675,0.75,1.198,1.65,1.579,2.695c0.379,1.049,0.564,2.172,0.564,3.381c0,0.617-0.211,0.93-0.627,0.93H349.474z M357.179,439.311
		c0.394,0,0.615-0.145,0.67-0.438c0.058-0.297,0.087-0.648,0.087-1.061c0-0.619-0.092-1.217-0.277-1.787
		c-0.18-0.572-0.439-1.088-0.779-1.521c-0.333-0.447-0.742-0.801-1.217-1.064c-0.477-0.264-1.023-0.395-1.641-0.395
		c-0.759,0-1.409,0.135-1.957,0.416c-0.55,0.279-1.012,0.646-1.39,1.107c-0.377,0.453-0.663,0.994-0.864,1.607
		c-0.195,0.619-0.337,1.27-0.42,1.941c-0.057,0.355-0.077,0.645-0.062,0.865c0.016,0.221,0.073,0.328,0.188,0.328H357.179z"/>
	<path fill="#020202" d="M380.322,447.344c0,1.035,0.091,1.758,0.273,2.168s0.542,0.615,1.074,0.615c0.31,0,0.562-0.033,0.755-0.111
		c0.198-0.068,0.479-0.225,0.845-0.463c0.084-0.053,0.174-0.053,0.271,0c0.099,0.059,0.186,0.143,0.256,0.238
		c0.068,0.109,0.12,0.225,0.146,0.359c0.027,0.133,0,0.246-0.082,0.334c-1.098,1.381-2.388,2.07-3.873,2.07
		c-0.812,0-1.506-0.229-2.085-0.682c-0.573-0.459-1-0.994-1.282-1.615c-0.057-0.148-0.143-0.158-0.252-0.043
		c-0.732,0.684-1.579,1.232-2.546,1.68c-0.969,0.439-2.183,0.66-3.643,0.66c-1.598,0-2.835-0.447-3.7-1.346
		c-0.871-0.896-1.303-2.166-1.303-3.818c0-2.117,0.933-3.746,2.814-4.877c1.881-1.137,4.614-1.701,8.207-1.701
		c0.056,0,0.1-0.074,0.125-0.217c0.032-0.148,0.045-0.49,0.045-1.021v-1.191c0-0.729-0.055-1.428-0.17-2.076
		c-0.109-0.643-0.302-1.211-0.568-1.701c-0.268-0.48-0.635-0.865-1.115-1.145c-0.477-0.281-1.067-0.416-1.766-0.416
		c-1.037,0-1.881,0.211-2.523,0.639c-0.65,0.424-0.971,0.979-0.971,1.652c0,0.328,0.097,0.645,0.295,0.953
		c0.197,0.307,0.297,0.625,0.297,0.949c0,0.416-0.198,0.811-0.592,1.191s-0.868,0.57-1.432,0.57c-0.757,0-1.296-0.207-1.62-0.637
		c-0.323-0.426-0.479-0.947-0.479-1.568c0-0.732,0.193-1.434,0.583-2.094c0.396-0.664,0.928-1.232,1.604-1.701
		c0.67-0.469,1.455-0.85,2.354-1.129c0.896-0.273,1.837-0.418,2.822-0.418c2.244,0,4.013,0.549,5.302,1.639
		c1.29,1.084,1.934,2.895,1.934,5.424V447.344z M376.367,442.98c0-0.328-0.013-0.527-0.045-0.602
		c-0.025-0.068-0.099-0.107-0.208-0.107c-2.301,0.209-4.008,0.713-5.112,1.521c-1.11,0.812-1.664,1.844-1.664,3.111
		c0,0.887,0.211,1.631,0.633,2.23c0.422,0.598,1.122,0.904,2.105,0.904c0.643,0,1.323-0.133,2.037-0.4
		c0.716-0.266,1.355-0.645,1.917-1.143c0.223-0.234,0.337-0.477,0.337-0.705V442.98z"/>
	<path fill="#020202" d="M398.924,432.119c-0.083,0.322-0.161,0.721-0.231,1.188c-0.07,0.473-0.104,0.969-0.104,1.498
		c0,0.562,0.013,1.145,0.038,1.746c0.031,0.602,0.047,1.068,0.047,1.395c0,0.086-0.06,0.156-0.172,0.217
		c-0.108,0.062-0.24,0.1-0.375,0.111c-0.143,0.016-0.269,0-0.381-0.041c-0.111-0.047-0.183-0.115-0.208-0.201
		c-0.312-1.557-0.813-2.758-1.52-3.598c-0.7-0.836-1.823-1.258-3.364-1.258c-1.036,0-1.893,0.27-2.565,0.816
		c-0.675,0.547-1.011,1.277-1.011,2.184c0,0.77,0.279,1.355,0.841,1.77c0.559,0.408,1.306,0.791,2.228,1.15
		c0.394,0.146,0.863,0.324,1.409,0.549c0.548,0.219,0.993,0.402,1.328,0.553c0.731,0.352,1.409,0.719,2.039,1.102
		c0.631,0.383,1.184,0.832,1.644,1.348c0.462,0.512,0.827,1.1,1.092,1.74c0.267,0.648,0.404,1.4,0.404,2.254
		c0,1.117-0.229,2.057-0.674,2.801c-0.451,0.754-1.025,1.354-1.729,1.814c-0.701,0.455-1.501,0.785-2.4,0.986
		c-0.895,0.211-1.778,0.311-2.646,0.311c-0.729,0-1.545-0.082-2.443-0.26c-0.896-0.176-1.681-0.428-2.356-0.754
		c-0.17-0.055-0.343-0.027-0.525,0.092c-0.183,0.113-0.303,0.336-0.36,0.662c0,0.088-0.06,0.148-0.188,0.178
		c-0.123,0.027-0.26,0.041-0.399,0.041c-0.111,0-0.226-0.021-0.335-0.068c-0.112-0.039-0.17-0.109-0.17-0.201
		c0-0.229,0.029-0.555,0.086-0.965c0.053-0.412,0.084-0.793,0.084-1.15c0-0.352-0.021-0.74-0.066-1.17
		c-0.041-0.426-0.086-0.848-0.127-1.256c-0.036-0.416-0.076-0.781-0.102-1.105c-0.028-0.324-0.044-0.561-0.044-0.707
		c0-0.115,0.057-0.207,0.169-0.262c0.113-0.062,0.237-0.096,0.378-0.111c0.142-0.014,0.271,0,0.403,0.043
		c0.123,0.045,0.201,0.123,0.227,0.244c0.198,0.854,0.449,1.602,0.762,2.252c0.302,0.645,0.693,1.189,1.157,1.635
		c0.458,0.438,1.021,0.771,1.68,0.99c0.66,0.221,1.455,0.33,2.38,0.33c1.011,0,1.831-0.289,2.462-0.883
		c0.631-0.586,0.945-1.412,0.945-2.469c0-0.947-0.314-1.688-0.945-2.229c-0.631-0.547-1.368-1.021-2.206-1.439
		c-0.396-0.18-0.798-0.354-1.204-0.525c-0.404-0.186-0.819-0.355-1.241-0.533c-0.615-0.264-1.227-0.535-1.831-0.816
		c-0.603-0.279-1.134-0.623-1.598-1.035c-0.464-0.414-0.833-0.934-1.115-1.543c-0.281-0.625-0.422-1.387-0.422-2.299
		c0-1.062,0.219-1.959,0.651-2.693c0.438-0.732,0.998-1.334,1.686-1.787c0.686-0.457,1.451-0.789,2.293-0.998
		c0.842-0.203,1.668-0.305,2.483-0.305c0.787,0,1.479,0.098,2.084,0.283c0.599,0.195,1.267,0.541,1.996,1.041
		c0.115,0.061,0.261,0.053,0.443-0.021c0.183-0.076,0.331-0.316,0.442-0.729c0.027-0.119,0.112-0.188,0.251-0.223
		c0.143-0.025,0.28-0.037,0.425-0.023c0.14,0.018,0.264,0.059,0.375,0.109C398.909,431.955,398.95,432.029,398.924,432.119"/>
	<path fill="#020202" d="M421.9,441.43c0,1.795-0.239,3.387-0.714,4.768c-0.475,1.385-1.156,2.549-2.042,3.492
		c-0.884,0.939-1.943,1.652-3.174,2.139c-1.237,0.484-2.611,0.725-4.125,0.725c-1.32,0-2.54-0.227-3.664-0.68
		c-1.123-0.459-2.093-1.135-2.902-2.033c-0.815-0.898-1.459-2.027-1.936-3.398c-0.48-1.371-0.72-2.977-0.72-4.84
		c0-1.496,0.239-2.869,0.72-4.119c0.477-1.254,1.141-2.318,1.998-3.207c0.858-0.879,1.885-1.572,3.093-2.07
		c1.209-0.502,2.525-0.75,3.959-0.75c1.372,0,2.642,0.221,3.807,0.664c1.164,0.438,2.167,1.076,3.007,1.918
		c0.844,0.84,1.505,1.875,1.979,3.111C421.661,438.387,421.9,439.811,421.9,441.43 M417.484,441.916c0-1.119-0.07-2.203-0.211-3.266
		s-0.394-2.002-0.755-2.828c-0.368-0.82-0.871-1.484-1.52-1.982c-0.645-0.502-1.47-0.752-2.483-0.752
		c-1.12,0-2.033,0.25-2.734,0.752c-0.7,0.498-1.255,1.166-1.659,2.01c-0.406,0.838-0.69,1.783-0.845,2.844
		c-0.153,1.057-0.234,2.168-0.234,3.312c0,1,0.074,2.037,0.214,3.092c0.142,1.059,0.404,2.012,0.803,2.865
		c0.391,0.852,0.929,1.562,1.618,2.123c0.686,0.555,1.566,0.838,2.63,0.838c1.095,0,1.974-0.264,2.651-0.791
		c0.673-0.529,1.199-1.225,1.58-2.082c0.378-0.85,0.63-1.812,0.755-2.885C417.422,444.088,417.484,443.006,417.484,441.916"/>
	<path fill="#020202" d="M431.497,446.77c0,0.742,0.016,1.359,0.045,1.859c0.026,0.5,0.102,0.912,0.229,1.236
		c0.125,0.324,0.336,0.566,0.63,0.746c0.297,0.178,0.709,0.316,1.241,0.398c0.168,0.029,0.293,0.109,0.379,0.246
		c0.084,0.135,0.132,0.283,0.132,0.461c0,0.148-0.048,0.291-0.132,0.422c-0.086,0.129-0.211,0.195-0.379,0.195
		c-0.281,0-0.803-0.047-1.574-0.15c-0.771-0.102-1.579-0.162-2.423-0.162c-0.896,0-1.768,0.061-2.611,0.162
		c-0.84,0.104-1.627,0.15-2.355,0.15c-0.141,0-0.25-0.066-0.336-0.195c-0.086-0.131-0.125-0.273-0.125-0.422
		c0-0.178,0.039-0.326,0.125-0.461c0.086-0.137,0.211-0.217,0.377-0.246c0.705-0.082,1.243-0.203,1.622-0.35
		c0.379-0.15,0.66-0.369,0.843-0.664c0.181-0.293,0.287-0.682,0.313-1.148c0.027-0.469,0.047-1.076,0.047-1.811v-5.562
		c0-1.441-0.02-2.639-0.047-3.596c-0.026-0.955-0.125-1.717-0.292-2.275c-0.172-0.561-0.438-0.949-0.803-1.17
		c-0.364-0.219-0.884-0.334-1.555-0.334c-0.17,0-0.306-0.059-0.399-0.172c-0.099-0.117-0.151-0.25-0.151-0.402
		c0-0.174,0.053-0.32,0.151-0.434c0.094-0.121,0.229-0.176,0.399-0.176c0.528,0,1.31-0.096,2.336-0.27
		c1.021-0.178,2.064-0.428,3.135-0.754c0.389-0.111,0.686-0.033,0.881,0.246c0.195,0.277,0.297,0.596,0.297,0.953v1.76
		c0,0.061,0.021,0.098,0.065,0.111c0.036,0.018,0.076-0.002,0.104-0.068c0.195-0.32,0.47-0.68,0.82-1.08
		c0.353-0.398,0.772-0.771,1.265-1.125c0.49-0.352,1.042-0.648,1.659-0.883c0.614-0.234,1.306-0.352,2.062-0.352
		c2.105,0,3.751,0.607,4.947,1.83c1.191,1.221,1.785,3.199,1.785,5.939v7.545c0,0.795,0.023,1.447,0.063,1.945
		c0.046,0.5,0.14,0.904,0.297,1.215c0.155,0.307,0.394,0.547,0.714,0.705c0.322,0.16,0.782,0.293,1.371,0.375
		c0.166,0.029,0.29,0.109,0.377,0.246c0.081,0.135,0.127,0.283,0.127,0.461c0,0.148-0.046,0.291-0.127,0.422
		c-0.087,0.129-0.211,0.195-0.377,0.195c-0.365,0-0.96-0.047-1.793-0.15c-0.824-0.102-1.663-0.162-2.502-0.162
		c-0.898,0-1.757,0.061-2.569,0.162c-0.812,0.104-1.485,0.15-2.02,0.15c-0.144,0-0.253-0.066-0.337-0.195
		c-0.082-0.131-0.124-0.273-0.124-0.422c0-0.178,0.042-0.326,0.124-0.461c0.084-0.137,0.21-0.217,0.379-0.246
		c0.619-0.082,1.092-0.221,1.409-0.398c0.323-0.18,0.563-0.416,0.714-0.727c0.159-0.307,0.248-0.688,0.276-1.146
		c0.029-0.455,0.042-1.02,0.042-1.701v-6.707c0-0.732-0.026-1.475-0.083-2.213c-0.058-0.729-0.208-1.396-0.464-1.986
		c-0.25-0.586-0.615-1.068-1.095-1.453c-0.478-0.383-1.136-0.578-1.977-0.578c-0.843,0-1.58,0.145-2.211,0.422
		c-0.628,0.281-1.161,0.66-1.597,1.127c-0.438,0.467-0.767,1.023-0.99,1.654c-0.225,0.629-0.337,1.299-0.337,2.008V446.77z"/>
	<rect x="187.324" y="424.469" fill="#020202" width="6.726" height="22.227"/>
	<rect x="187.633" y="426.59" fill="#949193" width="6.109" height="20.105"/>
	<rect x="187.905" y="426.125" fill="#020202" width="5.584" height="0.465"/>
	<path fill="#6D6B6D" d="M191.483,446.695h0.927v-8.736c0-5.424-0.768-9.818-1.725-9.818c-0.954,0-1.728,4.395-1.728,9.818v8.736
		h0.936H191.483z"/>
	<polygon fill="#020202" points="191.849,430.686 189.523,430.686 189.617,430.254 191.76,430.254 	"/>
	<polygon fill="#020202" points="192.296,434.387 189.075,434.387 189.108,433.951 192.265,433.951 	"/>
	<rect x="188.958" y="437.795" fill="#020202" width="3.457" height="0.434"/>
	<rect x="188.113" y="427.266" fill="#020202" width="0.845" height="0.213"/>
	<rect x="189.248" y="427.588" fill="#020202" width="0.849" height="0.219"/>
	<rect x="188.055" y="436.641" fill="#020202" width="0.536" height="0.217"/>
	<rect x="187.905" y="429.678" fill="#020202" width="0.629" height="0.219"/>
	<rect x="192.646" y="430.576" fill="#020202" width="0.625" height="0.225"/>
	<rect x="188.015" y="443.633" fill="#020202" width="0.634" height="0.215"/>
	<rect x="192.541" y="432.07" fill="#020202" width="0.631" height="0.217"/>
	<rect x="192.088" y="428.615" fill="#6D6B6D" width="0.416" height="0.217"/>
	<rect x="187.804" y="434.666" fill="#020202" width="0.416" height="0.219"/>
	<rect x="189.528" y="436.424" fill="#6D6B6D" width="0.418" height="0.217"/>
	<rect x="190.122" y="435.936" fill="#6D6B6D" width="0.418" height="0.211"/>
	<rect x="191.64" y="435.578" fill="#6D6B6D" width="0.417" height="0.221"/>
	<rect x="192.849" y="437.004" fill="#020202" width="0.417" height="0.217"/>
	<rect x="192.641" y="443.941" fill="#6D6B6D" width="0.414" height="0.213"/>
	<rect x="193.067" y="442.264" fill="#6D6B6D" width="0.417" height="0.221"/>
	<rect x="187.905" y="440.881" fill="#6D6B6D" width="0.416" height="0.215"/>
	<rect x="192.75" y="427.266" fill="#6D6B6D" width="0.416" height="0.213"/>
	<rect x="192.646" y="433.055" fill="#6D6B6D" width="0.625" height="0.223"/>
	<rect x="192.646" y="434.447" fill="#020202" width="0.409" height="0.219"/>
	<rect x="188.329" y="434.666" fill="#6D6B6D" width="0.413" height="0.219"/>
	<rect x="188.113" y="441.434" fill="#6D6B6D" width="0.414" height="0.221"/>
	<rect x="193.067" y="436.641" fill="#6D6B6D" width="0.411" height="0.217"/>
	<rect x="188.329" y="432.182" fill="#6D6B6D" width="0.413" height="0.213"/>
	<rect x="189.248" y="443.941" fill="#020202" width="0.869" height="0.213"/>
	<rect x="189.857" y="443.633" fill="#020202" width="1.161" height="0.215"/>
	<rect x="190.815" y="440.773" fill="#020202" width="1.163" height="0.215"/>
	<rect x="189.518" y="440.062" fill="#020202" width="0.6" height="0.213"/>
	<rect x="191.092" y="436.893" fill="#020202" width="0.607" height="0.221"/>
	<rect x="189.82" y="432.947" fill="#020202" width="0.602" height="0.221"/>
	<rect x="190.122" y="429.566" fill="#020202" width="0.604" height="0.215"/>
	<rect x="190.795" y="433.168" fill="#020202" width="0.6" height="0.213"/>
	<rect x="179.009" y="445.061" fill="#43474E" width="7.299" height="1.619"/>
	<rect x="179.009" y="417.373" fill="#949193" width="7.299" height="27.449"/>
	<rect x="179.685" y="416.863" fill="#949193" width="5.826" height="0.51"/>
	<rect x="179.222" y="416.605" fill="#E1DFE1" width="6.717" height="0.258"/>
	<rect x="179.009" y="417.602" fill="#B1B3B7" width="7.299" height="0.113"/>
	<rect x="179.009" y="417.373" fill="#020202" width="7.299" height="0.229"/>
	<rect x="179.009" y="418.164" fill="#B1B3B7" width="7.299" height="0.111"/>
	<rect x="179.009" y="417.936" fill="#020202" width="7.299" height="0.223"/>
	<rect x="179.009" y="418.721" fill="#B1B3B7" width="7.299" height="0.113"/>
	<rect x="179.009" y="418.492" fill="#020202" width="7.299" height="0.229"/>
	<rect x="179.009" y="419.279" fill="#B1B3B7" width="7.299" height="0.111"/>
	<rect x="179.009" y="419.049" fill="#020202" width="7.299" height="0.23"/>
	<rect x="179.009" y="419.84" fill="#B1B3B7" width="7.299" height="0.111"/>
	<rect x="179.009" y="419.607" fill="#020202" width="7.299" height="0.229"/>
	<rect x="179.009" y="420.396" fill="#B1B3B7" width="7.299" height="0.113"/>
	<rect x="179.009" y="420.17" fill="#020202" width="7.299" height="0.227"/>
	<rect x="179.009" y="420.955" fill="#B1B3B7" width="7.299" height="0.113"/>
	<rect x="179.009" y="420.727" fill="#020202" width="7.299" height="0.229"/>
	<rect x="179.009" y="421.516" fill="#B1B3B7" width="7.299" height="0.113"/>
	<rect x="179.009" y="421.287" fill="#020202" width="7.299" height="0.227"/>
	<rect x="179.009" y="422.074" fill="#B1B3B7" width="7.299" height="0.111"/>
	<rect x="179.009" y="421.846" fill="#020202" width="7.299" height="0.229"/>
	<rect x="179.009" y="422.635" fill="#B1B3B7" width="7.299" height="0.109"/>
	<rect x="179.009" y="422.402" fill="#020202" width="7.299" height="0.232"/>
	<rect x="179.009" y="423.195" fill="#B1B3B7" width="7.299" height="0.109"/>
	<rect x="179.009" y="422.965" fill="#020202" width="7.299" height="0.225"/>
	<rect x="179.009" y="423.75" fill="#B1B3B7" width="7.299" height="0.115"/>
	<rect x="179.009" y="423.52" fill="#020202" width="7.299" height="0.23"/>
	<rect x="179.009" y="424.311" fill="#B1B3B7" width="7.299" height="0.113"/>
	<rect x="179.009" y="424.084" fill="#020202" width="7.299" height="0.227"/>
	<rect x="179.009" y="424.873" fill="#B1B3B7" width="7.299" height="0.109"/>
	<rect x="179.009" y="424.641" fill="#020202" width="7.299" height="0.227"/>
	<rect x="179.009" y="425.428" fill="#B1B3B7" width="7.299" height="0.113"/>
	<rect x="179.009" y="425.199" fill="#020202" width="7.299" height="0.229"/>
	<rect x="179.009" y="425.99" fill="#B1B3B7" width="7.299" height="0.107"/>
	<rect x="179.009" y="425.76" fill="#020202" width="7.299" height="0.23"/>
	<rect x="179.009" y="426.549" fill="#B1B3B7" width="7.299" height="0.109"/>
	<rect x="179.009" y="426.316" fill="#020202" width="7.299" height="0.23"/>
	<rect x="179.009" y="427.105" fill="#B1B3B7" width="7.299" height="0.113"/>
	<rect x="179.009" y="426.875" fill="#020202" width="7.299" height="0.23"/>
	<rect x="179.009" y="427.67" fill="#B1B3B7" width="7.299" height="0.109"/>
	<rect x="179.009" y="427.436" fill="#020202" width="7.299" height="0.234"/>
	<rect x="179.009" y="428.227" fill="#B1B3B7" width="7.299" height="0.109"/>
	<rect x="179.009" y="427.994" fill="#020202" width="7.299" height="0.23"/>
	<rect x="179.009" y="428.783" fill="#B1B3B7" width="7.299" height="0.113"/>
	<rect x="179.009" y="428.551" fill="#020202" width="7.299" height="0.232"/>
	<rect x="179.009" y="429.346" fill="#B1B3B7" width="7.299" height="0.105"/>
	<rect x="179.009" y="429.111" fill="#020202" width="7.299" height="0.234"/>
	<rect x="179.009" y="429.902" fill="#B1B3B7" width="7.299" height="0.105"/>
	<rect x="179.009" y="429.672" fill="#020202" width="7.299" height="0.227"/>
	<rect x="179.009" y="430.463" fill="#B1B3B7" width="7.299" height="0.109"/>
	<rect x="179.009" y="430.234" fill="#020202" width="7.299" height="0.229"/>
	<rect x="179.009" y="431.023" fill="#B1B3B7" width="7.299" height="0.105"/>
	<rect x="179.009" y="430.791" fill="#020202" width="7.299" height="0.232"/>
	<rect x="179.009" y="431.58" fill="#B1B3B7" width="7.299" height="0.111"/>
	<rect x="179.009" y="431.352" fill="#020202" width="7.299" height="0.227"/>
	<rect x="179.009" y="432.139" fill="#B1B3B7" width="7.299" height="0.111"/>
	<rect x="179.009" y="431.902" fill="#020202" width="7.299" height="0.236"/>
	<rect x="179.009" y="432.697" fill="#B1B3B7" width="7.299" height="0.109"/>
	<rect x="179.009" y="432.467" fill="#020202" width="7.299" height="0.23"/>
	<rect x="179.009" y="433.256" fill="#B1B3B7" width="7.299" height="0.111"/>
	<rect x="179.009" y="433.027" fill="#020202" width="7.299" height="0.229"/>
	<rect x="179.009" y="433.814" fill="#B1B3B7" width="7.299" height="0.113"/>
	<rect x="179.009" y="433.584" fill="#020202" width="7.299" height="0.23"/>
	<rect x="179.009" y="434.377" fill="#B1B3B7" width="7.299" height="0.109"/>
	<rect x="179.009" y="434.143" fill="#020202" width="7.299" height="0.234"/>
	<rect x="179.009" y="434.93" fill="#B1B3B7" width="7.299" height="0.109"/>
	<rect x="179.009" y="434.701" fill="#020202" width="7.299" height="0.227"/>
	<rect x="179.009" y="435.488" fill="#B1B3B7" width="7.299" height="0.109"/>
	<rect x="179.009" y="435.254" fill="#020202" width="7.299" height="0.234"/>
	<rect x="179.009" y="436.049" fill="#B1B3B7" width="7.299" height="0.109"/>
	<rect x="179.009" y="435.816" fill="#020202" width="7.299" height="0.232"/>
	<rect x="179.009" y="436.609" fill="#B1B3B7" width="7.299" height="0.109"/>
	<rect x="179.009" y="436.375" fill="#020202" width="7.299" height="0.23"/>
	<rect x="179.009" y="437.166" fill="#B1B3B7" width="7.299" height="0.113"/>
	<rect x="179.009" y="436.934" fill="#020202" width="7.299" height="0.232"/>
	<rect x="179.009" y="437.727" fill="#B1B3B7" width="7.299" height="0.111"/>
	<rect x="179.009" y="437.494" fill="#020202" width="7.299" height="0.232"/>
	<rect x="179.009" y="438.281" fill="#B1B3B7" width="7.299" height="0.115"/>
	<rect x="179.009" y="438.049" fill="#020202" width="7.299" height="0.232"/>
	<rect x="179.009" y="438.842" fill="#B1B3B7" width="7.299" height="0.111"/>
	<rect x="179.009" y="438.607" fill="#020202" width="7.299" height="0.234"/>
	<rect x="179.009" y="439.402" fill="#B1B3B7" width="7.299" height="0.111"/>
	<rect x="179.009" y="439.17" fill="#020202" width="7.299" height="0.232"/>
	<rect x="179.009" y="439.959" fill="#B1B3B7" width="7.299" height="0.113"/>
	<rect x="179.009" y="439.729" fill="#020202" width="7.299" height="0.23"/>
	<rect x="179.009" y="440.52" fill="#B1B3B7" width="7.299" height="0.111"/>
	<rect x="179.009" y="440.289" fill="#020202" width="7.299" height="0.23"/>
	<rect x="179.009" y="441.08" fill="#B1B3B7" width="7.299" height="0.109"/>
	<rect x="179.009" y="440.85" fill="#020202" width="7.299" height="0.23"/>
	<rect x="179.009" y="441.635" fill="#B1B3B7" width="7.299" height="0.115"/>
	<rect x="179.009" y="441.408" fill="#020202" width="7.299" height="0.227"/>
	<rect x="179.009" y="442.193" fill="#B1B3B7" width="7.299" height="0.117"/>
	<rect x="179.009" y="441.963" fill="#020202" width="7.299" height="0.23"/>
	<rect x="179.009" y="442.752" fill="#B1B3B7" width="7.299" height="0.117"/>
	<rect x="179.009" y="442.523" fill="#020202" width="7.299" height="0.229"/>
	<rect x="179.009" y="443.312" fill="#B1B3B7" width="7.299" height="0.115"/>
	<rect x="179.009" y="443.082" fill="#020202" width="7.299" height="0.23"/>
	<rect x="179.009" y="443.877" fill="#B1B3B7" width="7.299" height="0.109"/>
	<rect x="179.009" y="443.645" fill="#020202" width="7.299" height="0.232"/>
	<rect x="179.009" y="444.434" fill="#B1B3B7" width="7.299" height="0.109"/>
	<rect x="179.009" y="444.201" fill="#020202" width="7.299" height="0.232"/>
	<rect x="179.009" y="444.66" fill="#B1B3B7" width="7.299" height="0.4"/>
	<rect x="179.307" y="445.061" fill="#CAC9CC" width="0.215" height="1.619"/>
	<rect x="179.936" y="445.061" fill="#CAC9CC" width="0.213" height="1.619"/>
	<rect x="184.51" y="445.061" fill="#CAC9CC" width="0.214" height="1.619"/>
	<rect x="185.136" y="445.061" fill="#CAC9CC" width="0.217" height="1.619"/>
	<rect x="185.764" y="445.061" fill="#CAC9CC" width="0.214" height="1.619"/>
	<rect x="175.526" y="445.061" fill="#6D6B6D" width="5.052" height="1.619"/>
	<rect x="175.526" y="431.902" fill="#020202" width="5.052" height="12.92"/>
	<rect x="175.526" y="431.408" fill="#949193" width="4.554" height="0.502"/>
	<rect x="175.526" y="431.141" fill="#E1DFE1" width="4.849" height="0.268"/>
	<rect x="175.526" y="431.902" fill="#E1DFE1" width="5.107" height="0.41"/>
	<rect x="175.526" y="432.697" fill="#CFCDD0" width="5.052" height="0.109"/>
	<rect x="175.526" y="432.467" fill="#6D6B6D" width="5.052" height="0.23"/>
	<rect x="175.526" y="433.256" fill="#CFCDD0" width="5.052" height="0.111"/>
	<rect x="175.526" y="433.027" fill="#6D6B6D" width="5.052" height="0.229"/>
	<rect x="175.526" y="433.814" fill="#CFCDD0" width="5.052" height="0.113"/>
	<rect x="175.526" y="433.584" fill="#6D6B6D" width="5.052" height="0.23"/>
	<rect x="175.526" y="434.377" fill="#CFCDD0" width="5.052" height="0.109"/>
	<rect x="175.526" y="434.143" fill="#6D6B6D" width="5.052" height="0.234"/>
	<rect x="175.526" y="434.93" fill="#CFCDD0" width="5.052" height="0.109"/>
	<rect x="175.526" y="434.701" fill="#6D6B6D" width="5.052" height="0.227"/>
	<rect x="175.526" y="435.488" fill="#CFCDD0" width="5.052" height="0.109"/>
	<rect x="175.526" y="435.254" fill="#6D6B6D" width="5.052" height="0.234"/>
	<rect x="175.526" y="436.049" fill="#CFCDD0" width="5.052" height="0.109"/>
	<rect x="175.526" y="435.816" fill="#6D6B6D" width="5.052" height="0.232"/>
	<rect x="175.526" y="436.609" fill="#CFCDD0" width="5.052" height="0.109"/>
	<rect x="175.526" y="436.375" fill="#6D6B6D" width="5.052" height="0.23"/>
	<rect x="175.526" y="437.166" fill="#CFCDD0" width="5.052" height="0.113"/>
	<rect x="175.526" y="436.934" fill="#6D6B6D" width="5.052" height="0.232"/>
	<rect x="175.526" y="437.727" fill="#CFCDD0" width="5.052" height="0.111"/>
	<rect x="175.526" y="437.494" fill="#6D6B6D" width="5.052" height="0.232"/>
	<rect x="175.526" y="438.281" fill="#CFCDD0" width="5.052" height="0.115"/>
	<rect x="175.526" y="438.049" fill="#6D6B6D" width="5.052" height="0.232"/>
	<rect x="175.526" y="438.842" fill="#CFCDD0" width="5.052" height="0.111"/>
	<rect x="175.526" y="438.607" fill="#6D6B6D" width="5.052" height="0.234"/>
	<rect x="175.526" y="439.402" fill="#CFCDD0" width="5.052" height="0.111"/>
	<rect x="175.526" y="439.17" fill="#6D6B6D" width="5.052" height="0.232"/>
	<rect x="175.526" y="439.959" fill="#CFCDD0" width="5.052" height="0.113"/>
	<rect x="175.526" y="439.729" fill="#6D6B6D" width="5.052" height="0.23"/>
	<rect x="175.526" y="440.52" fill="#CFCDD0" width="5.052" height="0.111"/>
	<rect x="175.526" y="440.289" fill="#6D6B6D" width="5.052" height="0.23"/>
	<rect x="175.526" y="441.08" fill="#CFCDD0" width="5.052" height="0.109"/>
	<rect x="175.526" y="440.85" fill="#6D6B6D" width="5.052" height="0.23"/>
	<rect x="175.526" y="441.635" fill="#CFCDD0" width="5.052" height="0.115"/>
	<rect x="175.526" y="441.408" fill="#6D6B6D" width="5.052" height="0.227"/>
	<rect x="175.526" y="442.193" fill="#CFCDD0" width="5.052" height="0.117"/>
	<rect x="175.526" y="441.963" fill="#6D6B6D" width="5.052" height="0.23"/>
	<rect x="175.526" y="442.752" fill="#CFCDD0" width="5.052" height="0.117"/>
	<rect x="175.526" y="442.523" fill="#6D6B6D" width="5.052" height="0.229"/>
	<rect x="175.526" y="443.312" fill="#CFCDD0" width="5.052" height="0.115"/>
	<rect x="175.526" y="443.082" fill="#6D6B6D" width="5.052" height="0.23"/>
	<rect x="175.526" y="443.877" fill="#CFCDD0" width="5.052" height="0.109"/>
	<rect x="175.526" y="443.645" fill="#6D6B6D" width="5.052" height="0.232"/>
	<rect x="175.526" y="444.434" fill="#CFCDD0" width="5.052" height="0.109"/>
	<rect x="175.526" y="444.201" fill="#6D6B6D" width="5.052" height="0.232"/>
	<rect x="175.526" y="444.66" fill="#E1DFE1" width="5.052" height="0.4"/>
	<rect x="175.797" y="445.061" fill="#CAC9CC" width="0.146" height="1.619"/>
	<rect x="176.228" y="445.061" fill="#CAC9CC" width="0.147" height="1.619"/>
	<rect x="176.659" y="445.061" fill="#CAC9CC" width="0.149" height="1.619"/>
	<rect x="177.116" y="445.061" fill="#CAC9CC" width="0.146" height="1.619"/>
	<rect x="177.551" y="445.061" fill="#CAC9CC" width="0.146" height="1.619"/>
	<rect x="177.978" y="445.061" fill="#CAC9CC" width="0.149" height="1.619"/>
	<rect x="178.416" y="445.061" fill="#CAC9CC" width="0.148" height="1.619"/>
	<rect x="178.851" y="445.061" fill="#CAC9CC" width="0.146" height="1.619"/>
	<rect x="179.296" y="445.061" fill="#CAC9CC" width="0.149" height="1.619"/>
	<rect x="179.729" y="445.061" fill="#CAC9CC" width="0.147" height="1.619"/>
	<rect x="180.164" y="445.061" fill="#CAC9CC" width="0.146" height="1.619"/>
	<rect x="180.914" y="445.061" fill="#9D9FA6" width="0.146" height="1.619"/>
	<rect x="181.308" y="445.061" fill="#9D9FA6" width="0.149" height="1.619"/>
	<rect x="181.703" y="445.061" fill="#9D9FA6" width="0.149" height="1.619"/>
	<rect x="182.097" y="445.061" fill="#9D9FA6" width="0.152" height="1.619"/>
	<rect x="182.493" y="445.061" fill="#9D9FA6" width="0.146" height="1.619"/>
	<rect x="182.89" y="445.061" fill="#9D9FA6" width="0.148" height="1.619"/>
	<rect x="183.285" y="445.061" fill="#9D9FA6" width="0.146" height="1.619"/>
	<rect x="183.76" y="445.061" fill="#6D6B6D" width="5.052" height="1.619"/>
	<rect x="183.76" y="437.838" fill="#020202" width="5.052" height="7.223"/>
	<rect x="185.334" y="437.18" fill="#949193" width="3.502" height="0.246"/>
	<rect x="185.195" y="436.918" fill="#E1DFE1" width="3.641" height="0.262"/>
	<rect x="185.195" y="437.426" fill="#E1DFE1" width="3.641" height="0.412"/>
	<rect x="185.195" y="438.281" fill="#CFCDD0" width="3.616" height="0.115"/>
	<rect x="185.195" y="438.049" fill="#6D6B6D" width="3.616" height="0.232"/>
	<rect x="185.195" y="438.842" fill="#CFCDD0" width="3.616" height="0.111"/>
	<rect x="185.195" y="438.607" fill="#6D6B6D" width="3.616" height="0.234"/>
	<rect x="185.276" y="439.402" fill="#CFCDD0" width="3.535" height="0.111"/>
	<rect x="185.276" y="439.17" fill="#6D6B6D" width="3.535" height="0.232"/>
	<rect x="185.276" y="439.959" fill="#CFCDD0" width="3.535" height="0.113"/>
	<rect x="185.276" y="439.729" fill="#6D6B6D" width="3.535" height="0.23"/>
	<rect x="185.276" y="440.52" fill="#CFCDD0" width="3.535" height="0.111"/>
	<rect x="185.276" y="440.289" fill="#6D6B6D" width="3.535" height="0.23"/>
	<rect x="185.276" y="441.08" fill="#CFCDD0" width="3.535" height="0.109"/>
	<rect x="185.276" y="440.85" fill="#6D6B6D" width="3.535" height="0.23"/>
	<rect x="185.276" y="441.635" fill="#CFCDD0" width="3.535" height="0.115"/>
	<rect x="185.276" y="441.408" fill="#6D6B6D" width="3.535" height="0.227"/>
	<rect x="185.276" y="442.193" fill="#CFCDD0" width="3.535" height="0.117"/>
	<rect x="185.276" y="441.963" fill="#6D6B6D" width="3.535" height="0.23"/>
	<rect x="185.276" y="442.752" fill="#CFCDD0" width="3.535" height="0.117"/>
	<rect x="185.276" y="442.523" fill="#6D6B6D" width="3.535" height="0.229"/>
	<rect x="185.276" y="443.312" fill="#CFCDD0" width="3.535" height="0.115"/>
	<rect x="185.276" y="443.082" fill="#6D6B6D" width="3.535" height="0.23"/>
	<rect x="185.276" y="443.877" fill="#CFCDD0" width="3.535" height="0.109"/>
	<rect x="185.276" y="443.645" fill="#6D6B6D" width="3.535" height="0.232"/>
	<rect x="185.276" y="444.434" fill="#CFCDD0" width="3.535" height="0.109"/>
	<rect x="185.276" y="444.201" fill="#6D6B6D" width="3.535" height="0.232"/>
	<rect x="185.195" y="444.646" fill="#E1DFE1" width="3.616" height="0.414"/>
	<rect x="184.031" y="445.061" fill="#CAC9CC" width="0.143" height="1.619"/>
	<rect x="184.461" y="445.061" fill="#CAC9CC" width="0.147" height="1.619"/>
	<rect x="184.893" y="445.061" fill="#CAC9CC" width="0.149" height="1.619"/>
	<rect x="185.35" y="445.061" fill="#CAC9CC" width="0.147" height="1.619"/>
	<rect x="185.781" y="445.061" fill="#CAC9CC" width="0.152" height="1.619"/>
	<rect x="186.235" y="445.061" fill="#CAC9CC" width="0.148" height="1.619"/>
	<rect x="186.647" y="445.061" fill="#CAC9CC" width="0.15" height="1.619"/>
	<rect x="187.085" y="445.061" fill="#CAC9CC" width="0.146" height="1.619"/>
	<rect x="187.529" y="445.061" fill="#CAC9CC" width="0.149" height="1.619"/>
	<rect x="187.963" y="445.061" fill="#CAC9CC" width="0.148" height="1.619"/>
	<rect x="188.397" y="445.061" fill="#CAC9CC" width="0.149" height="1.619"/>
	<rect x="185.195" y="437.82" fill="#E1DFE1" width="0.443" height="7.002"/>
	<rect x="179.593" y="418.834" fill="#020202" width="0.782" height="0.211"/>
	<rect x="183.306" y="419.391" fill="#020202" width="0.785" height="0.217"/>
	<rect x="181.056" y="419.951" fill="#020202" width="0.484" height="0.219"/>
	<rect x="182.66" y="421.068" fill="#020202" width="0.485" height="0.219"/>
	<rect x="184.213" y="422.744" fill="#020202" width="0.49" height="0.221"/>
	<rect x="180.524" y="422.186" fill="#020202" width="0.288" height="0.211"/>
	<rect x="180.578" y="423.865" fill="#020202" width="0.482" height="0.219"/>
	<rect x="181.946" y="424.982" fill="#020202" width="0.229" height="0.217"/>
	<rect x="180.769" y="430.008" fill="#020202" width="0.224" height="0.227"/>
	<rect x="182.937" y="425.541" fill="#020202" width="0.435" height="0.219"/>
	<rect x="180.08" y="426.658" fill="#020202" width="0.741" height="0.217"/>
	<rect x="182.061" y="426.658" fill="#020202" width="0.74" height="0.217"/>
	<rect x="180.881" y="427.779" fill="#020202" width="0.74" height="0.215"/>
	<rect x="183.849" y="431.691" fill="#020202" width="0.474" height="0.211"/>
	<rect x="182.061" y="432.807" fill="#020202" width="0.473" height="0.221"/>
	<rect x="183.021" y="434.486" fill="#020202" width="0.468" height="0.217"/>
	<rect x="184.296" y="435.039" fill="#020202" width="0.643" height="0.215"/>
	<rect x="181.8" y="435.598" fill="#020202" width="0.637" height="0.217"/>
	<rect x="183.041" y="436.719" fill="#020202" width="0.516" height="0.215"/>
	<rect x="181.449" y="437.838" fill="#020202" width="0.513" height="0.215"/>
	<rect x="186.125" y="438.396" fill="#020202" width="0.518" height="0.211"/>
	<rect x="187.231" y="438.953" fill="#020202" width="0.516" height="0.215"/>
	<rect x="176.042" y="433.367" fill="#020202" width="0.767" height="0.217"/>
	<rect x="178.699" y="433.928" fill="#020202" width="0.764" height="0.215"/>
	<rect x="177.421" y="434.48" fill="#020202" width="0.382" height="0.221"/>
	<rect x="176.834" y="435.598" fill="#020202" width="0.514" height="0.217"/>
	<rect x="178.699" y="438.396" fill="#020202" width="0.511" height="0.211"/>
	<rect x="177.365" y="437.838" fill="#020202" width="0.514" height="0.215"/>
	<rect x="176.86" y="440.072" fill="#020202" width="0.511" height="0.217"/>
	<rect x="176.209" y="441.75" fill="#020202" width="0.75" height="0.219"/>
	<rect x="178.041" y="442.869" fill="#020202" width="0.747" height="0.213"/>
	<rect x="176.99" y="443.986" fill="#020202" width="0.5" height="0.215"/>
	<rect x="179.414" y="437.279" fill="#020202" width="0.315" height="0.213"/>
	<rect x="178.851" y="441.189" fill="#020202" width="0.312" height="0.219"/>
	<rect x="186.465" y="439.514" fill="#020202" width="0.333" height="0.215"/>
	<rect x="188.143" y="440.072" fill="#020202" width="0.334" height="0.217"/>
	<rect x="186.122" y="441.75" fill="#020202" width="0.33" height="0.219"/>
	<rect x="187.846" y="442.311" fill="#020202" width="0.328" height="0.211"/>
	<rect x="186.604" y="443.428" fill="#020202" width="0.441" height="0.217"/>
	<rect x="182.559" y="440.072" fill="#020202" width="0.519" height="0.217"/>
	<rect x="180.781" y="440.631" fill="#020202" width="0.514" height="0.215"/>
	<rect x="182.259" y="440.631" fill="#020202" width="0.3" height="0.215"/>
	<rect x="184.091" y="427.219" fill="#020202" width="0.74" height="0.217"/>
	<g>
		<defs>
			<path id="SVGID_1_" d="M206.741,430.465c-0.442,0.092-1.255,0.146-1.255,0.146c0.609,2.365,0.099,17.785,0.099,17.785h4.917
				c-0.818-4.926,0-17.965,0-17.965s-0.597-0.129-0.782-0.211c-0.229-0.105-0.841-0.59-0.841-0.59S207.279,430.357,206.741,430.465"
				/>
		</defs>
		<use xlink:href="#SVGID_1_"  overflow="visible" fill="#6D6B6D"/>
		<clipPath id="SVGID_2_">
			<use xlink:href="#SVGID_1_"  overflow="visible"/>
		</clipPath>
	</g>
	<g>
		<defs>
			<path id="SVGID_3_" d="M200.691,394.74c0,0.496,0.081,0.977,0.224,1.428c-2.22,1.861-3.632,4.609-3.632,7.672
				c0,0.635,0.068,1.254,0.183,1.857c-0.649,0.996-1.032,2.174-1.032,3.439v0.031c-1.078,1.852-1.704,3.982-1.704,6.25
				c0,3.178,1.214,6.088,3.212,8.316c0.603,3.23,3.534,5.713,7.007,5.713c1.424,0,2.742-0.412,3.853-1.111
				c0.843,0.381,1.771,0.602,2.753,0.602c3.484,0,6.325-2.646,6.577-5.959c1.62-2.117,2.583-4.729,2.583-7.561
				c0-3.139-1.188-6.02-3.148-8.234c0.375-1.053,0.591-2.174,0.591-3.344c0-2.645-1.055-5.035-2.756-6.844
				c-0.144-3.408-3.031-6.172-6.587-6.172c-0.136,0-0.264,0.006-0.394,0.014c-0.8-0.547-1.775-0.873-2.83-0.873
				C202.901,389.969,200.691,392.123,200.691,394.74"/>
		</defs>
		<use xlink:href="#SVGID_3_"  overflow="visible" fill="#6D6B6D"/>
		<clipPath id="SVGID_4_">
			<use xlink:href="#SVGID_3_"  overflow="visible"/>
		</clipPath>
	</g>
	<g>
		<defs>
			<path id="SVGID_5_" d="M188.367,444.182l-1.049,0.484c0,0-1.583-2.072-5.088-0.635c-2.557,1.355-3.936,2.053-3.936,2.053
				s-0.924,0.322-2.273-0.539c-1.355-0.855-3.812-0.373-4.419,0.912c-0.616,1.291-0.563,1.773-0.563,1.773l-0.281,1.014
				l-1.026,0.271c0,0-0.355,0.131-0.712,0.375c-0.362,0.244-1.279,0.514-0.847,1.232c0.156,0.352,3.067,0.213,3.067,0.213h41.349
				c0,0,2.64-0.213,2.512-3.137c0-1.848-2.12-2.438-2.12-2.438s-2.174-6.061-8.206-4.691c-1.482-1.877-3.422-4.316-7.95-4.348
				c-0.011,0-0.021,0-0.036,0C192.285,436.723,188.697,441.457,188.367,444.182"/>
		</defs>
		<use xlink:href="#SVGID_5_"  overflow="visible" fill="#949193"/>
		<clipPath id="SVGID_6_">
			<use xlink:href="#SVGID_5_"  overflow="visible"/>
		</clipPath>
	</g>
	<g>
		<defs>
			<path id="SVGID_7_" d="M196.788,436.723c-4.508,0-8.091,4.734-8.421,7.459l-1.049,0.484c0,0-1.583-2.072-5.088-0.635
				c-2.557,1.355-3.936,2.053-3.936,2.053s-0.924,0.322-2.273-0.539c-1.355-0.855-3.812-0.373-4.419,0.912
				c-0.616,1.291-0.563,1.773-0.563,1.773l-0.281,1.014l-1.026,0.271c0,0-0.355,0.131-0.712,0.375
				c-0.362,0.244-1.279,0.514-0.847,1.232c0.156,0.352,3.067,0.213,3.067,0.213h41.349c0,0,2.64-0.213,2.512-3.137
				c0-1.848-2.12-2.438-2.12-2.438s-2.174-6.061-8.206-4.691c-1.482-1.877-3.422-4.316-7.95-4.348
				C196.813,436.723,196.804,436.723,196.788,436.723"/>
		</defs>
		<use xlink:href="#SVGID_7_"  overflow="visible" fill="#949193"/>
		<clipPath id="SVGID_8_">
			<use xlink:href="#SVGID_7_"  overflow="visible"/>
		</clipPath>
	</g>
	<g>
		<defs>
			<path id="SVGID_9_" d="M196.788,436.723c-4.508,0-8.091,4.734-8.421,7.459l-1.049,0.484c0,0-1.583-2.072-5.088-0.635
				c-2.557,1.355-3.936,2.053-3.936,2.053s-0.924,0.322-2.273-0.539c-1.355-0.855-3.812-0.373-4.419,0.912
				c-0.616,1.291-0.563,1.773-0.563,1.773l-0.281,1.014l-1.026,0.271c0,0-0.355,0.131-0.712,0.375
				c-0.362,0.244-1.279,0.514-0.847,1.232c0.156,0.352,3.067,0.213,3.067,0.213h41.349c0,0,2.64-0.213,2.512-3.137
				c0-1.848-2.12-2.438-2.12-2.438s-2.174-6.061-8.206-4.691c-1.482-1.877-3.422-4.316-7.95-4.348
				C196.813,436.723,196.804,436.723,196.788,436.723"/>
		</defs>
		<use xlink:href="#SVGID_9_"  overflow="visible" fill="#949193"/>
		<clipPath id="SVGID_10_">
			<use xlink:href="#SVGID_9_"  overflow="visible"/>
		</clipPath>
	</g>
	<path fill-rule="evenodd" clip-rule="evenodd" fill="#020202" d="M217.359,451.346c0,0,1.733-0.16,1.65-2.346
		c0-1.383-1.402-1.82-1.402-1.82s-1.434-4.521-5.409-3.498c-0.98-1.408-2.257-3.227-5.243-3.244
		c-2.982-0.025-5.357,3.521-5.575,5.564l-0.691,0.359c0,0-1.045-1.545-3.354-0.473c-1.688,1.014-2.599,1.533-2.599,1.533
		s-0.606,0.238-1.496-0.404c-0.895-0.637-2.514-0.277-2.92,0.686c-0.401,0.961-0.366,1.316-0.366,1.316l-0.186,0.762l-0.675,0.201
		c0,0-0.237,0.104-0.478,0.283c-0.229,0.18-0.839,0.379-0.552,0.92c0.1,0.258,2.027,0.16,2.027,0.16H217.359z"/>
	<g>
		<defs>
			<path id="SVGID_11_" d="M201.38,446.002l-0.691,0.359c0,0-1.045-1.545-3.354-0.473c-1.688,1.014-2.599,1.533-2.599,1.533
				s-0.606,0.238-1.496-0.404c-0.895-0.637-2.514-0.277-2.92,0.686c-0.406,0.957-0.366,1.316-0.366,1.316l-0.186,0.766l-0.675,0.197
				c0,0-0.237,0.104-0.478,0.283c-0.234,0.18-0.839,0.379-0.552,0.92c0.104,0.258,2.021,0.16,2.021,0.16h27.273
				c0,0,1.733-0.16,1.65-2.346c0-1.377-1.402-1.82-1.402-1.82s-1.434-4.525-5.409-3.498c-0.98-1.408-2.257-3.227-5.243-3.244
				c-0.006,0-0.016,0-0.021,0C203.962,440.438,201.596,443.961,201.38,446.002"/>
		</defs>
		<clipPath id="SVGID_12_">
			<use xlink:href="#SVGID_11_"  overflow="visible"/>
		</clipPath>
	</g>
	<g>
		<defs>
			<path id="SVGID_13_" d="M206.935,440.438c-2.97,0-5.337,3.523-5.555,5.564l-0.691,0.359c0,0-1.045-1.545-3.354-0.473
				c-1.688,1.014-2.599,1.533-2.599,1.533s-0.606,0.238-1.496-0.404c-0.895-0.637-2.514-0.277-2.92,0.686
				c-0.406,0.957-0.366,1.316-0.366,1.316l-0.186,0.766l-0.675,0.197c0,0-0.237,0.104-0.478,0.283
				c-0.234,0.18-0.839,0.379-0.552,0.92c0.104,0.258,2.021,0.16,2.021,0.16h27.273c0,0,1.733-0.16,1.65-2.346
				c0-1.377-1.402-1.82-1.402-1.82s-1.434-4.525-5.409-3.498c-0.98-1.408-2.257-3.227-5.243-3.244
				C206.949,440.438,206.939,440.438,206.935,440.438"/>
		</defs>
		<clipPath id="SVGID_14_">
			<use xlink:href="#SVGID_13_"  overflow="visible"/>
		</clipPath>
	</g>
	<path fill="#020202" d="M171.811,400.391c0,0,4.523-1.094,7.482,1.273c0,0,0.813,0.412,1.105-1.531c0,0,0.984-4.006,5.165-6.684
		c0,0,1.276-0.361-0.292,1.709c0,0-3.424,3.588-3.018,5.781c0,0,3.363-2.064,0.292,0.764c0,0-1.485,4.895-3.616,0.877
		C178.93,402.58,176.8,400.391,171.811,400.391"/>
	<path fill-rule="evenodd" clip-rule="evenodd" fill="#020202" d="M172.706,450.881c-0.352,0-1.067-0.361-1.599-0.658
		c-0.771-0.492-1.259-0.922-1.259-0.922c-0.073-0.316-0.146-0.627-0.217-0.928l-1.125-7.559l0.109-0.918
		c-0.422-2.816-0.907-6.773-1.157-8.867c0.328-0.088,0.521-0.166,0.521-0.166c0-1.391,0.102-3.441,0.102-3.441
		c0.226-0.92,0.159-4.369,0.159-4.369c0.823-0.324,0.965-0.855,1.021-1.396c0.053-0.438-1.011-1.67-1.011-1.67
		c-0.396-0.455-1.511-2.195-1.511-2.195c-0.457-0.602-0.254-1.627-0.254-1.627c0.123-0.199,1.186-0.184,1.186-0.184
		c0.282-0.076,0.312-0.459,0.312-0.459c0.003-0.141-0.041-0.42-0.041-0.42c0.003-0.072,0.078-0.139,0.078-0.139
		c0.042-0.025,0.052-0.221,0.052-0.221c-0.03-0.037-0.14-0.061-0.14-0.061c0.14-0.016,0.224-0.059,0.224-0.059
		c0.078-0.029,0.089-0.111,0.089-0.111c-0.068-0.168,0.01-0.34,0.01-0.34c0.442,0.057,0.312-0.227,0.312-0.227
		c-0.495-0.795-0.567-0.959-0.567-0.959s0.08-0.381,0.072-0.625c0,0-0.155-0.732-0.356-1.137c0.156-0.615-0.654-0.883-0.654-0.883
		c-0.555-0.42-1.042-0.41-1.354-0.418c-1.264-0.037-1.896,0.445-2.188,1.09v-0.002c-0.084-0.172-0.145-0.074-0.145-0.074
		c-0.508-0.479-1.761-1.295-2.717,1.199c0,0-0.384,1.605,0.2,3.449c0.589,1.846,0.561,3.045-0.112,3.564
		c0,0,2.659,0.066,1.679-3.043c-0.881-2.797,0.033-4.346,0.755-4.514c0.043,0.1,0.159,0.033,0.159,0.033
		c-0.172,1.092,0.264,2.301,0.264,2.301c0.25,0.859,0.753,1.143,1.012,1.658c0.007,0.492-0.145,1.355-0.145,1.355
		s-0.648,0.168-1.148,1.529v-0.002l-0.005,0.004c-0.037,0.107-0.079,0.219-0.112,0.34c0,0-0.003,0.029-0.013,0.086
		c-0.212,0.648-0.621,1.793-1.059,3.143c-0.349,1.041-0.475,2.059-0.779,3.207c-0.195,0.725-0.244,1.605-0.394,2.279
		c-0.455,2.104-1.006,4.416-1.006,4.416c0.027,0.041,0.048,0.076,0.079,0.113c-0.737,0.82-0.774,1.84-0.774,1.84
		c-0.034,0.697,0.159,0.373,0.159,0.373c0.021,0.779,0.17,0.668,0.422,0.861c0.302,0.236,0.589-0.219,0.589-0.219
		c0.261-0.68,0.357-1.336,0.357-1.336c-0.073,0.617,0.231,0.719,0.231,0.719c0.128-0.746,0.067-1.07,0.067-1.07
		c-0.177-0.307-0.067-0.57-0.083-0.707c0.136,0.014,0.232,0,0.232,0c0.862-2.615,1.328-4.834,2.253-7.162
		c0.021,0.213,0.048,0.412,0.065,0.584c-0.054,0.455-0.092,0.908-0.112,1.344c-0.254,0.447-0.538,1-0.662,1.447
		c-0.354,1.328-0.268,1.799-0.268,1.799c0.036,0.018,0.067,0.031,0.097,0.045c-0.016,0.75,0.171,1.445,0.171,1.445
		c-0.028,0.201-0.046,0.777-0.051,1.518v1.043c0.005,2.023,0.051,4.469,0.051,4.469c-1.407,1.09-3.126,8.92-3.126,8.92
		c0.062,0.037,0.128,0.074,0.188,0.105c-0.092,0.303-0.178,0.553-0.242,0.725c-0.05,0.096-0.096,0.174-0.126,0.219
		c-0.008,0.012-0.013,0.025-0.022,0.033c-0.006,0.006-0.011,0.014-0.011,0.014c-0.114,0.18-0.2,0.391-0.198,0.635
		c0,0.361-0.01,1.082-0.01,1.082l0.281,0.135l0.109-0.539c0.186,0.092,0.965,0.928,0.965,0.928c1.214,0.982,2.021,0.59,2.021,0.59
		c0.031-0.139-0.032-0.389-0.032-0.389c-0.442-0.217-1.253-1.174-1.531-1.598c-0.229-0.408-0.3-0.82-0.323-1.029
		c0.065-0.143,0.161-0.357,0.281-0.627l3.82-7.885c0.414-0.564,0.671-1.174,0.828-1.705c0.36,1.297,0.467,2.639,0.467,2.639
		c0.795,5.047,2.238,7.602,2.238,7.602c0.088,0.002,0.172,0,0.25-0.012c0.104,0.289,0.169,0.508,0.203,0.625l0,0
		c-0.091,0.281-0.073,0.688,0.072,1.012c0.145,0.32,0.429,0.984,0.429,0.984h0.302l-0.115-0.539c0.207,0,1.246,0.422,1.246,0.422
		c1.496,0.35,2.156-0.17,2.156-0.17C172.868,451.086,172.706,450.881,172.706,450.881"/>
	<path fill-rule="evenodd" clip-rule="evenodd" fill="#818181" d="M160.851,434.938c0.345-0.146,0.086-0.592,0.086-0.592
		c-0.065-0.154-0.135-0.309-0.211-0.459c-0.047,0.252-0.14,0.619-0.292,1.025c0,0-0.078,0.115-0.188,0.195
		C160.606,435.299,160.689,435.014,160.851,434.938"/>
	<path fill-rule="evenodd" clip-rule="evenodd" fill="#818181" d="M162.985,451.508l-0.105-0.018c0,0,0.045-0.561-0.846-0.861
		c0,0-1.176-0.18-1.457-0.307c0,0-0.607-0.242-0.728-0.262c0,0-0.312-0.291-0.416-0.342c0,0-0.262,0.062-0.026,0.342
		c-0.224-0.176-0.35-0.281-0.354-0.289c-0.031-0.154,0.01-0.002-0.023-0.16c0.584-0.213,0.849-0.592,0.849-0.592l-2.159-8.73
		c0.047-0.822-0.683-6.297-1.053-8.996c0.197-0.061,0.391-0.129,0.592-0.223l0.08-0.668c0.709,1.246,1.285,2.207,1.285,2.207
		c0.044,0.01,0.086,0.012,0.133,0.016c0.029,0.951,0.525,1.746,0.688,1.977c-0.01-0.09-0.021-0.191-0.025-0.332
		c0,0-0.193,0.322-0.159-0.373c0,0,0.037-0.834,0.591-1.605c-0.03-0.016-0.078-0.041-0.099-0.059
		c0.102-0.096,0.159-0.172,0.159-0.172c-0.258-0.559-1.414-3.596-2.112-5.447c0.01-0.299,0.124-3.102-0.014-5.383
		c-0.05-0.764-1.409-2.939-1.932-3.742c-0.03-0.258-0.265-0.494-0.272-0.5c0.008-0.525,0.179-0.967,0.179-0.967
		c0.167-0.184,0.97-0.041,0.97-0.041c0.511-0.045,0.547-0.311,0.547-0.311c0.042-0.172,0.005-0.566,0.005-0.566
		c-0.018-0.127,0.079-0.188,0.079-0.188c0.126-0.107,0.058-0.277,0.058-0.277c0.104,0.016,0.125-0.145,0.125-0.145
		c-0.109-0.225-0.014-0.359-0.014-0.359c0.529-0.072,0.371-0.361,0.371-0.361c-0.193-0.303-0.509-0.994-0.509-0.994
		s-0.029-0.207,0.07-0.541c0,0-0.044-0.705-0.164-1.164c0.25-0.531-0.317-0.941-0.317-0.941c-0.401-0.434-0.865-0.465-0.865-0.465
		c-1.136-0.557-2.039,0.256-2.039,0.256c-1.229,0.18-1.299,1.033-1.299,1.033c-1.092,2.125,0.915,4.127,0.915,4.127
		c0,0.252-0.089,0.688-0.162,1.031c-0.274,0.141-0.308,0.352-0.308,0.352c-0.271,0.154-0.826,0.617-1.126,1.908
		c-0.737,2.248-1.264,6.266-1.264,6.266c0.045,1.264,0.362,3.445,0.633,5.141c-0.023,0.068-0.041,0.131-0.067,0.193
		c0,0,0.039,0.033,0.115,0.098c0.197,1.234,0.365,2.148,0.383,2.188c0.099,3.732-0.347,6.938-0.347,6.938
		c-1.428,1.102-3.518,9.18-3.518,9.18c0.233,0.25,0.5,0.422,0.764,0.535c-0.028,0.082-0.053,0.16-0.076,0.223
		c-0.018-0.02-0.036-0.031-0.053-0.053l-0.208,0.021l-0.096,0.398c0,0-0.292,0.432-0.309,0.867L148,450.721
		c0,0,0.734,0.498,1.168,0.586c0,0,0.354-0.326,1.091,0.408c0,0,1.71,0.395,2.404,0.402l0.038-0.289l-0.092-0.062
		c0,0,0.252-0.496-0.462-1.137c0,0-1.079-0.199-1.292-0.432c0,0-0.471-0.475-0.572-0.539c0,0-0.178-0.391-0.256-0.486
		c0,0-0.089-0.01-0.125-0.037c0.391,0.002,0.665-0.062,0.665-0.062l3.396-8.354c0.362-0.488,0.604-1.018,0.769-1.494
		c0.355,1.236,0.548,2.447,0.548,2.447c0.974,4.998,2.145,8.002,2.145,8.002c0.172,0.039,0.333,0.059,0.484,0.078
		c0.102,0.303,0.089,0.211,0.114,0.297c0.014,0.061,0.026,0.117,0.036,0.158l-0.185,0.105l0.061,0.408c0,0-0.107,0.521,0.045,0.928
		l0.071,0.344c0,0,0.949,0.133,1.382,0.043c0,0,0.208-0.451,1.162-0.076c0,0,1.824,0.107,2.465-0.17L162.985,451.508z"/>
</g>
</svg>
