<?xml version="1.0" encoding="utf-8"?>
<!-- Generator: Adobe Illustrator 16.0.0, SVG Export Plug-In . SVG Version: 6.00 Build 0)  -->
<!DOCTYPE svg PUBLIC "-//W3C//DTD SVG 1.1//EN" "http://www.w3.org/Graphics/SVG/1.1/DTD/svg11.dtd">
<svg version="1.1" id="Layer_1" xmlns="http://www.w3.org/2000/svg" xmlns:xlink="http://www.w3.org/1999/xlink" x="0px" y="0px"
	 width="33.9px" height="37.1px" viewBox="0 0 33.9 37.1" enable-background="new 0 0 33.9 37.1" xml:space="preserve">
<g>
	<path fill="#7A777A" d="M24.403,8.43c0,0.58,0.471,1.053,1.051,1.053h7.77c-0.159-0.264-0.336-0.502-0.532-0.697l-7.59-7.591
		c-0.196-0.196-0.437-0.374-0.698-0.532V8.43z"/>
	<path fill="#7A777A" d="M25.454,11.458c-1.669,0-3.026-1.359-3.026-3.028V0.014C22.358,0.009,22.287,0,22.219,0H2.382
		C1.068,0,0,1.069,0,2.383v32.316c0,1.312,1.068,2.383,2.382,2.383h29.123c1.313,0,2.381-1.07,2.381-2.383V11.666
		c0-0.068-0.007-0.139-0.012-0.208H25.454z"/>
</g>
<g>
	<g>
		<path fill="#FFFFFF" d="M7.784,24.81c0-2.328,0-4.656,0-6.996c1.01,0,2.049,0,3.078,0c3.349,0.01,3.349,5.207,0,5.207H9.573v1.789
			C8.973,24.81,8.374,24.81,7.784,24.81z M10.852,19.413c-0.42-0.01-0.87,0-1.279,0c0,0.571,0,1.43,0,1.999h1.279
			C11.832,21.411,11.891,19.423,10.852,19.413z"/>
		<path fill="#FFFFFF" d="M17.362,24.81h-2.639v-6.996h2.639C21.92,17.833,21.92,24.79,17.362,24.81z M16.512,23.181h0.85
			c2.228,0,2.228-3.738,0-3.738h-0.85V23.181z"/>
		<path fill="#FFFFFF" d="M23.963,22.542v2.268c-0.602,0-1.211,0-1.82,0v-6.996c1.43,0,2.93,0,4.357,0c0,0.59,0,0.999,0,1.599
			h-2.537v1.53h2.248c0,0.6,0,0.979,0,1.6H23.963z"/>
	</g>
</g>
</svg>
