<?xml version="1.0" encoding="utf-8"?>
<!-- Generator: Adobe Illustrator 16.0.0, SVG Export Plug-In . SVG Version: 6.00 Build 0)  -->
<!DOCTYPE svg PUBLIC "-//W3C//DTD SVG 1.1//EN" "http://www.w3.org/Graphics/SVG/1.1/DTD/svg11.dtd">
<svg version="1.1" id="Layer_1" xmlns="http://www.w3.org/2000/svg" xmlns:xlink="http://www.w3.org/1999/xlink" x="0px" y="0px"
	 width="42.8px" height="29.7px" viewBox="0 0 42.8 29.7" enable-background="new 0 0 42.8 29.7" xml:space="preserve">
<path fill-rule="evenodd" clip-rule="evenodd" fill="#FFFFFF" d="M20.642,10.771c1.367-4.271,3.041-7.037,4.963-9.045
	c1.437-1.496,2.179-1.969,1.336-0.323c0.371-0.298,0.904-0.694,1.32-0.906c2.329-1.097,2.163-0.177,0.559,0.81
	c4.379-1.566,4.229,0.427-0.402,1.421c3.784,0.073,7.81,2.48,8.967,7.604c0.162,0.709-0.03,0.642,0.696,0.77
	c1.566,0.276,3.042,0.259,4.479-0.196c-0.156,1.06-1.558,1.748-3.739,2.203c-0.812,0.169-0.978,0.125-0.005,0.342
	c1.192,0.271,2.527,0.338,3.943,0.273c-1.102,1.267-2.855,1.914-5.024,1.941c-1.358,4.953-4.46,8.5-8.382,10.729
	C20.137,31.623,6.724,30.864,0,21.36c4.413,3.462,10.95,4.227,15.809-0.601c-3.182,0-4.007-2.383-1.483-3.67
	c-2.39-0.023-3.906-0.779-4.797-2.147c-0.338-0.519-0.342-0.559,0.21-0.958c0.603-0.438,1.432-0.633,2.286-0.697
	c-2.471-0.708-3.982-2.001-4.506-3.732C7.346,8.983,7.317,9.012,7.899,8.863c0.572-0.146,1.304-0.222,1.964-0.256
	C7.92,7.432,6.758,5.989,6.464,4.393c-0.277-1.508,0.01-1.12,1.139-0.688C12.642,5.634,17.667,7.704,20.642,10.771L20.642,10.771z"
	/>
</svg>
