<?xml version="1.0" encoding="utf-8"?>
<!-- Generator: Adobe Illustrator 16.0.0, SVG Export Plug-In . SVG Version: 6.00 Build 0)  -->
<!DOCTYPE svg PUBLIC "-//W3C//DTD SVG 1.1//EN" "http://www.w3.org/Graphics/SVG/1.1/DTD/svg11.dtd">
<svg version="1.1" id="Layer_1" xmlns="http://www.w3.org/2000/svg" xmlns:xlink="http://www.w3.org/1999/xlink" x="0px" y="0px"
	 width="419.53px" height="595.28px" viewBox="0 0 419.53 595.28" enable-background="new 0 0 419.53 595.28" xml:space="preserve">
<g>
	<path fill="#FFFFFF" d="M197.369,305.908c-0.72,0-1.217-0.293-1.441-0.918c-0.122-0.375-0.196-0.962-0.196-1.834V293.4h2.228v9.084
		c0,0.523,0,0.795,0.026,0.869c0.051,0.346,0.224,0.523,0.524,0.523c0.448,0,0.916-0.347,1.412-1.047v-9.43h2.234v12.336h-2.234
		v-1.345C199.032,305.411,198.183,305.908,197.369,305.908L197.369,305.908z M190.589,305.908c-1.113,0-1.982-0.423-2.603-1.265
		c-0.475-0.615-0.7-1.59-0.7-2.9v-4.319c0-1.318,0.226-2.283,0.7-2.908c0.62-0.844,1.489-1.264,2.603-1.264
		c1.12,0,1.989,0.42,2.608,1.264c0.469,0.625,0.693,1.59,0.693,2.908v4.319c0,1.311-0.225,2.285-0.693,2.9
		C192.578,305.485,191.709,305.908,190.589,305.908L190.589,305.908z M190.589,295.265c-0.721,0-1.067,0.569-1.067,1.71v5.19
		c0,1.142,0.347,1.712,1.067,1.712c0.723,0,1.066-0.57,1.066-1.712v-5.19C191.655,295.834,191.312,295.265,190.589,295.265
		L190.589,295.265z M184.285,305.736h-2.479v-6.704c-0.226-1.187-0.721-2.927-1.516-5.235c-0.522-1.537-1.067-3.078-1.59-4.614
		h2.609l1.759,6.502l1.69-6.502h2.507l-2.981,9.85V305.736L184.285,305.736z"/>
	<g>
		<path fill-rule="evenodd" clip-rule="evenodd" fill="#FFFFFF" d="M234.691,295.106c-0.739,0-1.108,0.562-1.108,1.691v1.13h2.213
			v-1.13C235.796,295.669,235.425,295.106,234.691,295.106z"/>
		<path fill-rule="evenodd" clip-rule="evenodd" fill="#FFFFFF" d="M240.171,288.833c-0.453-1.952-2.049-3.394-3.975-3.609
			c-4.556-0.509-9.169-0.511-13.759-0.509c-4.593-0.002-9.203,0-13.76,0.509c-1.927,0.216-3.523,1.657-3.972,3.609
			c-0.641,2.786-0.648,5.821-0.648,8.688c0,2.864,0,5.902,0.642,8.685c0.447,1.956,2.046,3.396,3.97,3.611
			c4.556,0.509,9.168,0.512,13.762,0.509c4.589,0.003,9.201,0,13.759-0.509c1.923-0.215,3.524-1.655,3.972-3.611
			c0.64-2.782,0.645-5.82,0.645-8.685C240.806,294.654,240.81,291.619,240.171,288.833z M214.571,291.394h-2.648v14.075h-2.461
			v-14.075h-2.604v-2.306h7.713V291.394z M221.254,305.469h-2.212v-1.331c-0.882,1.01-1.714,1.499-2.529,1.499
			c-0.712,0-1.202-0.289-1.424-0.906c-0.122-0.37-0.195-0.954-0.195-1.814v-9.652h2.211v8.985c0,0.52,0,0.788,0.021,0.86
			c0.053,0.343,0.221,0.518,0.516,0.518c0.446,0,0.909-0.342,1.4-1.034v-9.329h2.212V305.469z M229.657,301.806
			c0,1.129-0.076,1.942-0.223,2.46c-0.295,0.907-0.887,1.371-1.77,1.371c-0.785,0-1.546-0.436-2.285-1.35v1.182h-2.209v-16.381
			h2.209v5.349c0.714-0.879,1.473-1.321,2.285-1.321c0.883,0,1.475,0.463,1.77,1.375c0.146,0.492,0.223,1.299,0.223,2.456V301.806z
			 M238.005,299.77h-4.422v2.163c0,1.132,0.369,1.694,1.128,1.694c0.545,0,0.862-0.296,0.988-0.886
			c0.02-0.122,0.049-0.612,0.049-1.5h2.257v0.324c0,0.712-0.026,1.203-0.046,1.423c-0.075,0.492-0.25,0.935-0.52,1.326
			c-0.612,0.887-1.519,1.322-2.673,1.322c-1.156,0-2.037-0.414-2.678-1.25c-0.47-0.61-0.711-1.572-0.711-2.87v-4.274
			c0-1.305,0.213-2.26,0.685-2.878c0.64-0.835,1.521-1.249,2.648-1.249c1.11,0,1.989,0.414,2.61,1.249
			c0.463,0.618,0.684,1.573,0.684,2.878V299.77z"/>
		<path fill-rule="evenodd" clip-rule="evenodd" fill="#FFFFFF" d="M226.481,295.106c-0.362,0-0.73,0.17-1.102,0.537v7.44
			c0.371,0.368,0.739,0.543,1.102,0.543c0.64,0,0.966-0.543,0.966-1.646v-5.209C227.447,295.669,227.121,295.106,226.481,295.106z"
			/>
	</g>
</g>
</svg>
