<?xml version="1.0" encoding="utf-8"?>
<!-- Generator: Adobe Illustrator 16.0.0, SVG Export Plug-In . SVG Version: 6.00 Build 0)  -->
<!DOCTYPE svg PUBLIC "-//W3C//DTD SVG 1.1//EN" "http://www.w3.org/Graphics/SVG/1.1/DTD/svg11.dtd">
<svg version="1.1" id="Layer_1" xmlns="http://www.w3.org/2000/svg" xmlns:xlink="http://www.w3.org/1999/xlink" x="0px" y="0px"
	 width="62.2px" height="25.7px" viewBox="0 0 62.2 25.7" enable-background="new 0 0 62.2 25.7" xml:space="preserve">
<g>
	<path fill="#FFFFFF" d="M18.668,21.193c-0.72,0-1.217-0.293-1.441-0.918c-0.122-0.375-0.196-0.962-0.196-1.834V8.686h2.228v9.084
		c0,0.523,0,0.795,0.026,0.869c0.051,0.346,0.224,0.523,0.524,0.523c0.448,0,0.916-0.347,1.412-1.047v-9.43h2.234v12.336h-2.234
		v-1.345C20.331,20.696,19.481,21.193,18.668,21.193L18.668,21.193z M11.888,21.193c-1.113,0-1.982-0.423-2.603-1.265
		c-0.475-0.615-0.7-1.59-0.7-2.9v-4.319c0-1.318,0.226-2.283,0.7-2.908c0.62-0.844,1.489-1.264,2.603-1.264
		c1.12,0,1.989,0.42,2.608,1.264c0.469,0.625,0.693,1.59,0.693,2.908v4.319c0,1.311-0.225,2.285-0.693,2.9
		C13.877,20.771,13.008,21.193,11.888,21.193L11.888,21.193z M11.888,10.55c-0.721,0-1.067,0.569-1.067,1.71v5.19
		c0,1.142,0.347,1.712,1.067,1.712c0.723,0,1.066-0.57,1.066-1.712v-5.19C12.954,11.119,12.61,10.55,11.888,10.55L11.888,10.55z
		 M5.584,21.021H3.105v-6.704C2.88,13.131,2.385,11.391,1.59,9.082C1.067,7.545,0.522,6.004,0,4.468h2.609l1.759,6.502l1.69-6.502
		h2.507l-2.981,9.85V21.021L5.584,21.021z"/>
	<g>
		<path fill-rule="evenodd" clip-rule="evenodd" fill="#FFFFFF" d="M55.99,10.392c-0.739,0-1.108,0.562-1.108,1.691v1.13h2.213
			v-1.13C57.095,10.954,56.724,10.392,55.99,10.392z"/>
		<path fill-rule="evenodd" clip-rule="evenodd" fill="#FFFFFF" d="M61.47,4.118c-0.453-1.952-2.049-3.394-3.975-3.609
			C52.939,0,48.326-0.002,43.736,0c-4.593-0.002-9.203,0-13.76,0.509c-1.927,0.216-3.523,1.657-3.972,3.609
			c-0.641,2.786-0.648,5.821-0.648,8.688c0,2.864,0,5.902,0.642,8.685c0.447,1.956,2.046,3.396,3.97,3.611
			c4.556,0.509,9.168,0.512,13.762,0.509c4.589,0.003,9.201,0,13.759-0.509c1.923-0.215,3.524-1.655,3.972-3.611
			c0.64-2.782,0.645-5.82,0.645-8.685C62.104,9.939,62.108,6.904,61.47,4.118z M35.87,6.679h-2.648v14.075h-2.461V6.679h-2.604
			V4.373h7.713V6.679z M42.553,20.754h-2.212v-1.331c-0.882,1.01-1.714,1.499-2.529,1.499c-0.712,0-1.202-0.289-1.424-0.906
			c-0.122-0.37-0.195-0.954-0.195-1.814V8.549h2.211v8.985c0,0.52,0,0.788,0.021,0.86c0.053,0.343,0.221,0.518,0.516,0.518
			c0.446,0,0.909-0.342,1.4-1.034V8.549h2.212V20.754z M50.956,17.091c0,1.129-0.076,1.942-0.223,2.46
			c-0.295,0.907-0.887,1.371-1.77,1.371c-0.785,0-1.546-0.436-2.285-1.35v1.182H44.47V4.373h2.209v5.349
			C47.393,8.843,48.151,8.4,48.964,8.4c0.883,0,1.475,0.463,1.77,1.375c0.146,0.492,0.223,1.299,0.223,2.456V17.091z M59.304,15.055
			h-4.422v2.163c0,1.132,0.369,1.694,1.128,1.694c0.545,0,0.862-0.296,0.988-0.886c0.02-0.122,0.049-0.612,0.049-1.5h2.257v0.324
			c0,0.712-0.026,1.203-0.046,1.423c-0.075,0.492-0.25,0.935-0.52,1.326c-0.612,0.887-1.519,1.322-2.673,1.322
			c-1.156,0-2.037-0.414-2.678-1.25c-0.47-0.61-0.711-1.572-0.711-2.87v-4.274c0-1.305,0.213-2.26,0.685-2.878
			C54.001,8.814,54.882,8.4,56.01,8.4c1.11,0,1.989,0.414,2.61,1.249c0.463,0.618,0.684,1.573,0.684,2.878V15.055z"/>
		<path fill-rule="evenodd" clip-rule="evenodd" fill="#FFFFFF" d="M47.78,10.392c-0.362,0-0.73,0.17-1.102,0.537v7.44
			c0.371,0.368,0.739,0.543,1.102,0.543c0.64,0,0.966-0.543,0.966-1.646v-5.209C48.746,10.954,48.42,10.392,47.78,10.392z"/>
	</g>
</g>
</svg>
