<?xml version="1.0" encoding="utf-8"?>
<!-- Generator: Adobe Illustrator 16.0.0, SVG Export Plug-In . SVG Version: 6.00 Build 0)  -->
<!DOCTYPE svg PUBLIC "-//W3C//DTD SVG 1.1//EN" "http://www.w3.org/Graphics/SVG/1.1/DTD/svg11.dtd">
<svg version="1.1" id="Layer_1" xmlns="http://www.w3.org/2000/svg" xmlns:xlink="http://www.w3.org/1999/xlink" x="0px" y="0px"
	 width="419.53px" height="595.28px" viewBox="0 0 419.53 595.28" enable-background="new 0 0 419.53 595.28" xml:space="preserve">
<path fill-rule="evenodd" clip-rule="evenodd" fill="#FFFFFF" d="M202.116,286.99h15.394c1.464,0,2.66,1.195,2.66,2.659v15.394
	c0,1.462-1.196,2.658-2.66,2.658h-15.394c-1.462,0-2.656-1.196-2.656-2.658v-15.394C199.46,288.186,200.654,286.99,202.116,286.99
	L202.116,286.99z M214.545,289.291L214.545,289.291c-0.513,0-0.933,0.419-0.933,0.932v2.234c0,0.511,0.42,0.932,0.933,0.932h2.341
	c0.514,0,0.934-0.421,0.934-0.932v-2.234c0-0.513-0.42-0.932-0.934-0.932H214.545L214.545,289.291z M217.828,295.75L217.828,295.75
	h-1.823c0.172,0.562,0.267,1.157,0.267,1.776c0,3.444-2.884,6.238-6.438,6.238s-6.438-2.794-6.438-6.238
	c0-0.619,0.094-1.215,0.265-1.776h-1.9v8.747c0,0.453,0.37,0.823,0.823,0.823h14.422c0.451,0,0.823-0.37,0.823-0.823V295.75
	L217.828,295.75z M209.833,293.271L209.833,293.271c-2.296,0-4.159,1.804-4.159,4.03c0,2.226,1.863,4.029,4.159,4.029
	c2.298,0,4.159-1.804,4.159-4.029C213.992,295.074,212.131,293.271,209.833,293.271L209.833,293.271z"/>
</svg>
