<?xml version="1.0" encoding="utf-8"?>
<!-- Generator: Adobe Illustrator 16.0.0, SVG Export Plug-In . SVG Version: 6.00 Build 0)  -->
<!DOCTYPE svg PUBLIC "-//W3C//DTD SVG 1.1//EN" "http://www.w3.org/Graphics/SVG/1.1/DTD/svg11.dtd">
<svg version="1.1" id="Layer_1" xmlns="http://www.w3.org/2000/svg" xmlns:xlink="http://www.w3.org/1999/xlink" x="0px" y="0px"
	 width="206.4px" height="79.2px" viewBox="0 0 206.4 79.2" enable-background="new 0 0 206.4 79.2" xml:space="preserve">
<g>
	<g>
		<path fill="#020202" d="M13.509,16.703H5.587l-1.119,2.641H0L7.924,1.47h3.554l7.82,17.874h-4.672L13.509,16.703z M11.984,13.15
			L9.546,7.386L7.11,13.15H11.984z"/>
		<path fill="#020202" d="M20.668,10.408c0-5.232,3.656-9.244,8.937-9.244c5.283,0,8.305,3.378,8.914,7.211h-4.571
			c-0.534-1.623-1.955-3.146-4.24-3.146c-2.946,0-4.47,2.31-4.47,5.18c0,2.869,1.5,5.179,4.47,5.179
			c2.488,0,3.733-1.295,4.343-3.249h4.521c-0.534,3.756-3.53,7.312-9.065,7.312C24.225,19.649,20.668,15.637,20.668,10.408z"/>
		<path fill="#020202" d="M41.844,10.408c0-5.232,3.657-9.244,8.938-9.244s8.304,3.378,8.912,7.211h-4.571
			c-0.533-1.623-1.953-3.146-4.241-3.146c-2.942,0-4.466,2.31-4.466,5.18c0,2.869,1.496,5.179,4.466,5.179
			c2.49,0,3.733-1.295,4.343-3.249h4.521c-0.534,3.756-3.527,7.312-9.069,7.312C45.399,19.649,41.844,15.637,41.844,10.408z"/>
		<path fill="#6D6B6D" d="M63.02,10.408c0-5.205,4.468-9.244,9.749-9.244s9.75,4.012,9.75,9.244c0,5.229-4.469,9.241-9.75,9.241
			S63.02,15.637,63.02,10.408z M77.949,10.408c0-2.896-2.386-5.18-5.181-5.18c-2.793,0-5.178,2.336-5.178,5.18
			c0,2.895,2.385,5.179,5.178,5.179C75.563,15.587,77.949,13.303,77.949,10.408z"/>
		<path fill="#020202" d="M104.508,15.383v7.925h-2.845l-0.914-3.964H86.53V1.47h4.367v13.913h6.904V1.47h4.371v13.913H104.508z"/>
		<path fill="#020202" d="M123.956,19.344h-4.367V9.492l-8.535,9.852h-2.638V1.47h4.369v10.257l8.632-10.257h2.539V19.344z"/>
		<path fill="#020202" d="M140.766,16.703h-7.923l-1.116,2.641h-4.469l7.92-17.874h3.556l7.819,17.874h-4.669L140.766,16.703z
			 M139.241,13.15l-2.437-5.765l-2.439,5.765H139.241z"/>
		<path fill="#020202" d="M167.805,15.383v7.925h-2.844l-0.911-3.964h-14.221V1.47h4.367v13.913h6.906V1.47h4.366v13.913H167.805z"
			/>
		<path fill="#020202" d="M187.255,19.344h-4.367V9.492l-8.533,9.852h-2.64V1.47h4.365v10.257l8.634-10.257h2.541V19.344z"/>
		<path fill="#020202" d="M206.399,19.344h-4.37v-5.89h-2.334l-3.76,5.89h-5.18l4.47-6.702c-2.109-0.94-3.354-2.845-3.354-5.179
			c0-3.453,2.541-5.993,6.196-5.993h8.331V19.344z M202.029,9.695V5.33h-3.25c-1.319,0-2.335,0.812-2.335,2.133
			s0.913,2.232,2.335,2.232H202.029z"/>
	</g>
	<g>
		<path fill="#020202" d="M21.697,52.547h-5.709V34.351H6.689v18.196H0.979V29.17h20.719V52.547z"/>
		<path fill="#020202" d="M40.692,49.094H30.331l-1.461,3.453h-5.843L33.386,29.17h4.65l10.227,23.377h-6.109L40.692,49.094z
			 M38.699,44.445l-3.189-7.537l-3.184,7.537H38.699z"/>
		<path fill="#020202" d="M68.054,37.008c0,4.249-3.155,7.702-8.104,7.702h-4.648v7.837H49.59V29.17h10.36
			C64.766,29.17,68.054,32.557,68.054,37.008z M62.075,37.008c0-1.761-1.36-2.79-3.056-2.79h-3.718v5.71h3.718
			C60.813,39.928,62.075,38.766,62.075,37.008z"/>
		<path fill="#020202" d="M92.228,52.547h-7.041l-7.039-9.297h-1.86v9.297h-5.712V29.17h5.712v9.299h1.993l6.906-9.299h6.508
			l-8.865,11.49L92.228,52.547z"/>
		<path fill="#020202" d="M90.532,40.859c0-6.809,5.843-12.088,12.751-12.088c6.907,0,12.752,5.246,12.752,12.088
			c0,6.84-5.845,12.084-12.752,12.084C96.375,52.943,90.532,47.699,90.532,40.859z M110.059,40.859c0-3.787-3.122-6.774-6.775-6.774
			c-3.651,0-6.772,3.056-6.772,6.774c0,3.783,3.121,6.775,6.772,6.775C106.937,47.635,110.059,44.643,110.059,40.859z"/>
		<path fill="#020202" d="M137.949,45.242c0,4.581-3.421,7.305-8.232,7.305h-11.424V29.17h11.289c3.722,0,7.304,2.324,7.304,6.512
			c0,1.791-0.959,3.084-2.322,4.082C136.653,40.893,137.949,42.885,137.949,45.242z M124.005,34.085V38.6h4.779
			c1.429,0,2.394-0.896,2.394-2.258c0-1.227-0.965-2.257-2.394-2.257H124.005z M131.972,45.375c0-1.195-1.095-2.258-2.52-2.258
			h-5.447v4.518h5.447C130.877,47.635,131.972,46.768,131.972,45.375z"/>
	</g>
	<path fill="#6D6B6D" d="M205.386,61.58c-0.292,0-55.748,0.135-106.349,0.251c0.305,0.393,0.611,0.786,0.914,1.183
		c2.12,0.241,4.158,0.751,6.153,1.562c6.037,2.455,12.157,4.79,18.28,7.105c5.635,2.127,11.37,4.06,17.349,5.52
		c7.49,1.821,15.004,2.056,22.456,0.019c4.301-1.175,8.557-2.512,12.695-4.012c8.866-3.221,27.771-10.479,28.508-10.663
		C205.938,62.409,206.089,61.58,205.386,61.58"/>
	<path fill="#020202" d="M162.571,61.083c0.461-2.343,0.414-2.549-0.961-3.678c-0.476,1.116-0.878,2.181-0.648,3.399
		c0.24,1.293,0.044,1.588-1.193,1.795c-0.756,0.129-1.517,0.256-2.277,0.296c-0.357,0.019-0.726-0.169-1.089-0.262
		c0.017-0.09,0.03-0.179,0.044-0.271c0.151-0.081,0.301-0.181,0.458-0.245c0.993-0.392,1.762-1.477,1.779-2.549
		c0.015-1.216,0.065-2.437,0.011-3.65c-0.014-0.316-0.29-0.738-0.568-0.9c-1.211-0.726-1.753-1.54-1.568-3.129
		c0.271-2.312,0.793-4.548,1.397-6.737c-0.107-0.098-0.144-0.156-0.196-0.172c-1.831-0.56-1.864-0.651-0.801-2.344
		c0.161-0.254,0.358-0.486,0.531-0.717c-1.808-1.179-0.643-2.827-0.694-4.28c-0.691,0.206-1.379,0.409-2.133,0.632
		c-0.183-1.271,1.226-0.842,1.589-1.543c0.344-0.652,0.906-1.19,1.459-1.889c-0.201-0.732-0.397-1.701,0.455-2.35
		c0.274-0.212,1.158-0.125,1.322,0.118c0.346,0.534,0.413,1.254,0.597,1.894c-0.096,0.04-0.189,0.082-0.283,0.119
		c0.209,0.107,0.413,0.216,0.731,0.381c0.045-0.475,0.086-0.859,0.121-1.239c0.074-0.729,0.115-1.42,0.859-1.904
		c0.767-0.499,1.395-0.376,1.99,0.175c0.768,0.709,0.996,1.748,0.469,2.378c-0.567,0.678-0.604,1.072,0.172,1.692
		c0.512,0.409,0.91,1.243,0.944,1.906c0.061,1.199-0.153,2.422-0.323,3.621c-0.144,1.022-0.347,2.039-0.598,3.041
		c-0.297,1.189-0.697,2.346-0.999,3.53c-0.245,0.967-0.409,1.958-0.607,2.938c-0.169,0.838-0.261,1.702-0.529,2.507
		c-0.192,0.578-0.086,0.946,0.384,1.223c0.434,0.254,0.888,0.507,1.366,0.634c0.779,0.202,1.433,1.007,1.18,1.761
		c-0.348,1.046-0.777,2.066-1.295,3.035C163.479,60.654,162.946,60.825,162.571,61.083"/>
	<path fill="#6D6B6D" d="M83.812,10.671c0,5.894-4.774,10.673-10.67,10.673c-5.891,0-10.671-4.779-10.671-10.673S67.252,0,73.143,0
		C79.038,0,83.812,4.777,83.812,10.671"/>
	<path fill="#020202" d="M136.769,54.013c-0.059-0.083-0.267-0.335-0.475-0.372l-0.188-0.029c-0.689-0.112-1.842-0.291-2.195-1.709
		c-0.315-1.266,0.142-2.021,0.537-2.684c0.286-0.47,0.527-0.873,0.527-1.437l0.597,0.002c-0.004,0.726-0.312,1.239-0.612,1.74
		c-0.374,0.621-0.729,1.208-0.474,2.232c0.261,1.042,1.064,1.164,1.711,1.267l0.204,0.033c0.494,0.091,0.825,0.573,0.862,0.629
		L136.769,54.013z"/>
	<path fill="none" stroke="#E1DFE1" stroke-width="0.4085" stroke-miterlimit="10" d="M136.769,54.013
		c-0.059-0.083-0.267-0.335-0.475-0.372l-0.188-0.029c-0.689-0.112-1.842-0.291-2.195-1.709c-0.315-1.266,0.142-2.021,0.537-2.684
		c0.286-0.47,0.527-0.873,0.527-1.437l0.597,0.002c-0.004,0.726-0.312,1.239-0.612,1.74c-0.374,0.621-0.729,1.208-0.474,2.232
		c0.261,1.042,1.064,1.164,1.711,1.267l0.204,0.033c0.494,0.091,0.825,0.573,0.862,0.629L136.769,54.013z"/>
	<path fill="#020202" d="M134.848,48.674c-0.061-0.104-0.118-0.221-0.182-0.339c-0.138-0.256-0.28-0.523-0.451-0.753
		c-1.092-1.446-1.169-3.014-0.212-4.408c0.51-0.751,1.151-1.134,1.9-1.134c0.19,0,0.387,0.029,0.591,0.077
		c1.051,0.254,1.832,1.123,1.942,2.158c0.203,1.896-0.758,3.44-2.571,4.143c-0.061,0.023-0.16,0.146-0.215,0.213
		c-0.047,0.058-0.088,0.107-0.124,0.141l-0.4,0.383L134.848,48.674z"/>
	<path fill="#E1DFE1" d="M135.903,42.477c0.156,0,0.315,0.02,0.489,0.064c0.865,0.208,1.52,0.919,1.61,1.782
		c0.184,1.696-0.688,3.065-2.294,3.686c-0.23,0.092-0.392,0.359-0.483,0.447c-0.194-0.335-0.387-0.768-0.664-1.138
		c-0.977-1.291-1.066-2.632-0.2-3.902C134.756,42.843,135.248,42.477,135.903,42.477 M135.903,41.607L135.903,41.607
		c-0.905,0-1.665,0.445-2.261,1.32c-1.066,1.562-0.989,3.31,0.225,4.917c0.152,0.201,0.284,0.451,0.413,0.694
		c0.065,0.125,0.131,0.243,0.192,0.354l0.556,0.96l0.801-0.769c0.04-0.04,0.1-0.104,0.158-0.18c0.024-0.031,0.062-0.076,0.086-0.104
		c1.946-0.771,3.018-2.52,2.797-4.573c-0.129-1.214-1.045-2.23-2.273-2.532C136.362,41.635,136.127,41.607,135.903,41.607"/>
	<path fill="#020202" d="M139.524,48.826c-0.908-0.306-1.151-0.768-1.068-1.545c0.044-0.405-0.111-0.925-0.286-1.376
		c0.586-0.212,0.992-0.466,1.621-0.541c0.449-0.058,1.168,0.075,1.353,0.374c0.254,0.418,0.169,1.079,0.135,1.63
		c-0.021,0.379-0.2,0.753-0.311,1.129c0.745,0.181,1.517,0.556,2.232,0.47c0.496-0.058,0.745-0.74,0.8-1.459
		c0.104-1.505,0.375-3.019,0.779-4.468c0.427-1.523,1.082-2.979,1.659-4.459c0.404-1.048,1.149-1.628,2.414-1.584
		c-0.857-0.387-0.658-0.938-0.45-1.528c0.123-0.338,0.196-0.717,0.185-1.074c-0.017-0.615,0.141-1.044,0.746-1.326
		c0.616-0.287,1.093-0.248,1.546,0.28c0.255,0.3,0.592,0.528,0.846,0.831c0.118,0.142,0.221,0.414,0.167,0.568
		c-0.253,0.726-0.562,1.43-0.845,2.133c1.414,1.17,2.246,2.565,2.21,4.448c-0.021,0.904,0.204,1.815,0.318,2.724
		c0.069,0.543,0.116,1.092,0.203,1.632c0.14,0.862,0.257,1.733,0.475,2.58c0.217,0.844,0.028,1.484-0.849,2.17
		c-0.144-0.675-0.287-1.201-0.364-1.735c-0.303-2.042-0.587-4.09-1.033-6.112c-0.554,1.195-0.042,2.287,0.171,3.416
		c0.216,1.139,0.153,2.337,0.429,3.455c0.284,1.142,0.833,2.216,1.298,3.405c-1.215,0.216-2.317,0.415-3.5,0.623
		c0.029-0.096-0.021-0.004-0.002,0.015c1.036,1.027,1.363,2.399,1.919,3.68c0.372,0.853,1.186,1.507,1.781,2.271
		c0.146,0.187,0.293,0.442,0.291,0.667c-0.006,0.47-0.114,0.939-0.205,1.599c-0.177-0.445-0.29-0.728-0.453-1.133
		c-0.8,0.721-0.781,2.551-2.529,1.689c0.747-0.906,1.192-2.002,0.737-3.149c-0.423-1.062-1.104-2.019-1.775-3.21
		c-0.557,1.466-1.082,2.659-1.454,3.904c-0.172,0.574,0.339,1.182-0.033,1.886c-0.507,0.954-0.661,1.138-2.026,0.842
		c1.189-2.894,2.048-5.85,1.401-9.016c-1.376-0.278-1.335-0.274-1.168-1.827c0.168-1.563,0.207-3.142,0.359-4.709
		c0.085-0.938,0.15-1.904,0.438-2.787c0.404-1.26,0.313-2.326-0.744-3.3c-0.168,0.278-0.393,0.562-0.523,0.882
		c-0.503,1.241-0.984,2.49-1.449,3.744c-0.07,0.183-0.11,0.474-0.015,0.603c0.52,0.682,0.133,1.245-0.17,1.833
		c-0.485,0.94-0.969,1.88-1.467,2.813c-0.065,0.126-0.195,0.295-0.312,0.308c-0.896,0.1-1.005,0.505-0.688,1.301
		c0.1,0.248-0.298,0.692-0.402,0.906c0.021,0.95-0.096,1.873,0.088,2.732c0.303,1.363-0.217,3.012,1.304,4.024
		c0.19,0.129,0.151,0.69,0.11,1.042c-0.028,0.251-0.254,0.476-0.371,0.719c-0.355,0.703-0.785,0.807-1.615,0.341
		c0.168-0.457,0.319-0.941,0.525-1.397c0.273-0.603,0.03-1.072-0.455-1.313c-0.669-0.33-1.396-0.523-1.283-1.532
		c-0.842,1.495-1.618,2.888-1.022,4.672h-1.959c0.11-0.346,0.117-0.722,0.312-0.926c0.718-0.754,0.487-1.643,0.45-2.509
		c-0.011-0.272-0.066-0.551-0.034-0.817c0.19-1.648,0.4-3.299,0.603-4.943c-0.107-0.056-0.216-0.11-0.322-0.164
		c-0.396,0.357-0.797,0.715-1.315,1.181c-0.146-0.593-0.299-0.035-0.486-0.807c0.461,0.304,0.697-0.64,0.966-0.595
		c0.101,0.017,0.407-0.403,0.407-0.621C137.814,50.992,137.983,49.699,139.524,48.826"/>
	<g>
		<path fill="#020202" d="M5.903,67.797h-1.45v-3.268L1.62,67.797H0.741v-5.933h1.451v3.405l2.866-3.405h0.845V67.797z"/>
		<path fill="#020202" d="M9.674,64.833c0-1.731,1.485-3.07,3.238-3.07c1.752,0,3.237,1.332,3.237,3.07
			c0,1.735-1.485,3.068-3.237,3.068C11.159,67.901,9.674,66.568,9.674,64.833z M14.631,64.833c0-0.963-0.792-1.72-1.719-1.72
			c-0.928,0-1.72,0.775-1.72,1.72c0,0.96,0.792,1.719,1.72,1.719C13.839,66.552,14.631,65.793,14.631,64.833z"/>
		<path fill="#020202" d="M21.985,65.912c0,1.129-0.826,1.885-2.224,1.885h-2.532v-5.933h4.387v1.315h-2.936v0.909h1.081
			C21.195,64.089,21.985,64.833,21.985,65.912z M20.469,65.912c0-0.447-0.347-0.607-0.774-0.607h-1.014v1.247h1.014
			C20.122,66.552,20.469,66.358,20.469,65.912z"/>
		<path fill="#020202" d="M31.962,66.483v2.63h-0.943l-0.303-1.316h-7.588v-5.933h1.449v4.619h1.855v-4.619h1.448v4.619h1.857
			v-4.619h1.447v4.619H31.962z"/>
		<path fill="#020202" d="M37.252,66.483v1.313h-4.248v-5.933h4.182v1.315h-2.733v1.044h2.429v1.216h-2.429v1.044H37.252z"/>
		<path fill="#020202" d="M38.045,64.833c0-1.738,1.215-3.07,2.97-3.07c1.754,0,2.758,1.122,2.96,2.396h-1.518
			c-0.18-0.542-0.649-1.046-1.409-1.046c-0.977,0-1.483,0.766-1.483,1.72c0,0.952,0.498,1.719,1.483,1.719
			c0.826,0,1.238-0.433,1.441-1.076h1.501c-0.177,1.245-1.172,2.426-3.01,2.426C39.226,67.901,38.045,66.568,38.045,64.833z"/>
		<path fill="#020202" d="M49.657,63.18h-1.852v4.617h-1.453V63.18h-1.888v-1.315h5.192V63.18z"/>
		<path fill="#020202" d="M55.665,65.945c0,1.164-0.87,1.852-2.092,1.852h-2.902v-5.933h2.868c0.941,0,1.854,0.589,1.854,1.65
			c0,0.456-0.245,0.786-0.589,1.04C55.335,64.839,55.665,65.347,55.665,65.945z M52.123,63.113v1.146h1.213
			c0.364,0,0.604-0.229,0.604-0.573c0-0.314-0.24-0.572-0.604-0.572H52.123z M54.145,65.979c0-0.304-0.277-0.574-0.64-0.574h-1.382
			v1.147h1.382C53.867,66.552,54.145,66.332,54.145,65.979z"/>
		<path fill="#020202" d="M61.026,66.483v1.313h-4.25v-5.933h4.183v1.315h-2.73v1.044h2.427v1.216h-2.427v1.044H61.026z"/>
		<path fill="#020202" d="M67.471,61.864v5.933h-1.448v-2.321H63.66v2.321h-1.45v-5.933h1.45v2.295h2.362v-2.295H67.471z"/>
		<path fill="#020202" d="M74.106,61.864v5.933h-1.451v-2.321h-2.359v2.321H68.85v-5.933h1.446v2.295h2.359v-2.295H74.106z"/>
		<path fill="#020202" d="M80.247,65.877c0,1.129-0.826,1.92-2.226,1.92h-2.528v-5.933h1.451v2.155h1.077
			C79.459,64.02,80.247,64.798,80.247,65.877z M78.731,65.877c0-0.447-0.348-0.639-0.776-0.639h-1.011v1.28h1.011
			C78.384,66.519,78.731,66.323,78.731,65.877z M82.137,61.864v5.933h-1.451v-5.933H82.137z"/>
		<path fill="#020202" d="M87.425,67.797l-1.356-1.901l-1.34,1.901h-1.688l2.182-3.102l-2.014-2.831h1.655l1.188,1.661l1.173-1.661
			h1.72l-2.042,2.851l2.21,3.082H87.425z"/>
	</g>
	<g>
		<path fill="#020202" d="M6.003,79.092h-1.45v-4.621h-2.36v4.621H0.741v-5.934h5.262V79.092z"/>
		<path fill="#020202" d="M12.068,75.146c0,1.08-0.803,1.956-2.058,1.956H8.83v1.989H7.38v-5.934h2.631
			C11.235,73.158,12.068,74.02,12.068,75.146z M10.55,75.146c0-0.445-0.345-0.709-0.776-0.709H8.83v1.453h0.943
			C10.229,75.891,10.55,75.593,10.55,75.146z"/>
		<path fill="#020202" d="M12.912,76.125c0-1.728,1.483-3.068,3.239-3.068c1.753,0,3.236,1.33,3.236,3.068s-1.483,3.068-3.236,3.068
			C14.396,79.193,12.912,77.863,12.912,76.125z M17.872,76.125c0-0.963-0.793-1.721-1.721-1.721c-0.927,0-1.72,0.777-1.72,1.721
			c0,0.963,0.793,1.72,1.72,1.72C17.079,77.845,17.872,77.088,17.872,76.125z"/>
		<path fill="#020202" d="M20.168,76.125c0-1.738,1.213-3.068,2.966-3.068c1.752,0,2.757,1.123,2.961,2.395h-1.52
			c-0.177-0.54-0.646-1.047-1.409-1.047c-0.977,0-1.482,0.769-1.482,1.721s0.499,1.72,1.482,1.72c0.83,0,1.241-0.431,1.443-1.079
			h1.503c-0.179,1.247-1.172,2.428-3.012,2.428C21.348,79.193,20.168,77.863,20.168,76.125z"/>
		<path fill="#020202" d="M31.778,74.471h-1.855v4.621h-1.45v-4.621h-1.886v-1.312h5.191V74.471z"/>
		<path fill="#020202" d="M37.48,75.146c0,1.08-0.803,1.956-2.058,1.956h-1.182v1.989h-1.449v-5.934h2.631
			C36.644,73.158,37.48,74.02,37.48,75.146z M35.962,75.146c0-0.445-0.345-0.709-0.776-0.709h-0.944v1.453h0.944
			C35.641,75.891,35.962,75.593,35.962,75.146z"/>
		<path fill="#020202" d="M41.739,78.217h-2.632l-0.37,0.875h-1.485l2.632-5.934h1.181l2.598,5.934h-1.553L41.739,78.217z
			 M41.234,77.035l-0.812-1.914l-0.809,1.914H41.234z"/>
		<path fill="#020202" d="M49.759,73.158v5.934H48.31v-2.326H45.95v2.326H44.5v-5.934h1.45v2.293h2.359v-2.293H49.759z"/>
		<path fill="#020202" d="M50.841,76.125c0-1.738,1.214-3.068,2.967-3.068c1.754,0,2.758,1.123,2.961,2.395h-1.52
			c-0.176-0.54-0.648-1.047-1.408-1.047c-0.977,0-1.48,0.769-1.48,1.721s0.496,1.72,1.48,1.72c0.828,0,1.239-0.431,1.444-1.079h1.5
			c-0.176,1.247-1.173,2.428-3.012,2.428C52.021,79.193,50.841,77.863,50.841,76.125z"/>
		<path fill="#020202" d="M62.45,74.471h-1.854v4.621h-1.451v-4.621h-1.887v-1.312h5.191V74.471z"/>
		<path fill="#020202" d="M68.458,77.237c0,1.166-0.867,1.854-2.093,1.854h-2.901v-5.934h2.868c0.943,0,1.854,0.589,1.854,1.651
			c0,0.455-0.244,0.783-0.59,1.035C68.13,76.134,68.458,76.639,68.458,77.237z M64.915,74.404v1.147h1.216
			c0.361,0,0.607-0.228,0.607-0.572c0-0.313-0.246-0.575-0.607-0.575H64.915z M66.938,77.271c0-0.302-0.277-0.571-0.64-0.571h-1.384
			v1.146h1.384C66.661,77.845,66.938,77.626,66.938,77.271z"/>
	</g>
	<path fill="#020202" d="M187.251,60.42c0.049,0.185,0.1,0.369,0.15,0.555c0.192,0.672,0.401,1.337,0.612,2.002
		c0.042,0.129,0.492,1.803,0.567,1.803c1.247,0,2.497,0,3.746,0c-1.072-2.412-2.384-4.726-3.059-7.295
		c-0.286-1.09-0.484-2.204-0.607-3.322c-0.095-0.848-0.149-1.703-0.168-2.557c-0.039-1.526,0.041-3.062,0.204-4.582
		c0.191-1.763,0.497-3.221,0.715-4.238c0.225-1.021,0.4-1.587,0.4-1.587c0.024-0.081-0.013-0.173-0.091-0.21
		c-0.089-0.043-0.191-0.01-0.236,0.079c0,0-1.107,2.173-2.015,5.731c-0.228,0.886-0.433,1.863-0.621,2.904
		C186.202,53.254,186.348,56.927,187.251,60.42"/>
	<path fill="#6D6B6D" d="M194.309,49.805c-2.593,2.048-3.863,5.146-3.7,8.212c2.945,0.868,6.251,0.351,8.844-1.698
		c2.596-2.046,3.862-5.144,3.703-8.21C200.205,47.239,196.905,47.758,194.309,49.805"/>
	<path fill="#6D6B6D" d="M182.229,47.307c2.546,2.546,3.528,6.057,2.962,9.356c-3.301,0.567-6.813-0.416-9.361-2.96
		c-2.547-2.549-3.528-6.061-2.963-9.361C176.169,43.774,179.683,44.756,182.229,47.307"/>
	<path fill="#6D6B6D" d="M191.666,40.093c-1.4,2.675-1.307,5.729-0.027,8.226c2.782-0.37,5.344-2.035,6.745-4.711
		c1.398-2.675,1.303-5.727,0.028-8.226C195.63,35.754,193.064,37.419,191.666,40.093"/>
	<path fill="#6D6B6D" d="M200.781,41.356c-1.369,1.355-1.901,3.23-1.608,4.997c1.765,0.314,3.647-0.201,5.016-1.557
		c1.373-1.355,1.904-3.234,1.612-5.002C204.035,39.483,202.151,39.999,200.781,41.356"/>
	<path fill="#6D6B6D" d="M174.092,41.434c1.323,1.398,3.191,1.977,4.964,1.728c0.351-1.761-0.119-3.653-1.446-5.056
		c-1.324-1.401-3.187-1.978-4.959-1.724C172.296,38.139,172.768,40.032,174.092,41.434"/>
	<path fill="#6D6B6D" d="M183.606,31.827c0.318,1.181,1.188,2.062,2.255,2.451c0.724-0.878,1.026-2.075,0.707-3.256
		c-0.322-1.179-1.19-2.058-2.256-2.446C183.586,29.449,183.284,30.648,183.606,31.827"/>
	<path fill="#6D6B6D" d="M194.56,31.934c-0.719,0.989-0.859,2.218-0.495,3.292c1.136,0.015,2.26-0.501,2.979-1.488
		c0.717-0.989,0.859-2.218,0.494-3.293C196.402,30.43,195.276,30.945,194.56,31.934"/>
	<path fill="#6D6B6D" d="M187.641,33.345c-0.419,2.11,0.26,4.185,1.632,5.636c1.831-0.814,3.253-2.468,3.674-4.58
		c0.417-2.111-0.262-4.181-1.637-5.636C189.481,29.58,188.062,31.232,187.641,33.345"/>
	<path fill="#6D6B6D" d="M180.045,41.063c1.047,2.638,3.284,4.446,5.844,5.068c1.444-2.21,1.832-5.064,0.783-7.7
		c-1.048-2.641-3.282-4.444-5.848-5.066C179.383,35.575,178.994,38.426,180.045,41.063"/>
</g>
</svg>
