<?xml version="1.0" encoding="utf-8"?>
<!-- Generator: Adobe Illustrator 16.0.0, SVG Export Plug-In . SVG Version: 6.00 Build 0)  -->
<!DOCTYPE svg PUBLIC "-//W3C//DTD SVG 1.1//EN" "http://www.w3.org/Graphics/SVG/1.1/DTD/svg11.dtd">
<svg version="1.1" id="Layer_1" xmlns="http://www.w3.org/2000/svg" xmlns:xlink="http://www.w3.org/1999/xlink" x="0px" y="0px"
	 width="595.28px" height="841.89px" viewBox="0 0 595.28 841.89" enable-background="new 0 0 595.28 841.89" xml:space="preserve">
<g>
	<path fill="#7A777A" d="M305.403,411.132c0,0.58,0.471,1.053,1.051,1.053h7.77c-0.159-0.264-0.336-0.502-0.532-0.697l-7.59-7.591
		c-0.196-0.196-0.437-0.374-0.698-0.532V411.132z"/>
	<path fill="#7A777A" d="M306.454,414.16c-1.669,0-3.026-1.359-3.026-3.028v-8.416c-0.069-0.005-0.141-0.014-0.209-0.014h-19.837
		c-1.313,0-2.382,1.069-2.382,2.383v32.316c0,1.312,1.068,2.383,2.382,2.383h29.123c1.313,0,2.381-1.07,2.381-2.383v-23.033
		c0-0.068-0.007-0.139-0.012-0.208H306.454z"/>
</g>
<g>
	<g>
		<path fill="#FFFFFF" d="M288.784,427.512c0-2.328,0-4.656,0-6.996c1.01,0,2.049,0,3.078,0c3.349,0.01,3.349,5.207,0,5.207h-1.289
			v1.789C289.973,427.512,289.374,427.512,288.784,427.512z M291.852,422.115c-0.42-0.01-0.87,0-1.279,0c0,0.57,0,1.43,0,1.998
			h1.279C292.832,424.113,292.891,422.125,291.852,422.115z"/>
		<path fill="#FFFFFF" d="M298.362,427.512h-2.639v-6.996h2.639C302.92,420.536,302.92,427.492,298.362,427.512z M297.512,425.883
			h0.85c2.228,0,2.228-3.738,0-3.738h-0.85V425.883z"/>
		<path fill="#FFFFFF" d="M304.963,425.244v2.268c-0.602,0-1.211,0-1.82,0v-6.996c1.43,0,2.93,0,4.357,0c0,0.59,0,0.999,0,1.599
			h-2.537v1.529h2.248c0,0.6,0,0.979,0,1.6H304.963z"/>
	</g>
</g>
</svg>
