<?xml version="1.0" encoding="utf-8"?>
<!-- Generator: Adobe Illustrator 16.0.0, SVG Export Plug-In . SVG Version: 6.00 Build 0)  -->
<!DOCTYPE svg PUBLIC "-//W3C//DTD SVG 1.1//EN" "http://www.w3.org/Graphics/SVG/1.1/DTD/svg11.dtd">
<svg version="1.1" id="Layer_1" xmlns="http://www.w3.org/2000/svg" xmlns:xlink="http://www.w3.org/1999/xlink" x="0px" y="0px"
	 width="419.53px" height="595.28px" viewBox="0 0 419.53 595.28" enable-background="new 0 0 419.53 595.28" xml:space="preserve">
<path fill-rule="evenodd" clip-rule="evenodd" fill="#FFFFFF" d="M219.835,306.681c-0.053,0-0.106,0-0.158,0
	c-1.712-0.281-2.877-1.489-3.87-2.606c-0.562-0.634-1.423-2.061-2.448-1.896c-1.459,0.233-0.735,2.723-1.344,3.79
	c-0.49,0.862-2.585,0.706-4.028,0.554c-4.556-0.484-6.883-2.915-8.924-5.529c-2.182-2.792-3.88-5.717-5.45-8.926
	c-0.509-1.038-1.184-2.188-1.185-3.475c0.738-0.602,1.943-0.394,3.158-0.394c1.032,0,2.643-0.228,3.396,0.158
	c0.449,0.227,0.901,1.438,1.265,2.211c0.831,1.773,1.597,3.05,2.606,4.5c0.437,0.63,1.108,1.818,1.895,1.66
	c0.765-0.153,0.837-2.034,0.869-3.238c0.038-1.367,0-3.065-0.395-3.791c-0.37-0.684-1.05-0.698-1.738-1.106
	c0.572-1.149,2.14-1.263,4.028-1.263c1.589,0,3.805-0.176,4.423,0.869c0.632,1.062,0.198,2.983,0.157,4.422
	c-0.043,1.616-0.321,3.287,0.791,4.027c0.859-0.092,1.318-0.927,1.816-1.58c1.09-1.426,1.764-2.662,2.607-4.5
	c0.345-0.756,0.716-2.055,1.342-2.291c0.955-0.36,2.474-0.078,3.87-0.078c1.144,0,3.188-0.316,3.554,0.473
	c0.306,0.656-0.592,2.311-0.868,2.765c-1.057,1.734-2.096,2.837-3.238,4.345c-0.456,0.602-1.398,1.566-1.343,2.526
	c0.042,0.732,0.777,1.292,1.343,1.817c1.227,1.139,2.086,1.969,3.08,3.238c0.374,0.479,1.183,1.514,1.106,2.132
	C225.912,307.425,221.367,306.216,219.835,306.681z"/>
</svg>
