<?xml version="1.0" encoding="utf-8"?>
<!-- Generator: Adobe Illustrator 16.0.0, SVG Export Plug-In . SVG Version: 6.00 Build 0)  -->
<!DOCTYPE svg PUBLIC "-//W3C//DTD SVG 1.1//EN" "http://www.w3.org/Graphics/SVG/1.1/DTD/svg11.dtd">
<svg version="1.1" id="Layer_1" xmlns="http://www.w3.org/2000/svg" xmlns:xlink="http://www.w3.org/1999/xlink" x="0px" y="0px"
	 width="237.5px" height="200.5px" viewBox="0 0 237.5 200.5" enable-background="new 0 0 237.5 200.5" xml:space="preserve">
<g>
	<path fill-rule="evenodd" clip-rule="evenodd" fill="#FFFFFF" d="M46.838,60.793h9.841c14.2-42.145,0,0,14.2-42.145v42.145h9.07
		V1.506H67.003L51.901,47.038L36.665,1.506H23.646v59.287h9.637V18.914L46.838,60.793z"/>
	<path fill-rule="evenodd" clip-rule="evenodd" fill="#FFFFFF" d="M133.016,42.013c-3.849,10.923-19.822,16.876-31.065,5.324
		c-2.409-2.477-5.297-6.03-5.297-15.843c0-4.787,1.512-21.536,18.987-21.985c10.209-0.266,12.509,3.608,14.007,5.218
		C135.793,21.353,135.872,33.913,133.016,42.013 M144.952,31.097c0-10.648-2.962-16.297-7.852-22.089
		C130.736,1.476,121.978,0.004,114.58,0c-7.155-0.009-15.014,3.229-20.704,9.471c-6.552,7.202-7.159,15.939-7.251,22.971
		c-0.175,11.884,11.226,33.034,33.53,29.425c0,0,12.762-1.858,18.08-9.679C141.07,48.025,145.152,42.979,144.952,31.097z"/>
	<path fill-rule="evenodd" clip-rule="evenodd" fill="#FFFFFF" d="M191.725,38.405c-0.836,8.104-7.516,14.479-13.05,14.731
		c-4.687,0.208-9.08,0.329-13.173-3.525c-5.869-5.536-6.612-11.69-7.042-16.188c-0.758-7.885,1.588-13.327,3.521-16.695
		c4.117-7.181,11.504-7.367,15.012-7.464c9.063-0.253,14.021,7.548,14.732,11.722h9.598c0.231-5.67-2.621-10.285-6.404-14.335
		c-3.777-3.684-10.646-6.515-18.288-6.395c-5.761,0.097-11.994,0.042-18.593,6.067c-8.703,8.006-9.409,19.162-9.142,27.269
		c0.099,6.561,1.091,15.854,9.309,22.479c6.355,5.12,12.586,6.709,18.206,6.124c9.981-1.043,16.158-4.115,19.521-8.805
		c2.298-3.048,5.028-9.795,5.392-15.02L191.725,38.405z"/>
	<polygon fill-rule="evenodd" clip-rule="evenodd" fill="#FFFFFF" points="59.464,80.228 59.464,71.46 23.646,71.46 23.646,130.607 
		33.872,130.607 33.872,80.331 	"/>
	<path fill-rule="evenodd" clip-rule="evenodd" fill="#FFFFFF" d="M105.979,116.167c-4.607,6.531-11.203,7.031-14.87,7.031
		c-3.761,0-10.354-0.5-14.97-7.031c-1.738-2.405-3.961-6.926-3.961-15.108c0-3.96,0.712-10.716,4.526-15.77
		c1.032-1.477,5.172-6.592,14.404-6.365c9.046,0,13.27,4.889,14.403,6.365c2.45,3.32,4.437,8.261,4.437,15.77
		C110.121,108.266,108.279,112.842,105.979,116.167 M112.496,78.414c-5.94-6.877-14.283-8.433-21.236-8.433
		c-7.243,0-15.397,1.556-21.594,8.433c-5.935,6.788-7.136,16.038-7.393,22.432c0,10.805,3.668,18.019,7.393,22.279
		c6.196,6.968,14.351,8.281,21.594,8.281c7.142,0,15.387-1.313,21.325-8.281c3.927-4.444,7.56-11.475,7.401-22.279
		C119.986,91.197,117.173,83.648,112.496,78.414z"/>
	<path fill-rule="evenodd" clip-rule="evenodd" fill="#FFFFFF" d="M156.853,96.678c-1.125,0.388-3.167,1.253-7.561,1.253h-12.629
		V80.339h12.629c4.394,0,6.436,0.643,7.561,1.055c2.833,1.257,4.247,3.839,4.386,7.142
		C161.373,92.048,159.986,95.026,156.853,96.678 M165.14,75.016c-3.719-3.281-8.09-3.66-12.944-3.66h-25.847v59.252h10.326
		l0.101-23.844l11.755,0.103c6.958,0,11.327-0.35,14.814-2.327c6.492-4.05,7.827-8.356,7.925-14.708
		C171.453,79.385,166.944,76.6,165.14,75.016z"/>
	<polygon fill-rule="evenodd" clip-rule="evenodd" fill="#FFFFFF" points="34.122,150.15 61.714,150.15 61.714,200.425 
		71.345,200.425 71.345,140.874 23.646,140.874 23.646,200.425 34.122,200.425 	"/>
	<path fill-rule="evenodd" clip-rule="evenodd" fill="#FFFFFF" d="M95.76,174.852l7.755-20.719l7.498,20.719H95.76z
		 M108.429,140.874h-9.963l-22.435,59.551h10.796l6.044-17.364l21.027,0.285l5.465,17.079h11.235L108.429,140.874z"/>
	<path fill-rule="evenodd" clip-rule="evenodd" fill="#FFFFFF" d="M165.66,166.864c-1.026,0.472-4.577,0.871-8.711,0.871h-11.88
		v-17.646h11.88c4.134,0,6.283,0,7.115,0.399c2.352,1.119,5.041,3.504,5.168,7.643C169.352,161.773,168.495,165.559,165.66,166.864
		 M171.378,143.541c-3.929-2.313-8.306-2.902-12.789-2.902h-23.822v59.786h9.857v-24.257h13.233c6.385,0,10.264-0.747,13.5-2.599
		c5.965-3.735,7.604-10.23,7.604-15.289C178.801,148.644,173.282,144.375,171.378,143.541z"/>
	<polygon fill-rule="evenodd" clip-rule="evenodd" fill="#FFFFFF" points="197.562,167.415 197.562,140.639 187.596,140.639 
		187.596,200.425 197.562,200.425 197.562,179.463 205.517,172.242 225.146,200.425 237.452,200.425 212.73,165.345 
		237.452,140.639 223.762,140.639 	"/>
	<rect y="1.506" fill-rule="evenodd" clip-rule="evenodd" fill="#FFFFFF" width="9.415" height="198.919"/>
</g>
</svg>
